<mxfile host="app.diagrams.net" agent="Mozilla/5.0 (Windows NT 10.0; Win64; x64) AppleWebKit/537.36 (KHTML, like Gecko) Chrome/135.0.0.0 Safari/537.36" version="26.2.14">
  <diagram name="第 1 页" id="mt0B6BnO9j8x8Yh-gAJp">
    <mxGraphModel dx="5965" dy="5158" grid="0" gridSize="10" guides="1" tooltips="1" connect="1" arrows="1" fold="1" page="0" pageScale="1" pageWidth="827" pageHeight="1169" math="0" shadow="0">
      <root>
        <mxCell id="0" />
        <mxCell id="1" style="" parent="0" />
        <mxCell id="npopnhAjGusDiyGefJ4p-180" value="" style="ellipse;whiteSpace=wrap;html=1;strokeColor=#CCCCCC;fillColor=#E6E6E6;opacity=50;container=0;" vertex="1" parent="1">
          <mxGeometry x="-459.5" y="-1474" width="471" height="368" as="geometry" />
        </mxCell>
        <mxCell id="npopnhAjGusDiyGefJ4p-1" value="" style="endArrow=classic;html=1;rounded=0;strokeWidth=3;strokeColor=#359EFF;shape=flexArrow;fillColor=#359EFF;width=6.538461538461538;endSize=12.084615384615384;" edge="1" parent="1">
          <mxGeometry width="50" height="50" relative="1" as="geometry">
            <mxPoint x="-65" y="1677" as="sourcePoint" />
            <mxPoint x="-161" y="1595" as="targetPoint" />
          </mxGeometry>
        </mxCell>
        <mxCell id="npopnhAjGusDiyGefJ4p-2" value="" style="endArrow=classic;html=1;rounded=0;strokeWidth=3;strokeColor=#FFD966;shape=flexArrow;fillColor=#FFD966;width=6.538461538461538;endSize=12.084615384615384;" edge="1" parent="1">
          <mxGeometry width="50" height="50" relative="1" as="geometry">
            <mxPoint x="-352" y="1636" as="sourcePoint" />
            <mxPoint x="-352" y="1892" as="targetPoint" />
          </mxGeometry>
        </mxCell>
        <mxCell id="npopnhAjGusDiyGefJ4p-3" value="" style="endArrow=classic;html=1;rounded=0;strokeWidth=3;strokeColor=#CC99FF;shape=flexArrow;fillColor=#CC99FF;width=6.538461538461538;endSize=12.084615384615384;" edge="1" parent="1">
          <mxGeometry width="50" height="50" relative="1" as="geometry">
            <mxPoint x="378" y="2116" as="sourcePoint" />
            <mxPoint x="-49" y="2116" as="targetPoint" />
          </mxGeometry>
        </mxCell>
        <mxCell id="npopnhAjGusDiyGefJ4p-4" value="" style="endArrow=classic;html=1;rounded=0;strokeWidth=3;strokeColor=#FF3333;shape=flexArrow;fillColor=#FF3333;width=6.538461538461538;endSize=12.084615384615384;" edge="1" parent="1">
          <mxGeometry width="50" height="50" relative="1" as="geometry">
            <mxPoint x="628.84" y="1647" as="sourcePoint" />
            <mxPoint x="628.84" y="1867" as="targetPoint" />
          </mxGeometry>
        </mxCell>
        <mxCell id="npopnhAjGusDiyGefJ4p-5" value="" style="group" vertex="1" connectable="0" parent="1">
          <mxGeometry x="-65" y="1604" width="471" height="368" as="geometry" />
        </mxCell>
        <mxCell id="npopnhAjGusDiyGefJ4p-6" value="" style="ellipse;whiteSpace=wrap;html=1;strokeColor=#CCCCCC;fillColor=#E6E6E6;opacity=50;container=0;" vertex="1" parent="npopnhAjGusDiyGefJ4p-5">
          <mxGeometry width="471" height="368" as="geometry" />
        </mxCell>
        <mxCell id="npopnhAjGusDiyGefJ4p-7" value="" style="group" vertex="1" connectable="0" parent="npopnhAjGusDiyGefJ4p-5">
          <mxGeometry x="7" y="46" width="412.84000000000003" height="262" as="geometry" />
        </mxCell>
        <mxCell id="npopnhAjGusDiyGefJ4p-8" value="" style="shape=image;verticalLabelPosition=bottom;labelBackgroundColor=default;verticalAlign=top;aspect=fixed;imageAspect=0;editableCssRules=.*;image=data:image/svg+xml,PHN2ZyB4bWxuczp4bGluaz0iaHR0cDovL3d3dy53My5vcmcvMTk5OS94bGluayIgeG1sbnM9Imh0dHA6Ly93d3cudzMub3JnLzIwMDAvc3ZnIiBoZWlnaHQ9IjE1OC4zMzMzMzczMDY5NzYzMiIgd2lkdGg9IjE2Ni42NTgzNDE4ODQ2MTMwNCIgdmVyc2lvbj0iMS4xIiB2aWV3Qm94PSI4NS4zMzMzMzU4NzY0NjQ4NCAxMjggODUzLjI5MDcxMDQ0OTIxODggODEwLjY2NjY4NzAxMTcxODgiIGNsYXNzPSJpY29uIj48cGF0aCBmaWxsPSIjMmMyYzJjIiBkPSJNMjg4IDkzOC42NjY2NjdhMzIgMzIgMCAwIDEtNC4zNTItNjMuNzAxMzM0bDQuMzUyLTAuMjk4NjY2aDc0LjYyNHYtMTA2LjU4MTMzNEgxODEuMzMzMzMzYTk2IDk2IDAgMCAxLTk1Ljc4NjY2Ni04OS40MjkzMzNMODUuMzMzMzMzIDY3Mi4wODUzMzNWMjI0YTk2IDk2IDAgMCAxIDg5LjQyOTMzNC05NS43ODY2NjdMMTgxLjMzMzMzMyAxMjhoNjYxLjI5MDY2N2E5NiA5NiAwIDAgMSA5NS43ODY2NjcgODkuNDI5MzMzbDAuMjEzMzMzIDYuNTcwNjY3djQ0OC4wODUzMzNhOTYgOTYgMCAwIDEtODkuNDI5MzMzIDk1Ljc4NjY2N2wtNi41NzA2NjcgMC4yMTMzMzNoLTE4MS4zMzMzMzNWODc0LjY2NjY2N2g3NC43MDkzMzNhMzIgMzIgMCAwIDEgNC4zNTIgNjMuNzAxMzMzTDczNiA5MzguNjY2NjY3SDI4OHogbTMwOS4yNDgtMTcwLjU4MTMzNGgtMTcwLjY2NjY2N2wwLjA0MjY2NyAxMDYuNTgxMzM0aDE3MC42NjY2NjdsLTAuMDQyNjY3LTEwNi41ODEzMzR6TTg0Mi41ODEzMzMgMTkySDE4MS4zMzMzMzNhMzIgMzIgMCAwIDAtMzEuNzAxMzMzIDI3LjY0OEwxNDkuMzMzMzMzIDIyNHY0NDguMDg1MzMzYzAgMTYuMjEzMzMzIDEyLjAzMiAyOS41NjggMjcuNjQ4IDMxLjcwMTMzNGw0LjM1MiAwLjI5ODY2Nmg2NjEuMjkwNjY3YTMyIDMyIDAgMCAwIDMxLjcwMTMzMy0yNy42NDhsMC4yOTg2NjctNC4zNTJWMjI0YTMyIDMyIDAgMCAwLTI3LjY0OC0zMS43NDRsLTQuMzUyLTAuMjU2eiIvPjwvc3ZnPg==;" vertex="1" parent="npopnhAjGusDiyGefJ4p-7">
          <mxGeometry x="230" y="89" width="182.84" height="173" as="geometry" />
        </mxCell>
        <mxCell id="npopnhAjGusDiyGefJ4p-9" value="" style="shape=image;verticalLabelPosition=bottom;labelBackgroundColor=default;verticalAlign=top;aspect=fixed;imageAspect=0;editableCssRules=.*;image=data:image/svg+xml,PHN2ZyB4bWxuczp4bGluaz0iaHR0cDovL3d3dy53My5vcmcvMTk5OS94bGluayIgeG1sbnM9Imh0dHA6Ly93d3cudzMub3JnLzIwMDAvc3ZnIiBoZWlnaHQ9IjIwMC4wMTI3NTUzOTM5ODE5MyIgd2lkdGg9IjE4Ni42NjY2NTU1NDA0NjYzIiB2ZXJzaW9uPSIxLjEiIHZpZXdCb3g9IjMzLjY4OTU3NTE5NTMxMjUgMC4wMDI1NzY0MDE5MjI4NTE4MDEgOTU1LjczMzI3NjM2NzE4NzUgMTAyNC4wNjUzMDc2MTcxODc1IiBjbGFzcz0iaWNvbiI+PHBhdGggZmlsbD0iI0YyRjJGMiIgZD0iTTYxMy41NDY2NjcgMTAxOS4yMjEzMzNsLTguMTkyIDAuODE5MiA4LjE5Mi0wLjgxOTJ6TTU3MS40MjYxMzMgMTAyMi4yMjUwNjdjLTQuNDM3MzMzIDAuMjA0OC04Ljk0MjkzMyAwLjYxNDQtMTMuMzgwMjY2IDAuNzUwOTMzbDEzLjM4MDI2Ni0wLjc1MDkzM3pNNDY1LjA2NjY2NyAxMDIyLjk3NmwtMTMuMzgwMjY3LTAuNzUwOTMzIDEzLjM4MDI2NyAwLjc1MDkzM3pNNDE3Ljc1Nzg2NyAxMDE5Ljk3MjI2N2wtOC4xOTItMC44MTkyYzIuNzMwNjY3IDAuMzQxMzMzIDUuMzkzMDY3IDAuNjE0NCA4LjE5MiAwLjgxOTJ6TTQwOS45MDcyIDQuNzc4NjY3bDcuNzE0MTMzLTAuNzUwOTM0YTI2OC41NjEwNjcgMjY4LjU2MTA2NyAwIDAgMC03LjcxNDEzMyAwLjc1MDkzNHpNNTU4LjA0NTg2NyAxLjAyNGwxMy4xNzU0NjYgMC43NTA5MzNjLTQuMzY5MDY3LTAuMjczMDY3LTguNzM4MTMzLTAuNjE0NC0xMy4xNzU0NjYtMC43NTA5MzN6TTYwNS40OTEyIDQuMDI3NzMzbDcuNzE0MTMzIDAuNzUwOTM0YTI2OC41NjEwNjcgMjY4LjU2MTA2NyAwIDAgMC03LjcxNDEzMy0wLjc1MDkzNHpNNDUxLjg5MTIgMS43NzQ5MzNsMTMuMTc1NDY3LTAuNzUwOTMzYy00LjQzNzMzMyAwLjEzNjUzMy04LjgwNjQgMC40Nzc4NjctMTMuMTc1NDY3IDAuNzUwOTMzeiIvPjxwYXRoIGZpbGw9IiMzNTlFRkYiIGQ9Ik02MTMuMjA1MzMzIDQuNzc4NjY3bC03LjcxNDEzMy0wLjc1MDkzNGExMTM5LjM3MDY2NyAxMTM5LjM3MDY2NyAwIDAgMC0zNC4yNjk4NjctMi4yNTI4bC0xMy4xNzU0NjYtMC43NTA5MzNhMTA1OC41NDI5MzMgMTA1OC41NDI5MzMgMCAwIDAtOTIuOTc5MiAwbC0xMy4xNzU0NjcgMC43NTA5MzNhMTEzOS4zNzA2NjcgMTEzOS4zNzA2NjcgMCAwIDAtMzQuMjY5ODY3IDIuMjUyOGwtNy43MTQxMzMgMC43NTA5MzRjLTE5Ni42NzYyNjcgMTcuNzQ5MzMzLTM3Ni4yMTc2IDg2LjQ5Mzg2Ny0zNzYuMjE3NiAyMDAuMDIxMzMzdjYxNC40YzAgMTEzLjQ1OTIgMTc5LjMzNjUzMyAxODIuMjAzNzMzIDM3NS44NzYyNjcgMjAwLjAyMTMzM2w4LjE5MiAwLjgxOTJjMTEuMjY0IDAuOTU1NzMzIDIyLjU5NjI2NyAxLjYzODQgMzMuOTI4NTMzIDIuMjUyOCA0LjQzNzMzMyAwLjIwNDggOC45NDI5MzMgMC42MTQ0IDEzLjM4MDI2NyAwLjc1MDkzNGExMDU2LjIyMTg2NyAxMDU2LjIyMTg2NyAwIDAgMCA5Mi45NzkyIDBsMTMuMzgwMjY2LTAuNzUwOTM0YzExLjMzMjI2Ny0wLjYxNDQgMjIuNjY0NTMzLTEuMjk3MDY3IDMzLjkyODUzNC0yLjI1MjhsOC4xOTItMC44MTkyYzE5Ni41Mzk3MzMtMTcuNzQ5MzMzIDM3NS44NzYyNjctODYuNDkzODY3IDM3NS44NzYyNjYtMjAwLjAyMTMzM3YtNjE0LjRjMC0xMTMuNTk1NzMzLTE3OS41NDEzMzMtMTgyLjM0MDI2Ny0zNzYuMjE3Ni0yMDAuMDIxMzMzek01MTEuNTU2MjY3IDQwOS42YzE1Ny4wMTMzMzMgMCAzMjAuMzc1NDY3LTMzLjA0MTA2NyA0MDkuNi05NS43MDk4NjdWNDA5LjZjMCAxNi4xNzkyLTEzLjg1ODEzMyAzNC4xMzMzMzMtMzcuNjgzMiA1MS42MDk2IDEuNTcwMTMzLTUuNzM0NCAzLjU0OTg2Ny0xMS4yNjQgMy41NDk4NjYtMTcuNDc2MjY3YTY4LjI2NjY2NyA2OC4yNjY2NjcgMCAwIDAtMTM2LjUzMzMzMyAwYzAgMjcuNzE2MjY3IDE2LjY1NzA2NyA1MS40MDQ4IDQwLjQxMzg2NyA2Mi4wNTQ0LTY5LjQ5NTQ2NyAyMy40MTU0NjctMTYzLjU2NjkzMyA0MC4zNDU2LTI3OS4zNDcyIDQwLjM0NTYtMjUzLjc0NzIgMC00MDkuNi03OS41MzA2NjctNDA5LjYtMTM2LjUzMzMzM3YtOTUuNzA5ODY3Yzg5LjIyNDUzMyA2Mi42Njg4IDI1Mi41ODY2NjcgOTUuNzA5ODY3IDQwOS42IDk1LjcwOTg2N3ogbTM3MS45MTY4IDI1Ni40MDk2YzEuNTcwMTMzLTUuNzM0NCAzLjU0OTg2Ny0xMS4yNjQgMy41NDk4NjYtMTcuNDc2MjY3YTY4LjI2NjY2NyA2OC4yNjY2NjcgMCAwIDAtMTM2LjUzMzMzMyAwYzAgMjcuNzE2MjY3IDE2LjY1NzA2NyA1MS40MDQ4IDQwLjQxMzg2NyA2Mi4wNTQ0LTY5LjQ5NTQ2NyAyMy40MTU0NjctMTYzLjU2NjkzMyA0MC4zNDU2LTI3OS4zNDcyIDQwLjM0NTYtMjUzLjc0NzIgMC00MDkuNi03OS41MzA2NjctNDA5LjYtMTM2LjUzMzMzM3YtOTUuNzA5ODY3Yzg5LjIyNDUzMyA2Mi42Njg4IDI1Mi41ODY2NjcgOTUuNzA5ODY3IDQwOS42IDk1LjcwOTg2N3MzMjAuMzc1NDY3LTMzLjA0MTA2NyA0MDkuNi05NS43MDk4NjdWNjE0LjRjMCAxNi4xNzkyLTEzLjg1ODEzMyAzNC4xMzMzMzMtMzcuNjgzMiA1MS42MDk2eiBtMCAyMDQuOGMxLjU3MDEzMy01LjczNDQgMy41NDk4NjctMTEuMjY0IDMuNTQ5ODY2LTE3LjQ3NjI2N2E2OC4yNjY2NjcgNjguMjY2NjY3IDAgMCAwLTEzNi41MzMzMzMgMGMwIDI3LjcxNjI2NyAxNi42NTcwNjcgNTEuNDA0OCA0MC40MTM4NjcgNjIuMDU0NC02OS40OTU0NjcgMjMuNDE1NDY3LTE2My41NjY5MzMgNDAuMzQ1Ni0yNzkuMzQ3MiA0MC4zNDU2LTI1My43NDcyIDAtNDA5LjYtNzkuNTMwNjY3LTQwOS42LTEzNi41MzMzMzNWNzIzLjQ5MDEzM2M4OS4yMjQ1MzMgNjIuNjY4OCAyNTIuNTg2NjY3IDk1LjcwOTg2NyA0MDkuNiA5NS43MDk4NjdzMzIwLjM3NTQ2Ny0zMy4wNDEwNjcgNDA5LjYtOTUuNzA5ODY3VjgxOS4yYzAgMTYuMTc5Mi0xMy44NTgxMzMgMzQuMTMzMzMzLTM3LjY4MzIgNTEuNjA5NnpNNTExLjU1NjI2NyAzNDEuMzMzMzMzYy0yNTMuNzQ3MiAwLTQwOS42LTc5LjUzMDY2Ny00MDkuNi0xMzYuNTMzMzMzczE1NS44NTI4LTEzNi41MzMzMzMgNDA5LjYtMTM2LjUzMzMzM2MyNTMuODE1NDY3IDAgNDA5LjYgNzkuNTMwNjY3IDQwOS42IDEzNi41MzMzMzNzLTE1NS43ODQ1MzMgMTM2LjUzMzMzMy00MDkuNiAxMzYuNTMzMzMzeiIvPjwvc3ZnPg==;imageBackground=none;" vertex="1" parent="npopnhAjGusDiyGefJ4p-7">
          <mxGeometry x="97" y="162" width="93.51" height="100" as="geometry" />
        </mxCell>
        <mxCell id="npopnhAjGusDiyGefJ4p-10" value="" style="curved=1;endArrow=classic;html=1;rounded=0;strokeColor=#359EFF;strokeWidth=3;" edge="1" parent="npopnhAjGusDiyGefJ4p-7">
          <mxGeometry width="50" height="50" relative="1" as="geometry">
            <mxPoint x="72" y="177" as="sourcePoint" />
            <mxPoint x="81" y="82" as="targetPoint" />
            <Array as="points">
              <mxPoint y="127" />
            </Array>
          </mxGeometry>
        </mxCell>
        <mxCell id="npopnhAjGusDiyGefJ4p-11" value="" style="group" vertex="1" connectable="0" parent="npopnhAjGusDiyGefJ4p-7">
          <mxGeometry x="100.75999999999999" width="86" height="110" as="geometry" />
        </mxCell>
        <mxCell id="npopnhAjGusDiyGefJ4p-12" value="" style="ellipse;whiteSpace=wrap;html=1;aspect=fixed;fillColor=#359EFF;strokeColor=none;" vertex="1" parent="npopnhAjGusDiyGefJ4p-11">
          <mxGeometry width="30" height="30" as="geometry" />
        </mxCell>
        <mxCell id="npopnhAjGusDiyGefJ4p-13" value="" style="ellipse;whiteSpace=wrap;html=1;aspect=fixed;fillColor=#359EFF;strokeColor=none;" vertex="1" parent="npopnhAjGusDiyGefJ4p-11">
          <mxGeometry y="40" width="30" height="30" as="geometry" />
        </mxCell>
        <mxCell id="npopnhAjGusDiyGefJ4p-14" value="" style="ellipse;whiteSpace=wrap;html=1;aspect=fixed;fillColor=#359EFF;strokeColor=none;" vertex="1" parent="npopnhAjGusDiyGefJ4p-11">
          <mxGeometry y="80" width="30" height="30" as="geometry" />
        </mxCell>
        <mxCell id="npopnhAjGusDiyGefJ4p-15" value="" style="ellipse;whiteSpace=wrap;html=1;aspect=fixed;fillColor=#359EFF;strokeColor=none;" vertex="1" parent="npopnhAjGusDiyGefJ4p-11">
          <mxGeometry x="56" y="24" width="30" height="30" as="geometry" />
        </mxCell>
        <mxCell id="npopnhAjGusDiyGefJ4p-16" value="" style="ellipse;whiteSpace=wrap;html=1;aspect=fixed;fillColor=#359EFF;strokeColor=none;" vertex="1" parent="npopnhAjGusDiyGefJ4p-11">
          <mxGeometry x="56" y="60" width="30" height="30" as="geometry" />
        </mxCell>
        <mxCell id="npopnhAjGusDiyGefJ4p-17" value="" style="endArrow=none;html=1;rounded=0;exitX=0.933;exitY=0.46;exitDx=0;exitDy=0;exitPerimeter=0;entryX=0.037;entryY=0.501;entryDx=0;entryDy=0;entryPerimeter=0;fillColor=#359EFF;strokeColor=#359EFF;strokeWidth=3;" edge="1" parent="npopnhAjGusDiyGefJ4p-11" source="npopnhAjGusDiyGefJ4p-12" target="npopnhAjGusDiyGefJ4p-15">
          <mxGeometry width="50" height="50" relative="1" as="geometry">
            <mxPoint x="63" y="4" as="sourcePoint" />
            <mxPoint x="113" y="-46" as="targetPoint" />
          </mxGeometry>
        </mxCell>
        <mxCell id="npopnhAjGusDiyGefJ4p-18" value="" style="endArrow=none;html=1;rounded=0;exitX=0.955;exitY=0.522;exitDx=0;exitDy=0;exitPerimeter=0;entryX=0.037;entryY=0.536;entryDx=0;entryDy=0;entryPerimeter=0;fillColor=#359EFF;strokeColor=#359EFF;strokeWidth=3;" edge="1" parent="npopnhAjGusDiyGefJ4p-11" source="npopnhAjGusDiyGefJ4p-13" target="npopnhAjGusDiyGefJ4p-16">
          <mxGeometry width="50" height="50" relative="1" as="geometry">
            <mxPoint x="26" y="56" as="sourcePoint" />
            <mxPoint x="56" y="72" as="targetPoint" />
          </mxGeometry>
        </mxCell>
        <mxCell id="npopnhAjGusDiyGefJ4p-19" value="" style="endArrow=none;html=1;rounded=0;entryX=0;entryY=0.5;entryDx=0;entryDy=0;fillColor=#359EFF;strokeColor=#359EFF;strokeWidth=3;exitX=0.955;exitY=0.496;exitDx=0;exitDy=0;exitPerimeter=0;" edge="1" parent="npopnhAjGusDiyGefJ4p-11" source="npopnhAjGusDiyGefJ4p-13" target="npopnhAjGusDiyGefJ4p-15">
          <mxGeometry width="50" height="50" relative="1" as="geometry">
            <mxPoint x="29" y="57" as="sourcePoint" />
            <mxPoint x="78" y="54" as="targetPoint" />
          </mxGeometry>
        </mxCell>
        <mxCell id="npopnhAjGusDiyGefJ4p-20" value="" style="endArrow=none;html=1;rounded=0;entryX=0.051;entryY=0.545;entryDx=0;entryDy=0;fillColor=#359EFF;strokeColor=#359EFF;strokeWidth=3;exitX=0.947;exitY=0.513;exitDx=0;exitDy=0;exitPerimeter=0;entryPerimeter=0;" edge="1" parent="npopnhAjGusDiyGefJ4p-11" source="npopnhAjGusDiyGefJ4p-14" target="npopnhAjGusDiyGefJ4p-16">
          <mxGeometry width="50" height="50" relative="1" as="geometry">
            <mxPoint x="29" y="94" as="sourcePoint" />
            <mxPoint x="56" y="78" as="targetPoint" />
          </mxGeometry>
        </mxCell>
        <mxCell id="npopnhAjGusDiyGefJ4p-21" value="" style="endArrow=none;html=1;rounded=0;entryX=0.037;entryY=0.492;entryDx=0;entryDy=0;fillColor=#359EFF;strokeColor=#359EFF;strokeWidth=3;exitX=0.955;exitY=0.496;exitDx=0;exitDy=0;exitPerimeter=0;entryPerimeter=0;" edge="1" parent="npopnhAjGusDiyGefJ4p-11" source="npopnhAjGusDiyGefJ4p-14" target="npopnhAjGusDiyGefJ4p-15">
          <mxGeometry width="50" height="50" relative="1" as="geometry">
            <mxPoint x="49" y="75" as="sourcePoint" />
            <mxPoint x="76" y="59" as="targetPoint" />
          </mxGeometry>
        </mxCell>
        <mxCell id="npopnhAjGusDiyGefJ4p-22" value="" style="endArrow=none;html=1;rounded=0;entryX=0.046;entryY=0.536;entryDx=0;entryDy=0;fillColor=#359EFF;strokeColor=#359EFF;strokeWidth=3;exitX=0.947;exitY=0.482;exitDx=0;exitDy=0;exitPerimeter=0;entryPerimeter=0;" edge="1" parent="npopnhAjGusDiyGefJ4p-11" source="npopnhAjGusDiyGefJ4p-12" target="npopnhAjGusDiyGefJ4p-16">
          <mxGeometry width="50" height="50" relative="1" as="geometry">
            <mxPoint x="59" y="85" as="sourcePoint" />
            <mxPoint x="86" y="69" as="targetPoint" />
          </mxGeometry>
        </mxCell>
        <mxCell id="npopnhAjGusDiyGefJ4p-23" value="" style="endArrow=classic;html=1;rounded=0;strokeWidth=3;strokeColor=#99FF99;shape=flexArrow;fillColor=#99FF99;width=6.538461538461538;endSize=12.084615384615384;" edge="1" parent="npopnhAjGusDiyGefJ4p-7">
          <mxGeometry width="50" height="50" relative="1" as="geometry">
            <mxPoint x="19" y="425" as="sourcePoint" />
            <mxPoint x="437" y="425" as="targetPoint" />
          </mxGeometry>
        </mxCell>
        <mxCell id="npopnhAjGusDiyGefJ4p-24" value="" style="endArrow=classic;html=1;rounded=0;strokeWidth=3;strokeColor=#99FF99;shape=flexArrow;fillColor=#99FF99;width=6.538461538461538;endSize=12.084615384615384;" edge="1" parent="npopnhAjGusDiyGefJ4p-5">
          <mxGeometry width="50" height="50" relative="1" as="geometry">
            <mxPoint x="-19" y="385" as="sourcePoint" />
            <mxPoint x="51" y="311" as="targetPoint" />
          </mxGeometry>
        </mxCell>
        <mxCell id="npopnhAjGusDiyGefJ4p-25" value="" style="endArrow=classic;html=1;rounded=0;strokeWidth=3;strokeColor=#359EFF;shape=flexArrow;fillColor=#359EFF;width=6.538461538461538;endSize=12.084615384615384;" edge="1" parent="npopnhAjGusDiyGefJ4p-5">
          <mxGeometry width="50" height="50" relative="1" as="geometry">
            <mxPoint x="412" y="339" as="sourcePoint" />
            <mxPoint x="494" y="408" as="targetPoint" />
          </mxGeometry>
        </mxCell>
        <mxCell id="npopnhAjGusDiyGefJ4p-26" value="" style="endArrow=classic;html=1;rounded=0;strokeWidth=3;strokeColor=#FF3333;shape=flexArrow;fillColor=#FF3333;width=6.538461538461538;endSize=12.084615384615384;" edge="1" parent="npopnhAjGusDiyGefJ4p-5">
          <mxGeometry width="50" height="50" relative="1" as="geometry">
            <mxPoint x="519" y="-40" as="sourcePoint" />
            <mxPoint x="425" y="41" as="targetPoint" />
          </mxGeometry>
        </mxCell>
        <mxCell id="npopnhAjGusDiyGefJ4p-27" value="" style="group" vertex="1" connectable="0" parent="1">
          <mxGeometry x="-557" y="1231" width="471" height="368" as="geometry" />
        </mxCell>
        <mxCell id="npopnhAjGusDiyGefJ4p-28" value="" style="ellipse;whiteSpace=wrap;html=1;strokeColor=#CCCCCC;fillColor=#E6E6E6;opacity=50;container=0;" vertex="1" parent="npopnhAjGusDiyGefJ4p-27">
          <mxGeometry width="471" height="368" as="geometry" />
        </mxCell>
        <mxCell id="npopnhAjGusDiyGefJ4p-29" value="" style="shape=image;verticalLabelPosition=bottom;labelBackgroundColor=default;verticalAlign=top;aspect=fixed;imageAspect=0;editableCssRules=.*;image=data:image/svg+xml,PHN2ZyB4bWxuczp4bGluaz0iaHR0cDovL3d3dy53My5vcmcvMTk5OS94bGluayIgeG1sbnM9Imh0dHA6Ly93d3cudzMub3JnLzIwMDAvc3ZnIiBoZWlnaHQ9IjE1OC4zMzMzMzczMDY5NzYzMiIgd2lkdGg9IjE2Ni42NTgzNDE4ODQ2MTMwNCIgdmVyc2lvbj0iMS4xIiB2aWV3Qm94PSI4NS4zMzMzMzU4NzY0NjQ4NCAxMjggODUzLjI5MDcxMDQ0OTIxODggODEwLjY2NjY4NzAxMTcxODgiIGNsYXNzPSJpY29uIj48cGF0aCBmaWxsPSIjMmMyYzJjIiBkPSJNMjg4IDkzOC42NjY2NjdhMzIgMzIgMCAwIDEtNC4zNTItNjMuNzAxMzM0bDQuMzUyLTAuMjk4NjY2aDc0LjYyNHYtMTA2LjU4MTMzNEgxODEuMzMzMzMzYTk2IDk2IDAgMCAxLTk1Ljc4NjY2Ni04OS40MjkzMzNMODUuMzMzMzMzIDY3Mi4wODUzMzNWMjI0YTk2IDk2IDAgMCAxIDg5LjQyOTMzNC05NS43ODY2NjdMMTgxLjMzMzMzMyAxMjhoNjYxLjI5MDY2N2E5NiA5NiAwIDAgMSA5NS43ODY2NjcgODkuNDI5MzMzbDAuMjEzMzMzIDYuNTcwNjY3djQ0OC4wODUzMzNhOTYgOTYgMCAwIDEtODkuNDI5MzMzIDk1Ljc4NjY2N2wtNi41NzA2NjcgMC4yMTMzMzNoLTE4MS4zMzMzMzNWODc0LjY2NjY2N2g3NC43MDkzMzNhMzIgMzIgMCAwIDEgNC4zNTIgNjMuNzAxMzMzTDczNiA5MzguNjY2NjY3SDI4OHogbTMwOS4yNDgtMTcwLjU4MTMzNGgtMTcwLjY2NjY2N2wwLjA0MjY2NyAxMDYuNTgxMzM0aDE3MC42NjY2NjdsLTAuMDQyNjY3LTEwNi41ODEzMzR6TTg0Mi41ODEzMzMgMTkySDE4MS4zMzMzMzNhMzIgMzIgMCAwIDAtMzEuNzAxMzMzIDI3LjY0OEwxNDkuMzMzMzMzIDIyNHY0NDguMDg1MzMzYzAgMTYuMjEzMzMzIDEyLjAzMiAyOS41NjggMjcuNjQ4IDMxLjcwMTMzNGw0LjM1MiAwLjI5ODY2Nmg2NjEuMjkwNjY3YTMyIDMyIDAgMCAwIDMxLjcwMTMzMy0yNy42NDhsMC4yOTg2NjctNC4zNTJWMjI0YTMyIDMyIDAgMCAwLTI3LjY0OC0zMS43NDRsLTQuMzUyLTAuMjU2eiIvPjwvc3ZnPg==;container=0;" vertex="1" parent="npopnhAjGusDiyGefJ4p-27">
          <mxGeometry x="230.0000000000001" y="139" width="182.84" height="173" as="geometry" />
        </mxCell>
        <mxCell id="npopnhAjGusDiyGefJ4p-30" value="" style="curved=1;endArrow=classic;html=1;rounded=0;strokeColor=#FFD966;strokeWidth=3;fillColor=#FFD966;" edge="1" parent="npopnhAjGusDiyGefJ4p-27">
          <mxGeometry width="50" height="50" relative="1" as="geometry">
            <mxPoint x="72.00000000000011" y="227" as="sourcePoint" />
            <mxPoint x="81.00000000000011" y="132" as="targetPoint" />
            <Array as="points">
              <mxPoint x="1.1368683772161603e-13" y="177" />
            </Array>
          </mxGeometry>
        </mxCell>
        <mxCell id="npopnhAjGusDiyGefJ4p-31" value="" style="ellipse;whiteSpace=wrap;html=1;aspect=fixed;fillColor=#FFD966;strokeColor=#FFD966;container=0;" vertex="1" parent="npopnhAjGusDiyGefJ4p-27">
          <mxGeometry x="100.7600000000001" y="50" width="30" height="30" as="geometry" />
        </mxCell>
        <mxCell id="npopnhAjGusDiyGefJ4p-32" value="" style="ellipse;whiteSpace=wrap;html=1;aspect=fixed;fillColor=#FFD966;strokeColor=#FFD966;container=0;" vertex="1" parent="npopnhAjGusDiyGefJ4p-27">
          <mxGeometry x="100.7600000000001" y="90" width="30" height="30" as="geometry" />
        </mxCell>
        <mxCell id="npopnhAjGusDiyGefJ4p-33" value="" style="ellipse;whiteSpace=wrap;html=1;aspect=fixed;fillColor=#FFD966;strokeColor=#FFD966;container=0;" vertex="1" parent="npopnhAjGusDiyGefJ4p-27">
          <mxGeometry x="100.7600000000001" y="130" width="30" height="30" as="geometry" />
        </mxCell>
        <mxCell id="npopnhAjGusDiyGefJ4p-34" value="" style="ellipse;whiteSpace=wrap;html=1;aspect=fixed;fillColor=#FFD966;strokeColor=#FFD966;container=0;" vertex="1" parent="npopnhAjGusDiyGefJ4p-27">
          <mxGeometry x="156.7600000000001" y="74" width="30" height="30" as="geometry" />
        </mxCell>
        <mxCell id="npopnhAjGusDiyGefJ4p-35" value="" style="ellipse;whiteSpace=wrap;html=1;aspect=fixed;fillColor=#FFD966;strokeColor=#FFD966;container=0;" vertex="1" parent="npopnhAjGusDiyGefJ4p-27">
          <mxGeometry x="156.7600000000001" y="110" width="30" height="30" as="geometry" />
        </mxCell>
        <mxCell id="npopnhAjGusDiyGefJ4p-36" value="" style="endArrow=none;html=1;rounded=0;exitX=0.933;exitY=0.46;exitDx=0;exitDy=0;exitPerimeter=0;entryX=0.037;entryY=0.501;entryDx=0;entryDy=0;entryPerimeter=0;fillColor=#FFD966;strokeColor=#FFD966;strokeWidth=3;" edge="1" parent="npopnhAjGusDiyGefJ4p-27" source="npopnhAjGusDiyGefJ4p-31" target="npopnhAjGusDiyGefJ4p-34">
          <mxGeometry width="50" height="50" relative="1" as="geometry">
            <mxPoint x="163.7600000000001" y="54" as="sourcePoint" />
            <mxPoint x="213.7600000000001" y="4" as="targetPoint" />
          </mxGeometry>
        </mxCell>
        <mxCell id="npopnhAjGusDiyGefJ4p-37" value="" style="endArrow=none;html=1;rounded=0;exitX=0.955;exitY=0.522;exitDx=0;exitDy=0;exitPerimeter=0;entryX=0.037;entryY=0.536;entryDx=0;entryDy=0;entryPerimeter=0;fillColor=#FFD966;strokeColor=#FFD966;strokeWidth=3;" edge="1" parent="npopnhAjGusDiyGefJ4p-27" source="npopnhAjGusDiyGefJ4p-32" target="npopnhAjGusDiyGefJ4p-35">
          <mxGeometry width="50" height="50" relative="1" as="geometry">
            <mxPoint x="126.7600000000001" y="106" as="sourcePoint" />
            <mxPoint x="156.7600000000001" y="122" as="targetPoint" />
          </mxGeometry>
        </mxCell>
        <mxCell id="npopnhAjGusDiyGefJ4p-38" value="" style="endArrow=none;html=1;rounded=0;entryX=0;entryY=0.5;entryDx=0;entryDy=0;fillColor=#FFD966;strokeColor=#FFD966;strokeWidth=3;exitX=0.955;exitY=0.496;exitDx=0;exitDy=0;exitPerimeter=0;" edge="1" parent="npopnhAjGusDiyGefJ4p-27" source="npopnhAjGusDiyGefJ4p-32" target="npopnhAjGusDiyGefJ4p-34">
          <mxGeometry width="50" height="50" relative="1" as="geometry">
            <mxPoint x="129.7600000000001" y="107" as="sourcePoint" />
            <mxPoint x="178.7600000000001" y="104" as="targetPoint" />
          </mxGeometry>
        </mxCell>
        <mxCell id="npopnhAjGusDiyGefJ4p-39" value="" style="endArrow=none;html=1;rounded=0;entryX=0.051;entryY=0.545;entryDx=0;entryDy=0;fillColor=#FFD966;strokeColor=#FFD966;strokeWidth=3;exitX=0.947;exitY=0.513;exitDx=0;exitDy=0;exitPerimeter=0;entryPerimeter=0;" edge="1" parent="npopnhAjGusDiyGefJ4p-27" source="npopnhAjGusDiyGefJ4p-33" target="npopnhAjGusDiyGefJ4p-35">
          <mxGeometry width="50" height="50" relative="1" as="geometry">
            <mxPoint x="129.7600000000001" y="144" as="sourcePoint" />
            <mxPoint x="156.7600000000001" y="128" as="targetPoint" />
          </mxGeometry>
        </mxCell>
        <mxCell id="npopnhAjGusDiyGefJ4p-40" value="" style="endArrow=none;html=1;rounded=0;entryX=0.037;entryY=0.492;entryDx=0;entryDy=0;fillColor=#FFD966;strokeColor=#FFD966;strokeWidth=3;exitX=0.955;exitY=0.496;exitDx=0;exitDy=0;exitPerimeter=0;entryPerimeter=0;" edge="1" parent="npopnhAjGusDiyGefJ4p-27" source="npopnhAjGusDiyGefJ4p-33" target="npopnhAjGusDiyGefJ4p-34">
          <mxGeometry width="50" height="50" relative="1" as="geometry">
            <mxPoint x="149.7600000000001" y="125" as="sourcePoint" />
            <mxPoint x="176.7600000000001" y="109" as="targetPoint" />
          </mxGeometry>
        </mxCell>
        <mxCell id="npopnhAjGusDiyGefJ4p-41" value="" style="endArrow=none;html=1;rounded=0;entryX=0.046;entryY=0.536;entryDx=0;entryDy=0;fillColor=#FFD966;strokeColor=#FFD966;strokeWidth=3;exitX=0.947;exitY=0.482;exitDx=0;exitDy=0;exitPerimeter=0;entryPerimeter=0;" edge="1" parent="npopnhAjGusDiyGefJ4p-27" source="npopnhAjGusDiyGefJ4p-31" target="npopnhAjGusDiyGefJ4p-35">
          <mxGeometry width="50" height="50" relative="1" as="geometry">
            <mxPoint x="159.7600000000001" y="135" as="sourcePoint" />
            <mxPoint x="186.7600000000001" y="119" as="targetPoint" />
          </mxGeometry>
        </mxCell>
        <mxCell id="npopnhAjGusDiyGefJ4p-42" value="" style="shape=image;verticalLabelPosition=bottom;labelBackgroundColor=default;verticalAlign=top;aspect=fixed;imageAspect=0;editableCssRules=.*;image=data:image/svg+xml,PHN2ZyB4bWxuczp4bGluaz0iaHR0cDovL3d3dy53My5vcmcvMTk5OS94bGluayIgeG1sbnM9Imh0dHA6Ly93d3cudzMub3JnLzIwMDAvc3ZnIiBoZWlnaHQ9IjIwMC4wMTI3NTUzOTM5ODE5MyIgd2lkdGg9IjE4Ni42NjY2NTU1NDA0NjYzIiB2ZXJzaW9uPSIxLjEiIHZpZXdCb3g9IjMzLjY4OTU3NTE5NTMxMjUgMC4wMDI1NzY0MDE5MjI4NTE4MDEgOTU1LjczMzI3NjM2NzE4NzUgMTAyNC4wNjUzMDc2MTcxODc1IiBjbGFzcz0iaWNvbiI+PHBhdGggZmlsbD0iI0ZGRDk2NiIgZD0iTTYxMy41NDY2NjcgMTAxOS4yMjEzMzNsLTguMTkyIDAuODE5MiA4LjE5Mi0wLjgxOTJ6TTU3MS40MjYxMzMgMTAyMi4yMjUwNjdjLTQuNDM3MzMzIDAuMjA0OC04Ljk0MjkzMyAwLjYxNDQtMTMuMzgwMjY2IDAuNzUwOTMzbDEzLjM4MDI2Ni0wLjc1MDkzM3pNNDY1LjA2NjY2NyAxMDIyLjk3NmwtMTMuMzgwMjY3LTAuNzUwOTMzIDEzLjM4MDI2NyAwLjc1MDkzM3pNNDE3Ljc1Nzg2NyAxMDE5Ljk3MjI2N2wtOC4xOTItMC44MTkyYzIuNzMwNjY3IDAuMzQxMzMzIDUuMzkzMDY3IDAuNjE0NCA4LjE5MiAwLjgxOTJ6TTQwOS45MDcyIDQuNzc4NjY3bDcuNzE0MTMzLTAuNzUwOTM0YTI2OC41NjEwNjcgMjY4LjU2MTA2NyAwIDAgMC03LjcxNDEzMyAwLjc1MDkzNHpNNTU4LjA0NTg2NyAxLjAyNGwxMy4xNzU0NjYgMC43NTA5MzNjLTQuMzY5MDY3LTAuMjczMDY3LTguNzM4MTMzLTAuNjE0NC0xMy4xNzU0NjYtMC43NTA5MzN6TTYwNS40OTEyIDQuMDI3NzMzbDcuNzE0MTMzIDAuNzUwOTM0YTI2OC41NjEwNjcgMjY4LjU2MTA2NyAwIDAgMC03LjcxNDEzMy0wLjc1MDkzNHpNNDUxLjg5MTIgMS43NzQ5MzNsMTMuMTc1NDY3LTAuNzUwOTMzYy00LjQzNzMzMyAwLjEzNjUzMy04LjgwNjQgMC40Nzc4NjctMTMuMTc1NDY3IDAuNzUwOTMzeiIvPjxwYXRoIGZpbGw9IiNGRkQ5NjYiIGQ9Ik02MTMuMjA1MzMzIDQuNzc4NjY3bC03LjcxNDEzMy0wLjc1MDkzNGExMTM5LjM3MDY2NyAxMTM5LjM3MDY2NyAwIDAgMC0zNC4yNjk4NjctMi4yNTI4bC0xMy4xNzU0NjYtMC43NTA5MzNhMTA1OC41NDI5MzMgMTA1OC41NDI5MzMgMCAwIDAtOTIuOTc5MiAwbC0xMy4xNzU0NjcgMC43NTA5MzNhMTEzOS4zNzA2NjcgMTEzOS4zNzA2NjcgMCAwIDAtMzQuMjY5ODY3IDIuMjUyOGwtNy43MTQxMzMgMC43NTA5MzRjLTE5Ni42NzYyNjcgMTcuNzQ5MzMzLTM3Ni4yMTc2IDg2LjQ5Mzg2Ny0zNzYuMjE3NiAyMDAuMDIxMzMzdjYxNC40YzAgMTEzLjQ1OTIgMTc5LjMzNjUzMyAxODIuMjAzNzMzIDM3NS44NzYyNjcgMjAwLjAyMTMzM2w4LjE5MiAwLjgxOTJjMTEuMjY0IDAuOTU1NzMzIDIyLjU5NjI2NyAxLjYzODQgMzMuOTI4NTMzIDIuMjUyOCA0LjQzNzMzMyAwLjIwNDggOC45NDI5MzMgMC42MTQ0IDEzLjM4MDI2NyAwLjc1MDkzNGExMDU2LjIyMTg2NyAxMDU2LjIyMTg2NyAwIDAgMCA5Mi45NzkyIDBsMTMuMzgwMjY2LTAuNzUwOTM0YzExLjMzMjI2Ny0wLjYxNDQgMjIuNjY0NTMzLTEuMjk3MDY3IDMzLjkyODUzNC0yLjI1MjhsOC4xOTItMC44MTkyYzE5Ni41Mzk3MzMtMTcuNzQ5MzMzIDM3NS44NzYyNjctODYuNDkzODY3IDM3NS44NzYyNjYtMjAwLjAyMTMzM3YtNjE0LjRjMC0xMTMuNTk1NzMzLTE3OS41NDEzMzMtMTgyLjM0MDI2Ny0zNzYuMjE3Ni0yMDAuMDIxMzMzek01MTEuNTU2MjY3IDQwOS42YzE1Ny4wMTMzMzMgMCAzMjAuMzc1NDY3LTMzLjA0MTA2NyA0MDkuNi05NS43MDk4NjdWNDA5LjZjMCAxNi4xNzkyLTEzLjg1ODEzMyAzNC4xMzMzMzMtMzcuNjgzMiA1MS42MDk2IDEuNTcwMTMzLTUuNzM0NCAzLjU0OTg2Ny0xMS4yNjQgMy41NDk4NjYtMTcuNDc2MjY3YTY4LjI2NjY2NyA2OC4yNjY2NjcgMCAwIDAtMTM2LjUzMzMzMyAwYzAgMjcuNzE2MjY3IDE2LjY1NzA2NyA1MS40MDQ4IDQwLjQxMzg2NyA2Mi4wNTQ0LTY5LjQ5NTQ2NyAyMy40MTU0NjctMTYzLjU2NjkzMyA0MC4zNDU2LTI3OS4zNDcyIDQwLjM0NTYtMjUzLjc0NzIgMC00MDkuNi03OS41MzA2NjctNDA5LjYtMTM2LjUzMzMzM3YtOTUuNzA5ODY3Yzg5LjIyNDUzMyA2Mi42Njg4IDI1Mi41ODY2NjcgOTUuNzA5ODY3IDQwOS42IDk1LjcwOTg2N3ogbTM3MS45MTY4IDI1Ni40MDk2YzEuNTcwMTMzLTUuNzM0NCAzLjU0OTg2Ny0xMS4yNjQgMy41NDk4NjYtMTcuNDc2MjY3YTY4LjI2NjY2NyA2OC4yNjY2NjcgMCAwIDAtMTM2LjUzMzMzMyAwYzAgMjcuNzE2MjY3IDE2LjY1NzA2NyA1MS40MDQ4IDQwLjQxMzg2NyA2Mi4wNTQ0LTY5LjQ5NTQ2NyAyMy40MTU0NjctMTYzLjU2NjkzMyA0MC4zNDU2LTI3OS4zNDcyIDQwLjM0NTYtMjUzLjc0NzIgMC00MDkuNi03OS41MzA2NjctNDA5LjYtMTM2LjUzMzMzM3YtOTUuNzA5ODY3Yzg5LjIyNDUzMyA2Mi42Njg4IDI1Mi41ODY2NjcgOTUuNzA5ODY3IDQwOS42IDk1LjcwOTg2N3MzMjAuMzc1NDY3LTMzLjA0MTA2NyA0MDkuNi05NS43MDk4NjdWNjE0LjRjMCAxNi4xNzkyLTEzLjg1ODEzMyAzNC4xMzMzMzMtMzcuNjgzMiA1MS42MDk2eiBtMCAyMDQuOGMxLjU3MDEzMy01LjczNDQgMy41NDk4NjctMTEuMjY0IDMuNTQ5ODY2LTE3LjQ3NjI2N2E2OC4yNjY2NjcgNjguMjY2NjY3IDAgMCAwLTEzNi41MzMzMzMgMGMwIDI3LjcxNjI2NyAxNi42NTcwNjcgNTEuNDA0OCA0MC40MTM4NjcgNjIuMDU0NC02OS40OTU0NjcgMjMuNDE1NDY3LTE2My41NjY5MzMgNDAuMzQ1Ni0yNzkuMzQ3MiA0MC4zNDU2LTI1My43NDcyIDAtNDA5LjYtNzkuNTMwNjY3LTQwOS42LTEzNi41MzMzMzNWNzIzLjQ5MDEzM2M4OS4yMjQ1MzMgNjIuNjY4OCAyNTIuNTg2NjY3IDk1LjcwOTg2NyA0MDkuNiA5NS43MDk4NjdzMzIwLjM3NTQ2Ny0zMy4wNDEwNjcgNDA5LjYtOTUuNzA5ODY3VjgxOS4yYzAgMTYuMTc5Mi0xMy44NTgxMzMgMzQuMTMzMzMzLTM3LjY4MzIgNTEuNjA5NnpNNTExLjU1NjI2NyAzNDEuMzMzMzMzYy0yNTMuNzQ3MiAwLTQwOS42LTc5LjUzMDY2Ny00MDkuNi0xMzYuNTMzMzMzczE1NS44NTI4LTEzNi41MzMzMzMgNDA5LjYtMTM2LjUzMzMzM2MyNTMuODE1NDY3IDAgNDA5LjYgNzkuNTMwNjY3IDQwOS42IDEzNi41MzMzMzNzLTE1NS43ODQ1MzMgMTM2LjUzMzMzMy00MDkuNiAxMzYuNTMzMzMzeiIvPjwvc3ZnPg==;container=0;" vertex="1" parent="npopnhAjGusDiyGefJ4p-27">
          <mxGeometry x="100.75555555555582" y="211.9955555555557" width="93.5" height="100" as="geometry" />
        </mxCell>
        <mxCell id="npopnhAjGusDiyGefJ4p-43" value="" style="endArrow=classic;html=1;rounded=0;strokeWidth=3;strokeColor=#FFD966;shape=flexArrow;fillColor=#FFD966;width=6.538461538461538;endSize=12.084615384615384;" edge="1" parent="npopnhAjGusDiyGefJ4p-27">
          <mxGeometry width="50" height="50" relative="1" as="geometry">
            <mxPoint x="431" y="337" as="sourcePoint" />
            <mxPoint x="516" y="411" as="targetPoint" />
          </mxGeometry>
        </mxCell>
        <mxCell id="npopnhAjGusDiyGefJ4p-44" value="" style="ellipse;whiteSpace=wrap;html=1;strokeColor=#CCCCCC;fillColor=#E6E6E6;opacity=50;container=0;" vertex="1" parent="1">
          <mxGeometry x="-550" y="1899" width="471" height="368" as="geometry" />
        </mxCell>
        <mxCell id="npopnhAjGusDiyGefJ4p-45" value="" style="curved=1;endArrow=classic;html=1;rounded=0;strokeColor=#99FF99;strokeWidth=3;fillColor=#99FF99;" edge="1" parent="1">
          <mxGeometry width="50" height="50" relative="1" as="geometry">
            <mxPoint x="-472" y="2134" as="sourcePoint" />
            <mxPoint x="-463" y="2039" as="targetPoint" />
            <Array as="points">
              <mxPoint x="-544" y="2084" />
            </Array>
          </mxGeometry>
        </mxCell>
        <mxCell id="npopnhAjGusDiyGefJ4p-46" value="" style="shape=image;verticalLabelPosition=bottom;labelBackgroundColor=default;verticalAlign=top;aspect=fixed;imageAspect=0;editableCssRules=.*;image=data:image/svg+xml,PHN2ZyB4bWxuczp4bGluaz0iaHR0cDovL3d3dy53My5vcmcvMTk5OS94bGluayIgeG1sbnM9Imh0dHA6Ly93d3cudzMub3JnLzIwMDAvc3ZnIiBoZWlnaHQ9IjIwMC4wMTI3NTUzOTM5ODE5MyIgd2lkdGg9IjE4Ni42NjY2NTU1NDA0NjYzIiB2ZXJzaW9uPSIxLjEiIHZpZXdCb3g9IjMzLjY4OTU3NTE5NTMxMjUgMC4wMDI1NzY0MDE5MjI4NTE4MDEgOTU1LjczMzI3NjM2NzE4NzUgMTAyNC4wNjUzMDc2MTcxODc1IiBjbGFzcz0iaWNvbiI+PHBhdGggZmlsbD0iIzk5RkY5OSIgZD0iTTYxMy41NDY2NjcgMTAxOS4yMjEzMzNsLTguMTkyIDAuODE5MiA4LjE5Mi0wLjgxOTJ6TTU3MS40MjYxMzMgMTAyMi4yMjUwNjdjLTQuNDM3MzMzIDAuMjA0OC04Ljk0MjkzMyAwLjYxNDQtMTMuMzgwMjY2IDAuNzUwOTMzbDEzLjM4MDI2Ni0wLjc1MDkzM3pNNDY1LjA2NjY2NyAxMDIyLjk3NmwtMTMuMzgwMjY3LTAuNzUwOTMzIDEzLjM4MDI2NyAwLjc1MDkzM3pNNDE3Ljc1Nzg2NyAxMDE5Ljk3MjI2N2wtOC4xOTItMC44MTkyYzIuNzMwNjY3IDAuMzQxMzMzIDUuMzkzMDY3IDAuNjE0NCA4LjE5MiAwLjgxOTJ6TTQwOS45MDcyIDQuNzc4NjY3bDcuNzE0MTMzLTAuNzUwOTM0YTI2OC41NjEwNjcgMjY4LjU2MTA2NyAwIDAgMC03LjcxNDEzMyAwLjc1MDkzNHpNNTU4LjA0NTg2NyAxLjAyNGwxMy4xNzU0NjYgMC43NTA5MzNjLTQuMzY5MDY3LTAuMjczMDY3LTguNzM4MTMzLTAuNjE0NC0xMy4xNzU0NjYtMC43NTA5MzN6TTYwNS40OTEyIDQuMDI3NzMzbDcuNzE0MTMzIDAuNzUwOTM0YTI2OC41NjEwNjcgMjY4LjU2MTA2NyAwIDAgMC03LjcxNDEzMy0wLjc1MDkzNHpNNDUxLjg5MTIgMS43NzQ5MzNsMTMuMTc1NDY3LTAuNzUwOTMzYy00LjQzNzMzMyAwLjEzNjUzMy04LjgwNjQgMC40Nzc4NjctMTMuMTc1NDY3IDAuNzUwOTMzeiIvPjxwYXRoIGZpbGw9IiM5OUZGOTkiIGQ9Ik02MTMuMjA1MzMzIDQuNzc4NjY3bC03LjcxNDEzMy0wLjc1MDkzNGExMTM5LjM3MDY2NyAxMTM5LjM3MDY2NyAwIDAgMC0zNC4yNjk4NjctMi4yNTI4bC0xMy4xNzU0NjYtMC43NTA5MzNhMTA1OC41NDI5MzMgMTA1OC41NDI5MzMgMCAwIDAtOTIuOTc5MiAwbC0xMy4xNzU0NjcgMC43NTA5MzNhMTEzOS4zNzA2NjcgMTEzOS4zNzA2NjcgMCAwIDAtMzQuMjY5ODY3IDIuMjUyOGwtNy43MTQxMzMgMC43NTA5MzRjLTE5Ni42NzYyNjcgMTcuNzQ5MzMzLTM3Ni4yMTc2IDg2LjQ5Mzg2Ny0zNzYuMjE3NiAyMDAuMDIxMzMzdjYxNC40YzAgMTEzLjQ1OTIgMTc5LjMzNjUzMyAxODIuMjAzNzMzIDM3NS44NzYyNjcgMjAwLjAyMTMzM2w4LjE5MiAwLjgxOTJjMTEuMjY0IDAuOTU1NzMzIDIyLjU5NjI2NyAxLjYzODQgMzMuOTI4NTMzIDIuMjUyOCA0LjQzNzMzMyAwLjIwNDggOC45NDI5MzMgMC42MTQ0IDEzLjM4MDI2NyAwLjc1MDkzNGExMDU2LjIyMTg2NyAxMDU2LjIyMTg2NyAwIDAgMCA5Mi45NzkyIDBsMTMuMzgwMjY2LTAuNzUwOTM0YzExLjMzMjI2Ny0wLjYxNDQgMjIuNjY0NTMzLTEuMjk3MDY3IDMzLjkyODUzNC0yLjI1MjhsOC4xOTItMC44MTkyYzE5Ni41Mzk3MzMtMTcuNzQ5MzMzIDM3NS44NzYyNjctODYuNDkzODY3IDM3NS44NzYyNjYtMjAwLjAyMTMzM3YtNjE0LjRjMC0xMTMuNTk1NzMzLTE3OS41NDEzMzMtMTgyLjM0MDI2Ny0zNzYuMjE3Ni0yMDAuMDIxMzMzek01MTEuNTU2MjY3IDQwOS42YzE1Ny4wMTMzMzMgMCAzMjAuMzc1NDY3LTMzLjA0MTA2NyA0MDkuNi05NS43MDk4NjdWNDA5LjZjMCAxNi4xNzkyLTEzLjg1ODEzMyAzNC4xMzMzMzMtMzcuNjgzMiA1MS42MDk2IDEuNTcwMTMzLTUuNzM0NCAzLjU0OTg2Ny0xMS4yNjQgMy41NDk4NjYtMTcuNDc2MjY3YTY4LjI2NjY2NyA2OC4yNjY2NjcgMCAwIDAtMTM2LjUzMzMzMyAwYzAgMjcuNzE2MjY3IDE2LjY1NzA2NyA1MS40MDQ4IDQwLjQxMzg2NyA2Mi4wNTQ0LTY5LjQ5NTQ2NyAyMy40MTU0NjctMTYzLjU2NjkzMyA0MC4zNDU2LTI3OS4zNDcyIDQwLjM0NTYtMjUzLjc0NzIgMC00MDkuNi03OS41MzA2NjctNDA5LjYtMTM2LjUzMzMzM3YtOTUuNzA5ODY3Yzg5LjIyNDUzMyA2Mi42Njg4IDI1Mi41ODY2NjcgOTUuNzA5ODY3IDQwOS42IDk1LjcwOTg2N3ogbTM3MS45MTY4IDI1Ni40MDk2YzEuNTcwMTMzLTUuNzM0NCAzLjU0OTg2Ny0xMS4yNjQgMy41NDk4NjYtMTcuNDc2MjY3YTY4LjI2NjY2NyA2OC4yNjY2NjcgMCAwIDAtMTM2LjUzMzMzMyAwYzAgMjcuNzE2MjY3IDE2LjY1NzA2NyA1MS40MDQ4IDQwLjQxMzg2NyA2Mi4wNTQ0LTY5LjQ5NTQ2NyAyMy40MTU0NjctMTYzLjU2NjkzMyA0MC4zNDU2LTI3OS4zNDcyIDQwLjM0NTYtMjUzLjc0NzIgMC00MDkuNi03OS41MzA2NjctNDA5LjYtMTM2LjUzMzMzM3YtOTUuNzA5ODY3Yzg5LjIyNDUzMyA2Mi42Njg4IDI1Mi41ODY2NjcgOTUuNzA5ODY3IDQwOS42IDk1LjcwOTg2N3MzMjAuMzc1NDY3LTMzLjA0MTA2NyA0MDkuNi05NS43MDk4NjdWNjE0LjRjMCAxNi4xNzkyLTEzLjg1ODEzMyAzNC4xMzMzMzMtMzcuNjgzMiA1MS42MDk2eiBtMCAyMDQuOGMxLjU3MDEzMy01LjczNDQgMy41NDk4NjctMTEuMjY0IDMuNTQ5ODY2LTE3LjQ3NjI2N2E2OC4yNjY2NjcgNjguMjY2NjY3IDAgMCAwLTEzNi41MzMzMzMgMGMwIDI3LjcxNjI2NyAxNi42NTcwNjcgNTEuNDA0OCA0MC40MTM4NjcgNjIuMDU0NC02OS40OTU0NjcgMjMuNDE1NDY3LTE2My41NjY5MzMgNDAuMzQ1Ni0yNzkuMzQ3MiA0MC4zNDU2LTI1My43NDcyIDAtNDA5LjYtNzkuNTMwNjY3LTQwOS42LTEzNi41MzMzMzNWNzIzLjQ5MDEzM2M4OS4yMjQ1MzMgNjIuNjY4OCAyNTIuNTg2NjY3IDk1LjcwOTg2NyA0MDkuNiA5NS43MDk4NjdzMzIwLjM3NTQ2Ny0zMy4wNDEwNjcgNDA5LjYtOTUuNzA5ODY3VjgxOS4yYzAgMTYuMTc5Mi0xMy44NTgxMzMgMzQuMTMzMzMzLTM3LjY4MzIgNTEuNjA5NnpNNTExLjU1NjI2NyAzNDEuMzMzMzMzYy0yNTMuNzQ3MiAwLTQwOS42LTc5LjUzMDY2Ny00MDkuNi0xMzYuNTMzMzMzczE1NS44NTI4LTEzNi41MzMzMzMgNDA5LjYtMTM2LjUzMzMzM2MyNTMuODE1NDY3IDAgNDA5LjYgNzkuNTMwNjY3IDQwOS42IDEzNi41MzMzMzNzLTE1NS43ODQ1MzMgMTM2LjUzMzMzMy00MDkuNiAxMzYuNTMzMzMzeiIvPjwvc3ZnPg==;" vertex="1" parent="1">
          <mxGeometry x="-446.99" y="2109" width="93.5" height="100" as="geometry" />
        </mxCell>
        <mxCell id="npopnhAjGusDiyGefJ4p-47" value="" style="shape=image;verticalLabelPosition=bottom;labelBackgroundColor=default;verticalAlign=top;aspect=fixed;imageAspect=0;editableCssRules=.*;image=data:image/svg+xml,PHN2ZyB4bWxuczp4bGluaz0iaHR0cDovL3d3dy53My5vcmcvMTk5OS94bGluayIgeG1sbnM9Imh0dHA6Ly93d3cudzMub3JnLzIwMDAvc3ZnIiBoZWlnaHQ9IjE1OC4zMzMzMzczMDY5NzYzMiIgd2lkdGg9IjE2Ni42NTgzNDE4ODQ2MTMwNCIgdmVyc2lvbj0iMS4xIiB2aWV3Qm94PSI4NS4zMzMzMzU4NzY0NjQ4NCAxMjggODUzLjI5MDcxMDQ0OTIxODggODEwLjY2NjY4NzAxMTcxODgiIGNsYXNzPSJpY29uIj48cGF0aCBmaWxsPSIjMmMyYzJjIiBkPSJNMjg4IDkzOC42NjY2NjdhMzIgMzIgMCAwIDEtNC4zNTItNjMuNzAxMzM0bDQuMzUyLTAuMjk4NjY2aDc0LjYyNHYtMTA2LjU4MTMzNEgxODEuMzMzMzMzYTk2IDk2IDAgMCAxLTk1Ljc4NjY2Ni04OS40MjkzMzNMODUuMzMzMzMzIDY3Mi4wODUzMzNWMjI0YTk2IDk2IDAgMCAxIDg5LjQyOTMzNC05NS43ODY2NjdMMTgxLjMzMzMzMyAxMjhoNjYxLjI5MDY2N2E5NiA5NiAwIDAgMSA5NS43ODY2NjcgODkuNDI5MzMzbDAuMjEzMzMzIDYuNTcwNjY3djQ0OC4wODUzMzNhOTYgOTYgMCAwIDEtODkuNDI5MzMzIDk1Ljc4NjY2N2wtNi41NzA2NjcgMC4yMTMzMzNoLTE4MS4zMzMzMzNWODc0LjY2NjY2N2g3NC43MDkzMzNhMzIgMzIgMCAwIDEgNC4zNTIgNjMuNzAxMzMzTDczNiA5MzguNjY2NjY3SDI4OHogbTMwOS4yNDgtMTcwLjU4MTMzNGgtMTcwLjY2NjY2N2wwLjA0MjY2NyAxMDYuNTgxMzM0aDE3MC42NjY2NjdsLTAuMDQyNjY3LTEwNi41ODEzMzR6TTg0Mi41ODEzMzMgMTkySDE4MS4zMzMzMzNhMzIgMzIgMCAwIDAtMzEuNzAxMzMzIDI3LjY0OEwxNDkuMzMzMzMzIDIyNHY0NDguMDg1MzMzYzAgMTYuMjEzMzMzIDEyLjAzMiAyOS41NjggMjcuNjQ4IDMxLjcwMTMzNGw0LjM1MiAwLjI5ODY2Nmg2NjEuMjkwNjY3YTMyIDMyIDAgMCAwIDMxLjcwMTMzMy0yNy42NDhsMC4yOTg2NjctNC4zNTJWMjI0YTMyIDMyIDAgMCAwLTI3LjY0OC0zMS43NDRsLTQuMzUyLTAuMjU2eiIvPjwvc3ZnPg==;" vertex="1" parent="1">
          <mxGeometry x="-314" y="2036" width="182.84" height="173" as="geometry" />
        </mxCell>
        <mxCell id="npopnhAjGusDiyGefJ4p-48" value="" style="group" vertex="1" connectable="0" parent="1">
          <mxGeometry x="-443.24" y="1957" width="86" height="110" as="geometry" />
        </mxCell>
        <mxCell id="npopnhAjGusDiyGefJ4p-49" value="" style="ellipse;whiteSpace=wrap;html=1;aspect=fixed;fillColor=#99FF99;strokeColor=#99FF99;" vertex="1" parent="npopnhAjGusDiyGefJ4p-48">
          <mxGeometry width="30" height="30" as="geometry" />
        </mxCell>
        <mxCell id="npopnhAjGusDiyGefJ4p-50" value="" style="ellipse;whiteSpace=wrap;html=1;aspect=fixed;fillColor=#99FF99;strokeColor=#99FF99;" vertex="1" parent="npopnhAjGusDiyGefJ4p-48">
          <mxGeometry y="40" width="30" height="30" as="geometry" />
        </mxCell>
        <mxCell id="npopnhAjGusDiyGefJ4p-51" value="" style="ellipse;whiteSpace=wrap;html=1;aspect=fixed;fillColor=#99FF99;strokeColor=#99FF99;" vertex="1" parent="npopnhAjGusDiyGefJ4p-48">
          <mxGeometry y="80" width="30" height="30" as="geometry" />
        </mxCell>
        <mxCell id="npopnhAjGusDiyGefJ4p-52" value="" style="ellipse;whiteSpace=wrap;html=1;aspect=fixed;fillColor=#99FF99;strokeColor=#99FF99;" vertex="1" parent="npopnhAjGusDiyGefJ4p-48">
          <mxGeometry x="56" y="24" width="30" height="30" as="geometry" />
        </mxCell>
        <mxCell id="npopnhAjGusDiyGefJ4p-53" value="" style="ellipse;whiteSpace=wrap;html=1;aspect=fixed;fillColor=#99FF99;strokeColor=#99FF99;" vertex="1" parent="npopnhAjGusDiyGefJ4p-48">
          <mxGeometry x="56" y="60" width="30" height="30" as="geometry" />
        </mxCell>
        <mxCell id="npopnhAjGusDiyGefJ4p-54" value="" style="endArrow=none;html=1;rounded=0;exitX=0.933;exitY=0.46;exitDx=0;exitDy=0;exitPerimeter=0;entryX=0.037;entryY=0.501;entryDx=0;entryDy=0;entryPerimeter=0;fillColor=#99FF99;strokeColor=#99FF99;strokeWidth=3;" edge="1" parent="npopnhAjGusDiyGefJ4p-48" source="npopnhAjGusDiyGefJ4p-49" target="npopnhAjGusDiyGefJ4p-52">
          <mxGeometry width="50" height="50" relative="1" as="geometry">
            <mxPoint x="63" y="4" as="sourcePoint" />
            <mxPoint x="113" y="-46" as="targetPoint" />
          </mxGeometry>
        </mxCell>
        <mxCell id="npopnhAjGusDiyGefJ4p-55" value="" style="endArrow=none;html=1;rounded=0;exitX=0.955;exitY=0.522;exitDx=0;exitDy=0;exitPerimeter=0;entryX=0.037;entryY=0.536;entryDx=0;entryDy=0;entryPerimeter=0;fillColor=#99FF99;strokeColor=#99FF99;strokeWidth=3;" edge="1" parent="npopnhAjGusDiyGefJ4p-48" source="npopnhAjGusDiyGefJ4p-50" target="npopnhAjGusDiyGefJ4p-53">
          <mxGeometry width="50" height="50" relative="1" as="geometry">
            <mxPoint x="26" y="56" as="sourcePoint" />
            <mxPoint x="56" y="72" as="targetPoint" />
          </mxGeometry>
        </mxCell>
        <mxCell id="npopnhAjGusDiyGefJ4p-56" value="" style="endArrow=none;html=1;rounded=0;entryX=0;entryY=0.5;entryDx=0;entryDy=0;fillColor=#99FF99;strokeColor=#99FF99;strokeWidth=3;exitX=0.955;exitY=0.496;exitDx=0;exitDy=0;exitPerimeter=0;" edge="1" parent="npopnhAjGusDiyGefJ4p-48" source="npopnhAjGusDiyGefJ4p-50" target="npopnhAjGusDiyGefJ4p-52">
          <mxGeometry width="50" height="50" relative="1" as="geometry">
            <mxPoint x="29" y="57" as="sourcePoint" />
            <mxPoint x="78" y="54" as="targetPoint" />
          </mxGeometry>
        </mxCell>
        <mxCell id="npopnhAjGusDiyGefJ4p-57" value="" style="endArrow=none;html=1;rounded=0;entryX=0.051;entryY=0.545;entryDx=0;entryDy=0;fillColor=#99FF99;strokeColor=#99FF99;strokeWidth=3;exitX=0.947;exitY=0.513;exitDx=0;exitDy=0;exitPerimeter=0;entryPerimeter=0;" edge="1" parent="npopnhAjGusDiyGefJ4p-48" source="npopnhAjGusDiyGefJ4p-51" target="npopnhAjGusDiyGefJ4p-53">
          <mxGeometry width="50" height="50" relative="1" as="geometry">
            <mxPoint x="29" y="94" as="sourcePoint" />
            <mxPoint x="56" y="78" as="targetPoint" />
          </mxGeometry>
        </mxCell>
        <mxCell id="npopnhAjGusDiyGefJ4p-58" value="" style="endArrow=none;html=1;rounded=0;entryX=0.037;entryY=0.492;entryDx=0;entryDy=0;fillColor=#99FF99;strokeColor=#99FF99;strokeWidth=3;exitX=0.955;exitY=0.496;exitDx=0;exitDy=0;exitPerimeter=0;entryPerimeter=0;" edge="1" parent="npopnhAjGusDiyGefJ4p-48" source="npopnhAjGusDiyGefJ4p-51" target="npopnhAjGusDiyGefJ4p-52">
          <mxGeometry width="50" height="50" relative="1" as="geometry">
            <mxPoint x="49" y="75" as="sourcePoint" />
            <mxPoint x="76" y="59" as="targetPoint" />
          </mxGeometry>
        </mxCell>
        <mxCell id="npopnhAjGusDiyGefJ4p-59" value="" style="endArrow=none;html=1;rounded=0;entryX=0.046;entryY=0.536;entryDx=0;entryDy=0;fillColor=#99FF99;strokeColor=#99FF99;strokeWidth=3;exitX=0.947;exitY=0.482;exitDx=0;exitDy=0;exitPerimeter=0;entryPerimeter=0;" edge="1" parent="npopnhAjGusDiyGefJ4p-48" source="npopnhAjGusDiyGefJ4p-49" target="npopnhAjGusDiyGefJ4p-53">
          <mxGeometry width="50" height="50" relative="1" as="geometry">
            <mxPoint x="59" y="85" as="sourcePoint" />
            <mxPoint x="86" y="69" as="targetPoint" />
          </mxGeometry>
        </mxCell>
        <mxCell id="npopnhAjGusDiyGefJ4p-60" value="" style="ellipse;whiteSpace=wrap;html=1;strokeColor=#FF9999;fillColor=#FFCCCC;opacity=50;container=0;" vertex="1" parent="1">
          <mxGeometry x="408" y="1236" width="471" height="368" as="geometry" />
        </mxCell>
        <mxCell id="npopnhAjGusDiyGefJ4p-61" value="" style="shape=image;verticalLabelPosition=bottom;labelBackgroundColor=default;verticalAlign=top;aspect=fixed;imageAspect=0;editableCssRules=.*;image=data:image/svg+xml,PHN2ZyB4bWxuczp4bGluaz0iaHR0cDovL3d3dy53My5vcmcvMTk5OS94bGluayIgeG1sbnM9Imh0dHA6Ly93d3cudzMub3JnLzIwMDAvc3ZnIiBoZWlnaHQ9IjE1OC4zMzMzMzczMDY5NzYzMiIgd2lkdGg9IjE2Ni42NTgzNDE4ODQ2MTMwNCIgdmVyc2lvbj0iMS4xIiB2aWV3Qm94PSI4NS4zMzMzMzU4NzY0NjQ4NCAxMjggODUzLjI5MDcxMDQ0OTIxODggODEwLjY2NjY4NzAxMTcxODgiIGNsYXNzPSJpY29uIj48cGF0aCBmaWxsPSIjRkYzMzMzIiBkPSJNMjg4IDkzOC42NjY2NjdhMzIgMzIgMCAwIDEtNC4zNTItNjMuNzAxMzM0bDQuMzUyLTAuMjk4NjY2aDc0LjYyNHYtMTA2LjU4MTMzNEgxODEuMzMzMzMzYTk2IDk2IDAgMCAxLTk1Ljc4NjY2Ni04OS40MjkzMzNMODUuMzMzMzMzIDY3Mi4wODUzMzNWMjI0YTk2IDk2IDAgMCAxIDg5LjQyOTMzNC05NS43ODY2NjdMMTgxLjMzMzMzMyAxMjhoNjYxLjI5MDY2N2E5NiA5NiAwIDAgMSA5NS43ODY2NjcgODkuNDI5MzMzbDAuMjEzMzMzIDYuNTcwNjY3djQ0OC4wODUzMzNhOTYgOTYgMCAwIDEtODkuNDI5MzMzIDk1Ljc4NjY2N2wtNi41NzA2NjcgMC4yMTMzMzNoLTE4MS4zMzMzMzNWODc0LjY2NjY2N2g3NC43MDkzMzNhMzIgMzIgMCAwIDEgNC4zNTIgNjMuNzAxMzMzTDczNiA5MzguNjY2NjY3SDI4OHogbTMwOS4yNDgtMTcwLjU4MTMzNGgtMTcwLjY2NjY2N2wwLjA0MjY2NyAxMDYuNTgxMzM0aDE3MC42NjY2NjdsLTAuMDQyNjY3LTEwNi41ODEzMzR6TTg0Mi41ODEzMzMgMTkySDE4MS4zMzMzMzNhMzIgMzIgMCAwIDAtMzEuNzAxMzMzIDI3LjY0OEwxNDkuMzMzMzMzIDIyNHY0NDguMDg1MzMzYzAgMTYuMjEzMzMzIDEyLjAzMiAyOS41NjggMjcuNjQ4IDMxLjcwMTMzNGw0LjM1MiAwLjI5ODY2Nmg2NjEuMjkwNjY3YTMyIDMyIDAgMCAwIDMxLjcwMTMzMy0yNy42NDhsMC4yOTg2NjctNC4zNTJWMjI0YTMyIDMyIDAgMCAwLTI3LjY0OC0zMS43NDRsLTQuMzUyLTAuMjU2eiIvPjwvc3ZnPg==;container=0;" vertex="1" parent="1">
          <mxGeometry x="648.99" y="1380" width="182.85" height="173" as="geometry" />
        </mxCell>
        <mxCell id="npopnhAjGusDiyGefJ4p-62" value="" style="group" vertex="1" connectable="0" parent="1">
          <mxGeometry x="504" y="1289" width="86" height="110" as="geometry" />
        </mxCell>
        <mxCell id="npopnhAjGusDiyGefJ4p-63" value="" style="ellipse;whiteSpace=wrap;html=1;aspect=fixed;fillColor=#FF3333;strokeColor=#FF3333;container=0;" vertex="1" parent="npopnhAjGusDiyGefJ4p-62">
          <mxGeometry width="30" height="30" as="geometry" />
        </mxCell>
        <mxCell id="npopnhAjGusDiyGefJ4p-64" value="" style="ellipse;whiteSpace=wrap;html=1;aspect=fixed;fillColor=#FF3333;strokeColor=#FF3333;container=0;" vertex="1" parent="npopnhAjGusDiyGefJ4p-62">
          <mxGeometry y="40" width="30" height="30" as="geometry" />
        </mxCell>
        <mxCell id="npopnhAjGusDiyGefJ4p-65" value="" style="ellipse;whiteSpace=wrap;html=1;aspect=fixed;fillColor=#FF3333;strokeColor=#FF3333;container=0;" vertex="1" parent="npopnhAjGusDiyGefJ4p-62">
          <mxGeometry y="80" width="30" height="30" as="geometry" />
        </mxCell>
        <mxCell id="npopnhAjGusDiyGefJ4p-66" value="" style="ellipse;whiteSpace=wrap;html=1;aspect=fixed;fillColor=#FF3333;strokeColor=#FF3333;container=0;" vertex="1" parent="npopnhAjGusDiyGefJ4p-62">
          <mxGeometry x="56" y="24" width="30" height="30" as="geometry" />
        </mxCell>
        <mxCell id="npopnhAjGusDiyGefJ4p-67" value="" style="ellipse;whiteSpace=wrap;html=1;aspect=fixed;fillColor=#FF3333;strokeColor=#FF3333;container=0;" vertex="1" parent="npopnhAjGusDiyGefJ4p-62">
          <mxGeometry x="56" y="60" width="30" height="30" as="geometry" />
        </mxCell>
        <mxCell id="npopnhAjGusDiyGefJ4p-68" value="" style="endArrow=none;html=1;rounded=0;exitX=0.933;exitY=0.46;exitDx=0;exitDy=0;exitPerimeter=0;entryX=0.037;entryY=0.501;entryDx=0;entryDy=0;entryPerimeter=0;fillColor=#FF3333;strokeColor=#FF3333;strokeWidth=3;" edge="1" parent="npopnhAjGusDiyGefJ4p-62" source="npopnhAjGusDiyGefJ4p-63" target="npopnhAjGusDiyGefJ4p-66">
          <mxGeometry width="50" height="50" relative="1" as="geometry">
            <mxPoint x="63" y="4" as="sourcePoint" />
            <mxPoint x="113" y="-46" as="targetPoint" />
          </mxGeometry>
        </mxCell>
        <mxCell id="npopnhAjGusDiyGefJ4p-69" value="" style="endArrow=none;html=1;rounded=0;exitX=0.955;exitY=0.522;exitDx=0;exitDy=0;exitPerimeter=0;entryX=0.037;entryY=0.536;entryDx=0;entryDy=0;entryPerimeter=0;fillColor=#FF3333;strokeColor=#FF3333;strokeWidth=3;" edge="1" parent="npopnhAjGusDiyGefJ4p-62" source="npopnhAjGusDiyGefJ4p-64" target="npopnhAjGusDiyGefJ4p-67">
          <mxGeometry width="50" height="50" relative="1" as="geometry">
            <mxPoint x="26" y="56" as="sourcePoint" />
            <mxPoint x="56" y="72" as="targetPoint" />
          </mxGeometry>
        </mxCell>
        <mxCell id="npopnhAjGusDiyGefJ4p-70" value="" style="endArrow=none;html=1;rounded=0;entryX=0;entryY=0.5;entryDx=0;entryDy=0;fillColor=#FF3333;strokeColor=#FF3333;strokeWidth=3;exitX=0.955;exitY=0.496;exitDx=0;exitDy=0;exitPerimeter=0;" edge="1" parent="npopnhAjGusDiyGefJ4p-62" source="npopnhAjGusDiyGefJ4p-64" target="npopnhAjGusDiyGefJ4p-66">
          <mxGeometry width="50" height="50" relative="1" as="geometry">
            <mxPoint x="29" y="57" as="sourcePoint" />
            <mxPoint x="78" y="54" as="targetPoint" />
          </mxGeometry>
        </mxCell>
        <mxCell id="npopnhAjGusDiyGefJ4p-71" value="" style="endArrow=none;html=1;rounded=0;entryX=0.051;entryY=0.545;entryDx=0;entryDy=0;fillColor=#FF3333;strokeColor=#FF3333;strokeWidth=3;exitX=0.947;exitY=0.513;exitDx=0;exitDy=0;exitPerimeter=0;entryPerimeter=0;" edge="1" parent="npopnhAjGusDiyGefJ4p-62" source="npopnhAjGusDiyGefJ4p-65" target="npopnhAjGusDiyGefJ4p-67">
          <mxGeometry width="50" height="50" relative="1" as="geometry">
            <mxPoint x="29" y="94" as="sourcePoint" />
            <mxPoint x="56" y="78" as="targetPoint" />
          </mxGeometry>
        </mxCell>
        <mxCell id="npopnhAjGusDiyGefJ4p-72" value="" style="endArrow=none;html=1;rounded=0;entryX=0.037;entryY=0.492;entryDx=0;entryDy=0;fillColor=#FF3333;strokeColor=#FF3333;strokeWidth=3;exitX=0.955;exitY=0.496;exitDx=0;exitDy=0;exitPerimeter=0;entryPerimeter=0;" edge="1" parent="npopnhAjGusDiyGefJ4p-62" source="npopnhAjGusDiyGefJ4p-65" target="npopnhAjGusDiyGefJ4p-66">
          <mxGeometry width="50" height="50" relative="1" as="geometry">
            <mxPoint x="49" y="75" as="sourcePoint" />
            <mxPoint x="76" y="59" as="targetPoint" />
          </mxGeometry>
        </mxCell>
        <mxCell id="npopnhAjGusDiyGefJ4p-73" value="" style="endArrow=none;html=1;rounded=0;entryX=0.046;entryY=0.536;entryDx=0;entryDy=0;fillColor=#FF3333;strokeColor=#FF3333;strokeWidth=3;exitX=0.947;exitY=0.482;exitDx=0;exitDy=0;exitPerimeter=0;entryPerimeter=0;" edge="1" parent="npopnhAjGusDiyGefJ4p-62" source="npopnhAjGusDiyGefJ4p-63" target="npopnhAjGusDiyGefJ4p-67">
          <mxGeometry width="50" height="50" relative="1" as="geometry">
            <mxPoint x="59" y="85" as="sourcePoint" />
            <mxPoint x="86" y="69" as="targetPoint" />
          </mxGeometry>
        </mxCell>
        <mxCell id="npopnhAjGusDiyGefJ4p-74" value="" style="ellipse;whiteSpace=wrap;html=1;strokeColor=#CCCCCC;fillColor=#E6E6E6;opacity=50;container=0;" vertex="1" parent="1">
          <mxGeometry x="424.5" y="1907" width="471" height="368" as="geometry" />
        </mxCell>
        <mxCell id="npopnhAjGusDiyGefJ4p-75" value="" style="shape=image;verticalLabelPosition=bottom;labelBackgroundColor=default;verticalAlign=top;aspect=fixed;imageAspect=0;editableCssRules=.*;image=data:image/svg+xml,PHN2ZyB4bWxuczp4bGluaz0iaHR0cDovL3d3dy53My5vcmcvMTk5OS94bGluayIgeG1sbnM9Imh0dHA6Ly93d3cudzMub3JnLzIwMDAvc3ZnIiBoZWlnaHQ9IjE1OC4zMzMzMzczMDY5NzYzMiIgd2lkdGg9IjE2Ni42NTgzNDE4ODQ2MTMwNCIgdmVyc2lvbj0iMS4xIiB2aWV3Qm94PSI4NS4zMzMzMzU4NzY0NjQ4NCAxMjggODUzLjI5MDcxMDQ0OTIxODggODEwLjY2NjY4NzAxMTcxODgiIGNsYXNzPSJpY29uIj48cGF0aCBmaWxsPSIjMmMyYzJjIiBkPSJNMjg4IDkzOC42NjY2NjdhMzIgMzIgMCAwIDEtNC4zNTItNjMuNzAxMzM0bDQuMzUyLTAuMjk4NjY2aDc0LjYyNHYtMTA2LjU4MTMzNEgxODEuMzMzMzMzYTk2IDk2IDAgMCAxLTk1Ljc4NjY2Ni04OS40MjkzMzNMODUuMzMzMzMzIDY3Mi4wODUzMzNWMjI0YTk2IDk2IDAgMCAxIDg5LjQyOTMzNC05NS43ODY2NjdMMTgxLjMzMzMzMyAxMjhoNjYxLjI5MDY2N2E5NiA5NiAwIDAgMSA5NS43ODY2NjcgODkuNDI5MzMzbDAuMjEzMzMzIDYuNTcwNjY3djQ0OC4wODUzMzNhOTYgOTYgMCAwIDEtODkuNDI5MzMzIDk1Ljc4NjY2N2wtNi41NzA2NjcgMC4yMTMzMzNoLTE4MS4zMzMzMzNWODc0LjY2NjY2N2g3NC43MDkzMzNhMzIgMzIgMCAwIDEgNC4zNTIgNjMuNzAxMzMzTDczNiA5MzguNjY2NjY3SDI4OHogbTMwOS4yNDgtMTcwLjU4MTMzNGgtMTcwLjY2NjY2N2wwLjA0MjY2NyAxMDYuNTgxMzM0aDE3MC42NjY2NjdsLTAuMDQyNjY3LTEwNi41ODEzMzR6TTg0Mi41ODEzMzMgMTkySDE4MS4zMzMzMzNhMzIgMzIgMCAwIDAtMzEuNzAxMzMzIDI3LjY0OEwxNDkuMzMzMzMzIDIyNHY0NDguMDg1MzMzYzAgMTYuMjEzMzMzIDEyLjAzMiAyOS41NjggMjcuNjQ4IDMxLjcwMTMzNGw0LjM1MiAwLjI5ODY2Nmg2NjEuMjkwNjY3YTMyIDMyIDAgMCAwIDMxLjcwMTMzMy0yNy42NDhsMC4yOTg2NjctNC4zNTJWMjI0YTMyIDMyIDAgMCAwLTI3LjY0OC0zMS43NDRsLTQuMzUyLTAuMjU2eiIvPjwvc3ZnPg==;container=0;" vertex="1" parent="1">
          <mxGeometry x="649" y="2060" width="182.84" height="173" as="geometry" />
        </mxCell>
        <mxCell id="npopnhAjGusDiyGefJ4p-76" value="" style="curved=1;endArrow=classic;html=1;rounded=0;strokeColor=#CC99FF;strokeWidth=3;fillColor=#CC99FF;" edge="1" parent="1">
          <mxGeometry width="50" height="50" relative="1" as="geometry">
            <mxPoint x="500" y="2136" as="sourcePoint" />
            <mxPoint x="509" y="2041" as="targetPoint" />
            <Array as="points">
              <mxPoint x="428" y="2086" />
            </Array>
          </mxGeometry>
        </mxCell>
        <mxCell id="npopnhAjGusDiyGefJ4p-77" value="" style="ellipse;whiteSpace=wrap;html=1;aspect=fixed;fillColor=#CC99FF;strokeColor=#CC99FF;container=0;" vertex="1" parent="1">
          <mxGeometry x="528.76" y="1959" width="30" height="30" as="geometry" />
        </mxCell>
        <mxCell id="npopnhAjGusDiyGefJ4p-78" value="" style="ellipse;whiteSpace=wrap;html=1;aspect=fixed;fillColor=#CC99FF;strokeColor=#CC99FF;container=0;" vertex="1" parent="1">
          <mxGeometry x="528.76" y="1999" width="30" height="30" as="geometry" />
        </mxCell>
        <mxCell id="npopnhAjGusDiyGefJ4p-79" value="" style="ellipse;whiteSpace=wrap;html=1;aspect=fixed;fillColor=#CC99FF;strokeColor=#CC99FF;container=0;" vertex="1" parent="1">
          <mxGeometry x="528.76" y="2039" width="30" height="30" as="geometry" />
        </mxCell>
        <mxCell id="npopnhAjGusDiyGefJ4p-80" value="" style="ellipse;whiteSpace=wrap;html=1;aspect=fixed;fillColor=#CC99FF;strokeColor=#CC99FF;container=0;" vertex="1" parent="1">
          <mxGeometry x="584.76" y="1983" width="30" height="30" as="geometry" />
        </mxCell>
        <mxCell id="npopnhAjGusDiyGefJ4p-81" value="" style="ellipse;whiteSpace=wrap;html=1;aspect=fixed;fillColor=#CC99FF;strokeColor=#CC99FF;container=0;" vertex="1" parent="1">
          <mxGeometry x="584.76" y="2019" width="30" height="30" as="geometry" />
        </mxCell>
        <mxCell id="npopnhAjGusDiyGefJ4p-82" value="" style="endArrow=none;html=1;rounded=0;exitX=0.933;exitY=0.46;exitDx=0;exitDy=0;exitPerimeter=0;entryX=0.037;entryY=0.501;entryDx=0;entryDy=0;entryPerimeter=0;fillColor=#CC99FF;strokeColor=#CC99FF;strokeWidth=3;" edge="1" parent="1" source="npopnhAjGusDiyGefJ4p-77" target="npopnhAjGusDiyGefJ4p-80">
          <mxGeometry width="50" height="50" relative="1" as="geometry">
            <mxPoint x="591.76" y="1963" as="sourcePoint" />
            <mxPoint x="641.76" y="1913" as="targetPoint" />
          </mxGeometry>
        </mxCell>
        <mxCell id="npopnhAjGusDiyGefJ4p-83" value="" style="endArrow=none;html=1;rounded=0;exitX=0.955;exitY=0.522;exitDx=0;exitDy=0;exitPerimeter=0;entryX=0.037;entryY=0.536;entryDx=0;entryDy=0;entryPerimeter=0;fillColor=#CC99FF;strokeColor=#CC99FF;strokeWidth=3;" edge="1" parent="1" source="npopnhAjGusDiyGefJ4p-78" target="npopnhAjGusDiyGefJ4p-81">
          <mxGeometry width="50" height="50" relative="1" as="geometry">
            <mxPoint x="554.76" y="2015" as="sourcePoint" />
            <mxPoint x="584.76" y="2031" as="targetPoint" />
          </mxGeometry>
        </mxCell>
        <mxCell id="npopnhAjGusDiyGefJ4p-84" value="" style="endArrow=none;html=1;rounded=0;entryX=0;entryY=0.5;entryDx=0;entryDy=0;fillColor=#CC99FF;strokeColor=#CC99FF;strokeWidth=3;exitX=0.955;exitY=0.496;exitDx=0;exitDy=0;exitPerimeter=0;" edge="1" parent="1" source="npopnhAjGusDiyGefJ4p-78" target="npopnhAjGusDiyGefJ4p-80">
          <mxGeometry width="50" height="50" relative="1" as="geometry">
            <mxPoint x="557.76" y="2016" as="sourcePoint" />
            <mxPoint x="606.76" y="2013" as="targetPoint" />
          </mxGeometry>
        </mxCell>
        <mxCell id="npopnhAjGusDiyGefJ4p-85" value="" style="endArrow=none;html=1;rounded=0;entryX=0.051;entryY=0.545;entryDx=0;entryDy=0;fillColor=#CC99FF;strokeColor=#CC99FF;strokeWidth=3;exitX=0.947;exitY=0.513;exitDx=0;exitDy=0;exitPerimeter=0;entryPerimeter=0;" edge="1" parent="1" source="npopnhAjGusDiyGefJ4p-79" target="npopnhAjGusDiyGefJ4p-81">
          <mxGeometry width="50" height="50" relative="1" as="geometry">
            <mxPoint x="557.76" y="2053" as="sourcePoint" />
            <mxPoint x="584.76" y="2037" as="targetPoint" />
          </mxGeometry>
        </mxCell>
        <mxCell id="npopnhAjGusDiyGefJ4p-86" value="" style="endArrow=none;html=1;rounded=0;entryX=0.037;entryY=0.492;entryDx=0;entryDy=0;fillColor=#CC99FF;strokeColor=#CC99FF;strokeWidth=3;exitX=0.955;exitY=0.496;exitDx=0;exitDy=0;exitPerimeter=0;entryPerimeter=0;" edge="1" parent="1" source="npopnhAjGusDiyGefJ4p-79" target="npopnhAjGusDiyGefJ4p-80">
          <mxGeometry width="50" height="50" relative="1" as="geometry">
            <mxPoint x="577.76" y="2034" as="sourcePoint" />
            <mxPoint x="604.76" y="2018" as="targetPoint" />
          </mxGeometry>
        </mxCell>
        <mxCell id="npopnhAjGusDiyGefJ4p-87" value="" style="endArrow=none;html=1;rounded=0;entryX=0.046;entryY=0.536;entryDx=0;entryDy=0;fillColor=#CC99FF;strokeColor=#CC99FF;strokeWidth=3;exitX=0.947;exitY=0.482;exitDx=0;exitDy=0;exitPerimeter=0;entryPerimeter=0;" edge="1" parent="1" source="npopnhAjGusDiyGefJ4p-77" target="npopnhAjGusDiyGefJ4p-81">
          <mxGeometry width="50" height="50" relative="1" as="geometry">
            <mxPoint x="587.76" y="2044" as="sourcePoint" />
            <mxPoint x="614.76" y="2028" as="targetPoint" />
          </mxGeometry>
        </mxCell>
        <mxCell id="npopnhAjGusDiyGefJ4p-88" value="" style="shape=image;verticalLabelPosition=bottom;labelBackgroundColor=default;verticalAlign=top;aspect=fixed;imageAspect=0;editableCssRules=.*;image=data:image/svg+xml,PHN2ZyB4bWxuczp4bGluaz0iaHR0cDovL3d3dy53My5vcmcvMTk5OS94bGluayIgeG1sbnM9Imh0dHA6Ly93d3cudzMub3JnLzIwMDAvc3ZnIiBoZWlnaHQ9IjIwMC4wMTI3NTUzOTM5ODE5MyIgd2lkdGg9IjE4Ni42NjY2NTU1NDA0NjYzIiB2ZXJzaW9uPSIxLjEiIHZpZXdCb3g9IjMzLjY4OTU3NTE5NTMxMjUgMC4wMDI1NzY0MDE5MjI4NTE4MDEgOTU1LjczMzI3NjM2NzE4NzUgMTAyNC4wNjUzMDc2MTcxODc1IiBjbGFzcz0iaWNvbiI+PHBhdGggZmlsbD0iI0NDOTlGRiIgZD0iTTYxMy41NDY2NjcgMTAxOS4yMjEzMzNsLTguMTkyIDAuODE5MiA4LjE5Mi0wLjgxOTJ6TTU3MS40MjYxMzMgMTAyMi4yMjUwNjdjLTQuNDM3MzMzIDAuMjA0OC04Ljk0MjkzMyAwLjYxNDQtMTMuMzgwMjY2IDAuNzUwOTMzbDEzLjM4MDI2Ni0wLjc1MDkzM3pNNDY1LjA2NjY2NyAxMDIyLjk3NmwtMTMuMzgwMjY3LTAuNzUwOTMzIDEzLjM4MDI2NyAwLjc1MDkzM3pNNDE3Ljc1Nzg2NyAxMDE5Ljk3MjI2N2wtOC4xOTItMC44MTkyYzIuNzMwNjY3IDAuMzQxMzMzIDUuMzkzMDY3IDAuNjE0NCA4LjE5MiAwLjgxOTJ6TTQwOS45MDcyIDQuNzc4NjY3bDcuNzE0MTMzLTAuNzUwOTM0YTI2OC41NjEwNjcgMjY4LjU2MTA2NyAwIDAgMC03LjcxNDEzMyAwLjc1MDkzNHpNNTU4LjA0NTg2NyAxLjAyNGwxMy4xNzU0NjYgMC43NTA5MzNjLTQuMzY5MDY3LTAuMjczMDY3LTguNzM4MTMzLTAuNjE0NC0xMy4xNzU0NjYtMC43NTA5MzN6TTYwNS40OTEyIDQuMDI3NzMzbDcuNzE0MTMzIDAuNzUwOTM0YTI2OC41NjEwNjcgMjY4LjU2MTA2NyAwIDAgMC03LjcxNDEzMy0wLjc1MDkzNHpNNDUxLjg5MTIgMS43NzQ5MzNsMTMuMTc1NDY3LTAuNzUwOTMzYy00LjQzNzMzMyAwLjEzNjUzMy04LjgwNjQgMC40Nzc4NjctMTMuMTc1NDY3IDAuNzUwOTMzeiIvPjxwYXRoIGZpbGw9IiNDQzk5RkYiIGQ9Ik02MTMuMjA1MzMzIDQuNzc4NjY3bC03LjcxNDEzMy0wLjc1MDkzNGExMTM5LjM3MDY2NyAxMTM5LjM3MDY2NyAwIDAgMC0zNC4yNjk4NjctMi4yNTI4bC0xMy4xNzU0NjYtMC43NTA5MzNhMTA1OC41NDI5MzMgMTA1OC41NDI5MzMgMCAwIDAtOTIuOTc5MiAwbC0xMy4xNzU0NjcgMC43NTA5MzNhMTEzOS4zNzA2NjcgMTEzOS4zNzA2NjcgMCAwIDAtMzQuMjY5ODY3IDIuMjUyOGwtNy43MTQxMzMgMC43NTA5MzRjLTE5Ni42NzYyNjcgMTcuNzQ5MzMzLTM3Ni4yMTc2IDg2LjQ5Mzg2Ny0zNzYuMjE3NiAyMDAuMDIxMzMzdjYxNC40YzAgMTEzLjQ1OTIgMTc5LjMzNjUzMyAxODIuMjAzNzMzIDM3NS44NzYyNjcgMjAwLjAyMTMzM2w4LjE5MiAwLjgxOTJjMTEuMjY0IDAuOTU1NzMzIDIyLjU5NjI2NyAxLjYzODQgMzMuOTI4NTMzIDIuMjUyOCA0LjQzNzMzMyAwLjIwNDggOC45NDI5MzMgMC42MTQ0IDEzLjM4MDI2NyAwLjc1MDkzNGExMDU2LjIyMTg2NyAxMDU2LjIyMTg2NyAwIDAgMCA5Mi45NzkyIDBsMTMuMzgwMjY2LTAuNzUwOTM0YzExLjMzMjI2Ny0wLjYxNDQgMjIuNjY0NTMzLTEuMjk3MDY3IDMzLjkyODUzNC0yLjI1MjhsOC4xOTItMC44MTkyYzE5Ni41Mzk3MzMtMTcuNzQ5MzMzIDM3NS44NzYyNjctODYuNDkzODY3IDM3NS44NzYyNjYtMjAwLjAyMTMzM3YtNjE0LjRjMC0xMTMuNTk1NzMzLTE3OS41NDEzMzMtMTgyLjM0MDI2Ny0zNzYuMjE3Ni0yMDAuMDIxMzMzek01MTEuNTU2MjY3IDQwOS42YzE1Ny4wMTMzMzMgMCAzMjAuMzc1NDY3LTMzLjA0MTA2NyA0MDkuNi05NS43MDk4NjdWNDA5LjZjMCAxNi4xNzkyLTEzLjg1ODEzMyAzNC4xMzMzMzMtMzcuNjgzMiA1MS42MDk2IDEuNTcwMTMzLTUuNzM0NCAzLjU0OTg2Ny0xMS4yNjQgMy41NDk4NjYtMTcuNDc2MjY3YTY4LjI2NjY2NyA2OC4yNjY2NjcgMCAwIDAtMTM2LjUzMzMzMyAwYzAgMjcuNzE2MjY3IDE2LjY1NzA2NyA1MS40MDQ4IDQwLjQxMzg2NyA2Mi4wNTQ0LTY5LjQ5NTQ2NyAyMy40MTU0NjctMTYzLjU2NjkzMyA0MC4zNDU2LTI3OS4zNDcyIDQwLjM0NTYtMjUzLjc0NzIgMC00MDkuNi03OS41MzA2NjctNDA5LjYtMTM2LjUzMzMzM3YtOTUuNzA5ODY3Yzg5LjIyNDUzMyA2Mi42Njg4IDI1Mi41ODY2NjcgOTUuNzA5ODY3IDQwOS42IDk1LjcwOTg2N3ogbTM3MS45MTY4IDI1Ni40MDk2YzEuNTcwMTMzLTUuNzM0NCAzLjU0OTg2Ny0xMS4yNjQgMy41NDk4NjYtMTcuNDc2MjY3YTY4LjI2NjY2NyA2OC4yNjY2NjcgMCAwIDAtMTM2LjUzMzMzMyAwYzAgMjcuNzE2MjY3IDE2LjY1NzA2NyA1MS40MDQ4IDQwLjQxMzg2NyA2Mi4wNTQ0LTY5LjQ5NTQ2NyAyMy40MTU0NjctMTYzLjU2NjkzMyA0MC4zNDU2LTI3OS4zNDcyIDQwLjM0NTYtMjUzLjc0NzIgMC00MDkuNi03OS41MzA2NjctNDA5LjYtMTM2LjUzMzMzM3YtOTUuNzA5ODY3Yzg5LjIyNDUzMyA2Mi42Njg4IDI1Mi41ODY2NjcgOTUuNzA5ODY3IDQwOS42IDk1LjcwOTg2N3MzMjAuMzc1NDY3LTMzLjA0MTA2NyA0MDkuNi05NS43MDk4NjdWNjE0LjRjMCAxNi4xNzkyLTEzLjg1ODEzMyAzNC4xMzMzMzMtMzcuNjgzMiA1MS42MDk2eiBtMCAyMDQuOGMxLjU3MDEzMy01LjczNDQgMy41NDk4NjctMTEuMjY0IDMuNTQ5ODY2LTE3LjQ3NjI2N2E2OC4yNjY2NjcgNjguMjY2NjY3IDAgMCAwLTEzNi41MzMzMzMgMGMwIDI3LjcxNjI2NyAxNi42NTcwNjcgNTEuNDA0OCA0MC40MTM4NjcgNjIuMDU0NC02OS40OTU0NjcgMjMuNDE1NDY3LTE2My41NjY5MzMgNDAuMzQ1Ni0yNzkuMzQ3MiA0MC4zNDU2LTI1My43NDcyIDAtNDA5LjYtNzkuNTMwNjY3LTQwOS42LTEzNi41MzMzMzNWNzIzLjQ5MDEzM2M4OS4yMjQ1MzMgNjIuNjY4OCAyNTIuNTg2NjY3IDk1LjcwOTg2NyA0MDkuNiA5NS43MDk4NjdzMzIwLjM3NTQ2Ny0zMy4wNDEwNjcgNDA5LjYtOTUuNzA5ODY3VjgxOS4yYzAgMTYuMTc5Mi0xMy44NTgxMzMgMzQuMTMzMzMzLTM3LjY4MzIgNTEuNjA5NnpNNTExLjU1NjI2NyAzNDEuMzMzMzMzYy0yNTMuNzQ3MiAwLTQwOS42LTc5LjUzMDY2Ny00MDkuNi0xMzYuNTMzMzMzczE1NS44NTI4LTEzNi41MzMzMzMgNDA5LjYtMTM2LjUzMzMzM2MyNTMuODE1NDY3IDAgNDA5LjYgNzkuNTMwNjY3IDQwOS42IDEzNi41MzMzMzNzLTE1NS43ODQ1MzMgMTM2LjUzMzMzMy00MDkuNiAxMzYuNTMzMzMzeiIvPjwvc3ZnPg==;container=0;" vertex="1" parent="1">
          <mxGeometry x="525.2355555555557" y="2132.9977777777776" width="93.5" height="100" as="geometry" />
        </mxCell>
        <mxCell id="npopnhAjGusDiyGefJ4p-89" value="" style="endArrow=none;html=1;rounded=0;strokeWidth=5;strokeColor=#4D4D4D;opacity=80;" edge="1" parent="1">
          <mxGeometry width="50" height="50" relative="1" as="geometry">
            <mxPoint x="427.5" y="1623" as="sourcePoint" />
            <mxPoint x="424.5" y="1558" as="targetPoint" />
          </mxGeometry>
        </mxCell>
        <mxCell id="npopnhAjGusDiyGefJ4p-90" value="" style="endArrow=none;html=1;rounded=0;strokeWidth=5;strokeColor=#4D4D4D;opacity=80;" edge="1" parent="1">
          <mxGeometry width="50" height="50" relative="1" as="geometry">
            <mxPoint x="668" y="1769" as="sourcePoint" />
            <mxPoint x="588" y="1718" as="targetPoint" />
          </mxGeometry>
        </mxCell>
        <mxCell id="npopnhAjGusDiyGefJ4p-91" value="" style="html=1;shadow=0;dashed=0;align=center;verticalAlign=middle;shape=mxgraph.arrows2.stripedArrow;dy=0.53;dx=41.31;notch=66.33;strokeColor=#4D4D4D;fillColor=#4D4D4D;" vertex="1" parent="1">
          <mxGeometry x="920" y="1700" width="142" height="70" as="geometry" />
        </mxCell>
        <mxCell id="npopnhAjGusDiyGefJ4p-92" value="" style="endArrow=classic;html=1;rounded=0;strokeWidth=3;strokeColor=#CC99FF;shape=flexArrow;fillColor=#CC99FF;width=6.538461538461538;endSize=12.084615384615384;" edge="1" parent="1">
          <mxGeometry width="50" height="50" relative="1" as="geometry">
            <mxPoint x="697" y="1860" as="sourcePoint" />
            <mxPoint x="697" y="1650" as="targetPoint" />
          </mxGeometry>
        </mxCell>
        <mxCell id="npopnhAjGusDiyGefJ4p-93" value="" style="endArrow=classic;html=1;rounded=0;strokeWidth=3;strokeColor=#FFD966;shape=flexArrow;fillColor=#FFD966;width=6.538461538461538;endSize=12.084615384615384;" edge="1" parent="1">
          <mxGeometry width="50" height="50" relative="1" as="geometry">
            <mxPoint x="-27" y="1418.75" as="sourcePoint" />
            <mxPoint x="368" y="1418.75" as="targetPoint" />
          </mxGeometry>
        </mxCell>
        <mxCell id="npopnhAjGusDiyGefJ4p-94" value="" style="shape=image;verticalLabelPosition=bottom;labelBackgroundColor=default;verticalAlign=top;aspect=fixed;imageAspect=0;editableCssRules=.*;image=data:image/svg+xml,PHN2ZyB4bWxuczp4bGluaz0iaHR0cDovL3d3dy53My5vcmcvMTk5OS94bGluayIgeG1sbnM9Imh0dHA6Ly93d3cudzMub3JnLzIwMDAvc3ZnIiBoZWlnaHQ9IjE1MS41ODU2NjIzNjQ5NTk3MiIgd2lkdGg9IjE3NS40Mjk2ODk4ODQxODU4IiB2ZXJzaW9uPSIxLjEiIHZpZXdCb3g9IjYyLjkwMDAwMTUyNTg3ODkwNiAxMjMuOTgxMzc2NjQ3OTQ5MjIgODk4LjIwMDAxMjIwNzAzMTIgNzc2LjExODU5MTMwODU5MzgiIGNsYXNzPSJpY29uIj48cGF0aCBmaWxsPSIjRkYzMzMzIiBkPSJNNzE0LjUgNzAwLjVjMjUuMi02NC45IDg1LjUtOTkuNiA4NS41LTk5LjZsLTExOS45LTcxLjRjNS43LTIwLjYgOC44LTQxLjIgOC44LTYwLjN2LTI0aDczLjNzLTMuMS02Mi42LTY3LjktNjIuNmgtMS45bC00OC45LTIzNC43Yy0zLjEtMTQuOS0yMC4yLTI1LjYtMzguNi0yMy43bC04Ni4zIDE2LjRjLTIuMyAwLjQtNC42IDAuOC02LjUgMC44LTIuMyAwLTQuNi0wLjQtNi41LTAuOGwtODYuMy0xNi40Yy0xOC4zLTEuOS0zNS41IDguOC0zOC42IDIzLjdMMzMxLjEgMzgzYy01OCA1LTY5LjUgNjEuOC02OS41IDYxLjhoNzMuM3YyNC40YzAgMTkuMSAzLjEgMzkuMyA4LjggNTkuOUwyMjQgNjAwLjVzNjAuMyAzNC43IDg1LjUgOTkuNmMwIDAtMTQyIDIyLjEtMTY1LjcgNTAuNC0yMy43IDI4LjYtODAuOSAxNDkuNi04MC45IDE0OS42aDg5OC4ycy01Ni45LTEyMS04MC45LTE0OS42Yy0yMy43LTI3LjktMTY1LjctNTAtMTY1LjctNTB6TTQ5OC40IDQ0NS4xaDE2MC43djI0LjRjMCAxOC43LTMuNCAzOS4zLTkuOSA2MC4zLTcuNiAyNS4yLTE5LjggNTAuOC0zNS4xIDcyLjktMTQuMSAyMC42LTMwLjUgMzcuOC00Ny43IDQ5LjYtMTcuOSAxMi4yLTM2LjYgMTguNy01NC42IDE4LjctMTguMyAwLTM2LjYtNi4xLTU0LjYtMTguNy0xNy4yLTExLjUtMzMuNi0yOC42LTQ3LjctNDkuNi0xNS4zLTIyLjEtMjcuMS00Ny43LTM1LjEtNzIuOS02LjUtMjAuNi05LjktNDEuNi05LjktNjAuM3YtMjQuNGgxMzMuOXoiLz48L3N2Zz4=;" vertex="1" parent="1">
          <mxGeometry x="702.42" y="1414" width="75.99" height="66" as="geometry" />
        </mxCell>
        <mxCell id="npopnhAjGusDiyGefJ4p-95" value="" style="endArrow=classic;html=1;rounded=0;strokeWidth=3;strokeColor=#359EFF;shape=flexArrow;fillColor=#359EFF;width=6.538461538461538;endSize=12.084615384615384;" edge="1" parent="1">
          <mxGeometry width="50" height="50" relative="1" as="geometry">
            <mxPoint x="328.5" y="1606" as="sourcePoint" />
            <mxPoint x="424.5" y="1522" as="targetPoint" />
          </mxGeometry>
        </mxCell>
        <mxCell id="npopnhAjGusDiyGefJ4p-96" value="" style="shape=image;verticalLabelPosition=bottom;labelBackgroundColor=default;verticalAlign=top;aspect=fixed;imageAspect=0;editableCssRules=.*;image=data:image/svg+xml,PHN2ZyB4bWxuczp4bGluaz0iaHR0cDovL3d3dy53My5vcmcvMTk5OS94bGluayIgeG1sbnM9Imh0dHA6Ly93d3cudzMub3JnLzIwMDAvc3ZnIiBoZWlnaHQ9IjIwMC4wMTI3NTUzOTM5ODE5MyIgd2lkdGg9IjE4Ni42NjY2NTU1NDA0NjYzIiB2ZXJzaW9uPSIxLjEiIHZpZXdCb3g9IjMzLjY4OTU3NTE5NTMxMjUgMC4wMDI1NzY0MDE5MjI4NTE4MDEgOTU1LjczMzI3NjM2NzE4NzUgMTAyNC4wNjUzMDc2MTcxODc1IiBjbGFzcz0iaWNvbiI+PHBhdGggZmlsbD0iI0ZGMzMzMyIgZD0iTTYxMy41NDY2NjcgMTAxOS4yMjEzMzNsLTguMTkyIDAuODE5MiA4LjE5Mi0wLjgxOTJ6TTU3MS40MjYxMzMgMTAyMi4yMjUwNjdjLTQuNDM3MzMzIDAuMjA0OC04Ljk0MjkzMyAwLjYxNDQtMTMuMzgwMjY2IDAuNzUwOTMzbDEzLjM4MDI2Ni0wLjc1MDkzM3pNNDY1LjA2NjY2NyAxMDIyLjk3NmwtMTMuMzgwMjY3LTAuNzUwOTMzIDEzLjM4MDI2NyAwLjc1MDkzM3pNNDE3Ljc1Nzg2NyAxMDE5Ljk3MjI2N2wtOC4xOTItMC44MTkyYzIuNzMwNjY3IDAuMzQxMzMzIDUuMzkzMDY3IDAuNjE0NCA4LjE5MiAwLjgxOTJ6TTQwOS45MDcyIDQuNzc4NjY3bDcuNzE0MTMzLTAuNzUwOTM0YTI2OC41NjEwNjcgMjY4LjU2MTA2NyAwIDAgMC03LjcxNDEzMyAwLjc1MDkzNHpNNTU4LjA0NTg2NyAxLjAyNGwxMy4xNzU0NjYgMC43NTA5MzNjLTQuMzY5MDY3LTAuMjczMDY3LTguNzM4MTMzLTAuNjE0NC0xMy4xNzU0NjYtMC43NTA5MzN6TTYwNS40OTEyIDQuMDI3NzMzbDcuNzE0MTMzIDAuNzUwOTM0YTI2OC41NjEwNjcgMjY4LjU2MTA2NyAwIDAgMC03LjcxNDEzMy0wLjc1MDkzNHpNNDUxLjg5MTIgMS43NzQ5MzNsMTMuMTc1NDY3LTAuNzUwOTMzYy00LjQzNzMzMyAwLjEzNjUzMy04LjgwNjQgMC40Nzc4NjctMTMuMTc1NDY3IDAuNzUwOTMzeiIvPjxwYXRoIGZpbGw9IiNGRjMzMzMiIGQ9Ik02MTMuMjA1MzMzIDQuNzc4NjY3bC03LjcxNDEzMy0wLjc1MDkzNGExMTM5LjM3MDY2NyAxMTM5LjM3MDY2NyAwIDAgMC0zNC4yNjk4NjctMi4yNTI4bC0xMy4xNzU0NjYtMC43NTA5MzNhMTA1OC41NDI5MzMgMTA1OC41NDI5MzMgMCAwIDAtOTIuOTc5MiAwbC0xMy4xNzU0NjcgMC43NTA5MzNhMTEzOS4zNzA2NjcgMTEzOS4zNzA2NjcgMCAwIDAtMzQuMjY5ODY3IDIuMjUyOGwtNy43MTQxMzMgMC43NTA5MzRjLTE5Ni42NzYyNjcgMTcuNzQ5MzMzLTM3Ni4yMTc2IDg2LjQ5Mzg2Ny0zNzYuMjE3NiAyMDAuMDIxMzMzdjYxNC40YzAgMTEzLjQ1OTIgMTc5LjMzNjUzMyAxODIuMjAzNzMzIDM3NS44NzYyNjcgMjAwLjAyMTMzM2w4LjE5MiAwLjgxOTJjMTEuMjY0IDAuOTU1NzMzIDIyLjU5NjI2NyAxLjYzODQgMzMuOTI4NTMzIDIuMjUyOCA0LjQzNzMzMyAwLjIwNDggOC45NDI5MzMgMC42MTQ0IDEzLjM4MDI2NyAwLjc1MDkzNGExMDU2LjIyMTg2NyAxMDU2LjIyMTg2NyAwIDAgMCA5Mi45NzkyIDBsMTMuMzgwMjY2LTAuNzUwOTM0YzExLjMzMjI2Ny0wLjYxNDQgMjIuNjY0NTMzLTEuMjk3MDY3IDMzLjkyODUzNC0yLjI1MjhsOC4xOTItMC44MTkyYzE5Ni41Mzk3MzMtMTcuNzQ5MzMzIDM3NS44NzYyNjctODYuNDkzODY3IDM3NS44NzYyNjYtMjAwLjAyMTMzM3YtNjE0LjRjMC0xMTMuNTk1NzMzLTE3OS41NDEzMzMtMTgyLjM0MDI2Ny0zNzYuMjE3Ni0yMDAuMDIxMzMzek01MTEuNTU2MjY3IDQwOS42YzE1Ny4wMTMzMzMgMCAzMjAuMzc1NDY3LTMzLjA0MTA2NyA0MDkuNi05NS43MDk4NjdWNDA5LjZjMCAxNi4xNzkyLTEzLjg1ODEzMyAzNC4xMzMzMzMtMzcuNjgzMiA1MS42MDk2IDEuNTcwMTMzLTUuNzM0NCAzLjU0OTg2Ny0xMS4yNjQgMy41NDk4NjYtMTcuNDc2MjY3YTY4LjI2NjY2NyA2OC4yNjY2NjcgMCAwIDAtMTM2LjUzMzMzMyAwYzAgMjcuNzE2MjY3IDE2LjY1NzA2NyA1MS40MDQ4IDQwLjQxMzg2NyA2Mi4wNTQ0LTY5LjQ5NTQ2NyAyMy40MTU0NjctMTYzLjU2NjkzMyA0MC4zNDU2LTI3OS4zNDcyIDQwLjM0NTYtMjUzLjc0NzIgMC00MDkuNi03OS41MzA2NjctNDA5LjYtMTM2LjUzMzMzM3YtOTUuNzA5ODY3Yzg5LjIyNDUzMyA2Mi42Njg4IDI1Mi41ODY2NjcgOTUuNzA5ODY3IDQwOS42IDk1LjcwOTg2N3ogbTM3MS45MTY4IDI1Ni40MDk2YzEuNTcwMTMzLTUuNzM0NCAzLjU0OTg2Ny0xMS4yNjQgMy41NDk4NjYtMTcuNDc2MjY3YTY4LjI2NjY2NyA2OC4yNjY2NjcgMCAwIDAtMTM2LjUzMzMzMyAwYzAgMjcuNzE2MjY3IDE2LjY1NzA2NyA1MS40MDQ4IDQwLjQxMzg2NyA2Mi4wNTQ0LTY5LjQ5NTQ2NyAyMy40MTU0NjctMTYzLjU2NjkzMyA0MC4zNDU2LTI3OS4zNDcyIDQwLjM0NTYtMjUzLjc0NzIgMC00MDkuNi03OS41MzA2NjctNDA5LjYtMTM2LjUzMzMzM3YtOTUuNzA5ODY3Yzg5LjIyNDUzMyA2Mi42Njg4IDI1Mi41ODY2NjcgOTUuNzA5ODY3IDQwOS42IDk1LjcwOTg2N3MzMjAuMzc1NDY3LTMzLjA0MTA2NyA0MDkuNi05NS43MDk4NjdWNjE0LjRjMCAxNi4xNzkyLTEzLjg1ODEzMyAzNC4xMzMzMzMtMzcuNjgzMiA1MS42MDk2eiBtMCAyMDQuOGMxLjU3MDEzMy01LjczNDQgMy41NDk4NjctMTEuMjY0IDMuNTQ5ODY2LTE3LjQ3NjI2N2E2OC4yNjY2NjcgNjguMjY2NjY3IDAgMCAwLTEzNi41MzMzMzMgMGMwIDI3LjcxNjI2NyAxNi42NTcwNjcgNTEuNDA0OCA0MC40MTM4NjcgNjIuMDU0NC02OS40OTU0NjcgMjMuNDE1NDY3LTE2My41NjY5MzMgNDAuMzQ1Ni0yNzkuMzQ3MiA0MC4zNDU2LTI1My43NDcyIDAtNDA5LjYtNzkuNTMwNjY3LTQwOS42LTEzNi41MzMzMzNWNzIzLjQ5MDEzM2M4OS4yMjQ1MzMgNjIuNjY4OCAyNTIuNTg2NjY3IDk1LjcwOTg2NyA0MDkuNiA5NS43MDk4NjdzMzIwLjM3NTQ2Ny0zMy4wNDEwNjcgNDA5LjYtOTUuNzA5ODY3VjgxOS4yYzAgMTYuMTc5Mi0xMy44NTgxMzMgMzQuMTMzMzMzLTM3LjY4MzIgNTEuNjA5NnpNNTExLjU1NjI2NyAzNDEuMzMzMzMzYy0yNTMuNzQ3MiAwLTQwOS42LTc5LjUzMDY2Ny00MDkuNi0xMzYuNTMzMzMzczE1NS44NTI4LTEzNi41MzMzMzMgNDA5LjYtMTM2LjUzMzMzM2MyNTMuODE1NDY3IDAgNDA5LjYgNzkuNTMwNjY3IDQwOS42IDEzNi41MzMzMzNzLTE1NS43ODQ1MzMgMTM2LjUzMzMzMy00MDkuNiAxMzYuNTMzMzMzeiIvPjwvc3ZnPg==;" vertex="1" parent="1">
          <mxGeometry x="500.76" y="1453" width="93.5" height="100" as="geometry" />
        </mxCell>
        <mxCell id="npopnhAjGusDiyGefJ4p-97" value="" style="endArrow=none;html=1;rounded=0;entryX=0;entryY=0;entryDx=0;entryDy=0;exitX=1;exitY=1;exitDx=0;exitDy=0;strokeWidth=5;fillColor=#4D4D4D;strokeColor=#4D4D4D;opacity=70;" edge="1" parent="1" source="npopnhAjGusDiyGefJ4p-60" target="npopnhAjGusDiyGefJ4p-60">
          <mxGeometry width="50" height="50" relative="1" as="geometry">
            <mxPoint x="487" y="1560" as="sourcePoint" />
            <mxPoint x="820" y="1300" as="targetPoint" />
          </mxGeometry>
        </mxCell>
        <mxCell id="npopnhAjGusDiyGefJ4p-98" value="" style="endArrow=none;html=1;rounded=0;entryX=1;entryY=0;entryDx=0;entryDy=0;exitX=0;exitY=1;exitDx=0;exitDy=0;strokeWidth=5;fillColor=#4D4D4D;strokeColor=#4D4D4D;opacity=70;" edge="1" parent="1" source="npopnhAjGusDiyGefJ4p-60" target="npopnhAjGusDiyGefJ4p-60">
          <mxGeometry width="50" height="50" relative="1" as="geometry">
            <mxPoint x="743" y="1694" as="sourcePoint" />
            <mxPoint x="793" y="1644" as="targetPoint" />
          </mxGeometry>
        </mxCell>
        <mxCell id="npopnhAjGusDiyGefJ4p-99" value="" style="endArrow=classic;html=1;rounded=0;strokeWidth=3;strokeColor=#99FF99;shape=flexArrow;fillColor=#99FF99;width=6.538461538461538;endSize=12.084615384615384;" edge="1" parent="1">
          <mxGeometry width="50" height="50" relative="1" as="geometry">
            <mxPoint x="-287" y="1893" as="sourcePoint" />
            <mxPoint x="-287" y="1644" as="targetPoint" />
          </mxGeometry>
        </mxCell>
        <mxCell id="npopnhAjGusDiyGefJ4p-100" value="" style="group;aspect=fixed;" vertex="1" connectable="0" parent="1">
          <mxGeometry x="1111" y="1579.5" width="243.16" height="311" as="geometry" />
        </mxCell>
        <mxCell id="npopnhAjGusDiyGefJ4p-101" value="" style="rounded=0;whiteSpace=wrap;html=1;gradientColor=#FFD966;strokeColor=none;gradientDirection=east;fillColor=#99FF99;rotation=60;" vertex="1" parent="npopnhAjGusDiyGefJ4p-100">
          <mxGeometry x="36.30435348837186" y="124.90890909090913" width="169.64651162790696" height="8.481818181818184" as="geometry" />
        </mxCell>
        <mxCell id="npopnhAjGusDiyGefJ4p-102" value="" style="rounded=0;whiteSpace=wrap;html=1;gradientColor=#FFD966;strokeColor=none;gradientDirection=east;fillColor=#99FF99;rotation=-65;" vertex="1" parent="npopnhAjGusDiyGefJ4p-100">
          <mxGeometry x="36.30435348837186" y="178.11818181818185" width="175.30139534883722" height="8.481818181818184" as="geometry" />
        </mxCell>
        <mxCell id="npopnhAjGusDiyGefJ4p-103" value="" style="rounded=0;whiteSpace=wrap;html=1;gradientColor=#FFD966;strokeColor=none;gradientDirection=east;fillColor=#99FF99;rotation=-35;" vertex="1" parent="npopnhAjGusDiyGefJ4p-100">
          <mxGeometry x="72.49560930232586" y="233.75890909090913" width="99.6956" height="8.481818181818184" as="geometry" />
        </mxCell>
        <mxCell id="npopnhAjGusDiyGefJ4p-104" value="" style="rounded=0;whiteSpace=wrap;html=1;gradientColor=#FFD966;strokeColor=none;gradientDirection=east;fillColor=#99FF99;rotation=-35;" vertex="1" parent="npopnhAjGusDiyGefJ4p-100">
          <mxGeometry x="75.6906186046511" y="124.90890909090913" width="96.50059069767443" height="8.481818181818184" as="geometry" />
        </mxCell>
        <mxCell id="npopnhAjGusDiyGefJ4p-105" value="" style="rounded=0;whiteSpace=wrap;html=1;gradientColor=#FFD966;strokeColor=none;gradientDirection=east;fillColor=#99FF99;rotation=30;" vertex="1" parent="npopnhAjGusDiyGefJ4p-100">
          <mxGeometry x="75.97336279069737" y="178.11818181818185" width="93.30558139534884" height="8.481818181818184" as="geometry" />
        </mxCell>
        <mxCell id="npopnhAjGusDiyGefJ4p-106" value="" style="rounded=0;whiteSpace=wrap;html=1;gradientColor=#FFD966;strokeColor=none;gradientDirection=east;fillColor=#99FF99;rotation=30;" vertex="1" parent="npopnhAjGusDiyGefJ4p-100">
          <mxGeometry x="75.97336279069737" y="69.26818181818183" width="93.30558139534884" height="8.481818181818184" as="geometry" />
        </mxCell>
        <mxCell id="npopnhAjGusDiyGefJ4p-107" value="" style="ellipse;whiteSpace=wrap;html=1;aspect=fixed;fillColor=#3399FF;strokeColor=none;container=0;gradientColor=#99FF99;gradientDirection=east;" vertex="1" parent="npopnhAjGusDiyGefJ4p-100">
          <mxGeometry width="84.81818181818183" height="84.81818181818183" as="geometry" />
        </mxCell>
        <mxCell id="npopnhAjGusDiyGefJ4p-108" value="" style="ellipse;whiteSpace=wrap;html=1;aspect=fixed;fillColor=#3399FF;strokeColor=none;container=0;gradientColor=#99FF99;gradientDirection=east;" vertex="1" parent="npopnhAjGusDiyGefJ4p-100">
          <mxGeometry y="113.09090909090911" width="84.81818181818183" height="84.81818181818183" as="geometry" />
        </mxCell>
        <mxCell id="npopnhAjGusDiyGefJ4p-109" value="" style="ellipse;whiteSpace=wrap;html=1;aspect=fixed;fillColor=#3399FF;strokeColor=none;container=0;gradientColor=#99FF99;gradientDirection=east;" vertex="1" parent="npopnhAjGusDiyGefJ4p-100">
          <mxGeometry y="226.18181818181822" width="84.81818181818183" height="84.81818181818183" as="geometry" />
        </mxCell>
        <mxCell id="npopnhAjGusDiyGefJ4p-110" value="" style="ellipse;whiteSpace=wrap;html=1;aspect=fixed;fillColor=#FFD966;strokeColor=none;container=0;gradientColor=#CC99FF;gradientDirection=east;" vertex="1" parent="npopnhAjGusDiyGefJ4p-100">
          <mxGeometry x="158.33674418604653" y="67.85454545454547" width="84.81818181818183" height="84.81818181818183" as="geometry" />
        </mxCell>
        <mxCell id="npopnhAjGusDiyGefJ4p-111" value="" style="ellipse;whiteSpace=wrap;html=1;aspect=fixed;fillColor=#FFD966;strokeColor=none;container=0;gradientColor=#CC99FF;gradientDirection=east;" vertex="1" parent="npopnhAjGusDiyGefJ4p-100">
          <mxGeometry x="158.33674418604653" y="169.63636363636365" width="84.81818181818183" height="84.81818181818183" as="geometry" />
        </mxCell>
        <mxCell id="npopnhAjGusDiyGefJ4p-112" value="Final model" style="text;html=1;align=center;verticalAlign=middle;resizable=0;points=[];autosize=1;strokeColor=none;fillColor=none;fontSize=60;fontFamily=Times New Roman;" vertex="1" parent="1">
          <mxGeometry x="1079.58" y="1924" width="306" height="84" as="geometry" />
        </mxCell>
        <mxCell id="npopnhAjGusDiyGefJ4p-115" value="" style="group" vertex="1" connectable="0" parent="1">
          <mxGeometry x="-461.25" y="-2184" width="471" height="368" as="geometry" />
        </mxCell>
        <mxCell id="npopnhAjGusDiyGefJ4p-116" value="" style="ellipse;whiteSpace=wrap;html=1;strokeColor=#CCCCCC;fillColor=#E6E6E6;opacity=50;container=0;" vertex="1" parent="npopnhAjGusDiyGefJ4p-115">
          <mxGeometry width="471" height="368" as="geometry" />
        </mxCell>
        <mxCell id="npopnhAjGusDiyGefJ4p-117" value="" style="shape=image;verticalLabelPosition=bottom;labelBackgroundColor=default;verticalAlign=top;aspect=fixed;imageAspect=0;editableCssRules=.*;image=data:image/svg+xml,PHN2ZyB4bWxuczp4bGluaz0iaHR0cDovL3d3dy53My5vcmcvMTk5OS94bGluayIgeG1sbnM9Imh0dHA6Ly93d3cudzMub3JnLzIwMDAvc3ZnIiBoZWlnaHQ9IjE1OC4zMzMzMzczMDY5NzYzMiIgd2lkdGg9IjE2Ni42NTgzNDE4ODQ2MTMwNCIgdmVyc2lvbj0iMS4xIiB2aWV3Qm94PSI4NS4zMzMzMzU4NzY0NjQ4NCAxMjggODUzLjI5MDcxMDQ0OTIxODggODEwLjY2NjY4NzAxMTcxODgiIGNsYXNzPSJpY29uIj48cGF0aCBmaWxsPSIjMmMyYzJjIiBkPSJNMjg4IDkzOC42NjY2NjdhMzIgMzIgMCAwIDEtNC4zNTItNjMuNzAxMzM0bDQuMzUyLTAuMjk4NjY2aDc0LjYyNHYtMTA2LjU4MTMzNEgxODEuMzMzMzMzYTk2IDk2IDAgMCAxLTk1Ljc4NjY2Ni04OS40MjkzMzNMODUuMzMzMzMzIDY3Mi4wODUzMzNWMjI0YTk2IDk2IDAgMCAxIDg5LjQyOTMzNC05NS43ODY2NjdMMTgxLjMzMzMzMyAxMjhoNjYxLjI5MDY2N2E5NiA5NiAwIDAgMSA5NS43ODY2NjcgODkuNDI5MzMzbDAuMjEzMzMzIDYuNTcwNjY3djQ0OC4wODUzMzNhOTYgOTYgMCAwIDEtODkuNDI5MzMzIDk1Ljc4NjY2N2wtNi41NzA2NjcgMC4yMTMzMzNoLTE4MS4zMzMzMzNWODc0LjY2NjY2N2g3NC43MDkzMzNhMzIgMzIgMCAwIDEgNC4zNTIgNjMuNzAxMzMzTDczNiA5MzguNjY2NjY3SDI4OHogbTMwOS4yNDgtMTcwLjU4MTMzNGgtMTcwLjY2NjY2N2wwLjA0MjY2NyAxMDYuNTgxMzM0aDE3MC42NjY2NjdsLTAuMDQyNjY3LTEwNi41ODEzMzR6TTg0Mi41ODEzMzMgMTkySDE4MS4zMzMzMzNhMzIgMzIgMCAwIDAtMzEuNzAxMzMzIDI3LjY0OEwxNDkuMzMzMzMzIDIyNHY0NDguMDg1MzMzYzAgMTYuMjEzMzMzIDEyLjAzMiAyOS41NjggMjcuNjQ4IDMxLjcwMTMzNGw0LjM1MiAwLjI5ODY2Nmg2NjEuMjkwNjY3YTMyIDMyIDAgMCAwIDMxLjcwMTMzMy0yNy42NDhsMC4yOTg2NjctNC4zNTJWMjI0YTMyIDMyIDAgMCAwLTI3LjY0OC0zMS43NDRsLTQuMzUyLTAuMjU2eiIvPjwvc3ZnPg==;container=0;" vertex="1" parent="npopnhAjGusDiyGefJ4p-115">
          <mxGeometry x="230.0000000000001" y="139" width="182.84" height="173" as="geometry" />
        </mxCell>
        <mxCell id="npopnhAjGusDiyGefJ4p-118" value="" style="curved=1;endArrow=classic;html=1;rounded=0;strokeColor=#FFD966;strokeWidth=3;fillColor=#FFD966;" edge="1" parent="npopnhAjGusDiyGefJ4p-115">
          <mxGeometry width="50" height="50" relative="1" as="geometry">
            <mxPoint x="72.00000000000011" y="227" as="sourcePoint" />
            <mxPoint x="81.00000000000011" y="132" as="targetPoint" />
            <Array as="points">
              <mxPoint x="1.1368683772161603e-13" y="177" />
            </Array>
          </mxGeometry>
        </mxCell>
        <mxCell id="npopnhAjGusDiyGefJ4p-119" value="" style="ellipse;whiteSpace=wrap;html=1;aspect=fixed;fillColor=#FFD966;strokeColor=#FFD966;container=0;" vertex="1" parent="npopnhAjGusDiyGefJ4p-115">
          <mxGeometry x="100.7600000000001" y="50" width="30" height="30" as="geometry" />
        </mxCell>
        <mxCell id="npopnhAjGusDiyGefJ4p-120" value="" style="ellipse;whiteSpace=wrap;html=1;aspect=fixed;fillColor=#FFD966;strokeColor=#FFD966;container=0;" vertex="1" parent="npopnhAjGusDiyGefJ4p-115">
          <mxGeometry x="100.7600000000001" y="90" width="30" height="30" as="geometry" />
        </mxCell>
        <mxCell id="npopnhAjGusDiyGefJ4p-121" value="" style="ellipse;whiteSpace=wrap;html=1;aspect=fixed;fillColor=#FFD966;strokeColor=#FFD966;container=0;" vertex="1" parent="npopnhAjGusDiyGefJ4p-115">
          <mxGeometry x="100.7600000000001" y="130" width="30" height="30" as="geometry" />
        </mxCell>
        <mxCell id="npopnhAjGusDiyGefJ4p-122" value="" style="ellipse;whiteSpace=wrap;html=1;aspect=fixed;fillColor=#FFD966;strokeColor=#FFD966;container=0;" vertex="1" parent="npopnhAjGusDiyGefJ4p-115">
          <mxGeometry x="156.7600000000001" y="74" width="30" height="30" as="geometry" />
        </mxCell>
        <mxCell id="npopnhAjGusDiyGefJ4p-123" value="" style="ellipse;whiteSpace=wrap;html=1;aspect=fixed;fillColor=#FFD966;strokeColor=#FFD966;container=0;" vertex="1" parent="npopnhAjGusDiyGefJ4p-115">
          <mxGeometry x="156.7600000000001" y="110" width="30" height="30" as="geometry" />
        </mxCell>
        <mxCell id="npopnhAjGusDiyGefJ4p-124" value="" style="endArrow=none;html=1;rounded=0;exitX=0.933;exitY=0.46;exitDx=0;exitDy=0;exitPerimeter=0;entryX=0.037;entryY=0.501;entryDx=0;entryDy=0;entryPerimeter=0;fillColor=#FFD966;strokeColor=#FFD966;strokeWidth=3;" edge="1" parent="npopnhAjGusDiyGefJ4p-115" source="npopnhAjGusDiyGefJ4p-119" target="npopnhAjGusDiyGefJ4p-122">
          <mxGeometry width="50" height="50" relative="1" as="geometry">
            <mxPoint x="163.7600000000001" y="54" as="sourcePoint" />
            <mxPoint x="213.7600000000001" y="4" as="targetPoint" />
          </mxGeometry>
        </mxCell>
        <mxCell id="npopnhAjGusDiyGefJ4p-125" value="" style="endArrow=none;html=1;rounded=0;exitX=0.955;exitY=0.522;exitDx=0;exitDy=0;exitPerimeter=0;entryX=0.037;entryY=0.536;entryDx=0;entryDy=0;entryPerimeter=0;fillColor=#FFD966;strokeColor=#FFD966;strokeWidth=3;" edge="1" parent="npopnhAjGusDiyGefJ4p-115" source="npopnhAjGusDiyGefJ4p-120" target="npopnhAjGusDiyGefJ4p-123">
          <mxGeometry width="50" height="50" relative="1" as="geometry">
            <mxPoint x="126.7600000000001" y="106" as="sourcePoint" />
            <mxPoint x="156.7600000000001" y="122" as="targetPoint" />
          </mxGeometry>
        </mxCell>
        <mxCell id="npopnhAjGusDiyGefJ4p-126" value="" style="endArrow=none;html=1;rounded=0;entryX=0;entryY=0.5;entryDx=0;entryDy=0;fillColor=#FFD966;strokeColor=#FFD966;strokeWidth=3;exitX=0.955;exitY=0.496;exitDx=0;exitDy=0;exitPerimeter=0;" edge="1" parent="npopnhAjGusDiyGefJ4p-115" source="npopnhAjGusDiyGefJ4p-120" target="npopnhAjGusDiyGefJ4p-122">
          <mxGeometry width="50" height="50" relative="1" as="geometry">
            <mxPoint x="129.7600000000001" y="107" as="sourcePoint" />
            <mxPoint x="178.7600000000001" y="104" as="targetPoint" />
          </mxGeometry>
        </mxCell>
        <mxCell id="npopnhAjGusDiyGefJ4p-127" value="" style="endArrow=none;html=1;rounded=0;entryX=0.051;entryY=0.545;entryDx=0;entryDy=0;fillColor=#FFD966;strokeColor=#FFD966;strokeWidth=3;exitX=0.947;exitY=0.513;exitDx=0;exitDy=0;exitPerimeter=0;entryPerimeter=0;" edge="1" parent="npopnhAjGusDiyGefJ4p-115" source="npopnhAjGusDiyGefJ4p-121" target="npopnhAjGusDiyGefJ4p-123">
          <mxGeometry width="50" height="50" relative="1" as="geometry">
            <mxPoint x="129.7600000000001" y="144" as="sourcePoint" />
            <mxPoint x="156.7600000000001" y="128" as="targetPoint" />
          </mxGeometry>
        </mxCell>
        <mxCell id="npopnhAjGusDiyGefJ4p-128" value="" style="endArrow=none;html=1;rounded=0;entryX=0.037;entryY=0.492;entryDx=0;entryDy=0;fillColor=#FFD966;strokeColor=#FFD966;strokeWidth=3;exitX=0.955;exitY=0.496;exitDx=0;exitDy=0;exitPerimeter=0;entryPerimeter=0;" edge="1" parent="npopnhAjGusDiyGefJ4p-115" source="npopnhAjGusDiyGefJ4p-121" target="npopnhAjGusDiyGefJ4p-122">
          <mxGeometry width="50" height="50" relative="1" as="geometry">
            <mxPoint x="149.7600000000001" y="125" as="sourcePoint" />
            <mxPoint x="176.7600000000001" y="109" as="targetPoint" />
          </mxGeometry>
        </mxCell>
        <mxCell id="npopnhAjGusDiyGefJ4p-129" value="" style="endArrow=none;html=1;rounded=0;entryX=0.046;entryY=0.536;entryDx=0;entryDy=0;fillColor=#FFD966;strokeColor=#FFD966;strokeWidth=3;exitX=0.947;exitY=0.482;exitDx=0;exitDy=0;exitPerimeter=0;entryPerimeter=0;" edge="1" parent="npopnhAjGusDiyGefJ4p-115" source="npopnhAjGusDiyGefJ4p-119" target="npopnhAjGusDiyGefJ4p-123">
          <mxGeometry width="50" height="50" relative="1" as="geometry">
            <mxPoint x="159.7600000000001" y="135" as="sourcePoint" />
            <mxPoint x="186.7600000000001" y="119" as="targetPoint" />
          </mxGeometry>
        </mxCell>
        <mxCell id="npopnhAjGusDiyGefJ4p-130" value="" style="shape=image;verticalLabelPosition=bottom;labelBackgroundColor=default;verticalAlign=top;aspect=fixed;imageAspect=0;editableCssRules=.*;image=data:image/svg+xml,PHN2ZyB4bWxuczp4bGluaz0iaHR0cDovL3d3dy53My5vcmcvMTk5OS94bGluayIgeG1sbnM9Imh0dHA6Ly93d3cudzMub3JnLzIwMDAvc3ZnIiBoZWlnaHQ9IjIwMC4wMTI3NTUzOTM5ODE5MyIgd2lkdGg9IjE4Ni42NjY2NTU1NDA0NjYzIiB2ZXJzaW9uPSIxLjEiIHZpZXdCb3g9IjMzLjY4OTU3NTE5NTMxMjUgMC4wMDI1NzY0MDE5MjI4NTE4MDEgOTU1LjczMzI3NjM2NzE4NzUgMTAyNC4wNjUzMDc2MTcxODc1IiBjbGFzcz0iaWNvbiI+PHBhdGggZmlsbD0iI0ZGRDk2NiIgZD0iTTYxMy41NDY2NjcgMTAxOS4yMjEzMzNsLTguMTkyIDAuODE5MiA4LjE5Mi0wLjgxOTJ6TTU3MS40MjYxMzMgMTAyMi4yMjUwNjdjLTQuNDM3MzMzIDAuMjA0OC04Ljk0MjkzMyAwLjYxNDQtMTMuMzgwMjY2IDAuNzUwOTMzbDEzLjM4MDI2Ni0wLjc1MDkzM3pNNDY1LjA2NjY2NyAxMDIyLjk3NmwtMTMuMzgwMjY3LTAuNzUwOTMzIDEzLjM4MDI2NyAwLjc1MDkzM3pNNDE3Ljc1Nzg2NyAxMDE5Ljk3MjI2N2wtOC4xOTItMC44MTkyYzIuNzMwNjY3IDAuMzQxMzMzIDUuMzkzMDY3IDAuNjE0NCA4LjE5MiAwLjgxOTJ6TTQwOS45MDcyIDQuNzc4NjY3bDcuNzE0MTMzLTAuNzUwOTM0YTI2OC41NjEwNjcgMjY4LjU2MTA2NyAwIDAgMC03LjcxNDEzMyAwLjc1MDkzNHpNNTU4LjA0NTg2NyAxLjAyNGwxMy4xNzU0NjYgMC43NTA5MzNjLTQuMzY5MDY3LTAuMjczMDY3LTguNzM4MTMzLTAuNjE0NC0xMy4xNzU0NjYtMC43NTA5MzN6TTYwNS40OTEyIDQuMDI3NzMzbDcuNzE0MTMzIDAuNzUwOTM0YTI2OC41NjEwNjcgMjY4LjU2MTA2NyAwIDAgMC03LjcxNDEzMy0wLjc1MDkzNHpNNDUxLjg5MTIgMS43NzQ5MzNsMTMuMTc1NDY3LTAuNzUwOTMzYy00LjQzNzMzMyAwLjEzNjUzMy04LjgwNjQgMC40Nzc4NjctMTMuMTc1NDY3IDAuNzUwOTMzeiIvPjxwYXRoIGZpbGw9IiNGRkQ5NjYiIGQ9Ik02MTMuMjA1MzMzIDQuNzc4NjY3bC03LjcxNDEzMy0wLjc1MDkzNGExMTM5LjM3MDY2NyAxMTM5LjM3MDY2NyAwIDAgMC0zNC4yNjk4NjctMi4yNTI4bC0xMy4xNzU0NjYtMC43NTA5MzNhMTA1OC41NDI5MzMgMTA1OC41NDI5MzMgMCAwIDAtOTIuOTc5MiAwbC0xMy4xNzU0NjcgMC43NTA5MzNhMTEzOS4zNzA2NjcgMTEzOS4zNzA2NjcgMCAwIDAtMzQuMjY5ODY3IDIuMjUyOGwtNy43MTQxMzMgMC43NTA5MzRjLTE5Ni42NzYyNjcgMTcuNzQ5MzMzLTM3Ni4yMTc2IDg2LjQ5Mzg2Ny0zNzYuMjE3NiAyMDAuMDIxMzMzdjYxNC40YzAgMTEzLjQ1OTIgMTc5LjMzNjUzMyAxODIuMjAzNzMzIDM3NS44NzYyNjcgMjAwLjAyMTMzM2w4LjE5MiAwLjgxOTJjMTEuMjY0IDAuOTU1NzMzIDIyLjU5NjI2NyAxLjYzODQgMzMuOTI4NTMzIDIuMjUyOCA0LjQzNzMzMyAwLjIwNDggOC45NDI5MzMgMC42MTQ0IDEzLjM4MDI2NyAwLjc1MDkzNGExMDU2LjIyMTg2NyAxMDU2LjIyMTg2NyAwIDAgMCA5Mi45NzkyIDBsMTMuMzgwMjY2LTAuNzUwOTM0YzExLjMzMjI2Ny0wLjYxNDQgMjIuNjY0NTMzLTEuMjk3MDY3IDMzLjkyODUzNC0yLjI1MjhsOC4xOTItMC44MTkyYzE5Ni41Mzk3MzMtMTcuNzQ5MzMzIDM3NS44NzYyNjctODYuNDkzODY3IDM3NS44NzYyNjYtMjAwLjAyMTMzM3YtNjE0LjRjMC0xMTMuNTk1NzMzLTE3OS41NDEzMzMtMTgyLjM0MDI2Ny0zNzYuMjE3Ni0yMDAuMDIxMzMzek01MTEuNTU2MjY3IDQwOS42YzE1Ny4wMTMzMzMgMCAzMjAuMzc1NDY3LTMzLjA0MTA2NyA0MDkuNi05NS43MDk4NjdWNDA5LjZjMCAxNi4xNzkyLTEzLjg1ODEzMyAzNC4xMzMzMzMtMzcuNjgzMiA1MS42MDk2IDEuNTcwMTMzLTUuNzM0NCAzLjU0OTg2Ny0xMS4yNjQgMy41NDk4NjYtMTcuNDc2MjY3YTY4LjI2NjY2NyA2OC4yNjY2NjcgMCAwIDAtMTM2LjUzMzMzMyAwYzAgMjcuNzE2MjY3IDE2LjY1NzA2NyA1MS40MDQ4IDQwLjQxMzg2NyA2Mi4wNTQ0LTY5LjQ5NTQ2NyAyMy40MTU0NjctMTYzLjU2NjkzMyA0MC4zNDU2LTI3OS4zNDcyIDQwLjM0NTYtMjUzLjc0NzIgMC00MDkuNi03OS41MzA2NjctNDA5LjYtMTM2LjUzMzMzM3YtOTUuNzA5ODY3Yzg5LjIyNDUzMyA2Mi42Njg4IDI1Mi41ODY2NjcgOTUuNzA5ODY3IDQwOS42IDk1LjcwOTg2N3ogbTM3MS45MTY4IDI1Ni40MDk2YzEuNTcwMTMzLTUuNzM0NCAzLjU0OTg2Ny0xMS4yNjQgMy41NDk4NjYtMTcuNDc2MjY3YTY4LjI2NjY2NyA2OC4yNjY2NjcgMCAwIDAtMTM2LjUzMzMzMyAwYzAgMjcuNzE2MjY3IDE2LjY1NzA2NyA1MS40MDQ4IDQwLjQxMzg2NyA2Mi4wNTQ0LTY5LjQ5NTQ2NyAyMy40MTU0NjctMTYzLjU2NjkzMyA0MC4zNDU2LTI3OS4zNDcyIDQwLjM0NTYtMjUzLjc0NzIgMC00MDkuNi03OS41MzA2NjctNDA5LjYtMTM2LjUzMzMzM3YtOTUuNzA5ODY3Yzg5LjIyNDUzMyA2Mi42Njg4IDI1Mi41ODY2NjcgOTUuNzA5ODY3IDQwOS42IDk1LjcwOTg2N3MzMjAuMzc1NDY3LTMzLjA0MTA2NyA0MDkuNi05NS43MDk4NjdWNjE0LjRjMCAxNi4xNzkyLTEzLjg1ODEzMyAzNC4xMzMzMzMtMzcuNjgzMiA1MS42MDk2eiBtMCAyMDQuOGMxLjU3MDEzMy01LjczNDQgMy41NDk4NjctMTEuMjY0IDMuNTQ5ODY2LTE3LjQ3NjI2N2E2OC4yNjY2NjcgNjguMjY2NjY3IDAgMCAwLTEzNi41MzMzMzMgMGMwIDI3LjcxNjI2NyAxNi42NTcwNjcgNTEuNDA0OCA0MC40MTM4NjcgNjIuMDU0NC02OS40OTU0NjcgMjMuNDE1NDY3LTE2My41NjY5MzMgNDAuMzQ1Ni0yNzkuMzQ3MiA0MC4zNDU2LTI1My43NDcyIDAtNDA5LjYtNzkuNTMwNjY3LTQwOS42LTEzNi41MzMzMzNWNzIzLjQ5MDEzM2M4OS4yMjQ1MzMgNjIuNjY4OCAyNTIuNTg2NjY3IDk1LjcwOTg2NyA0MDkuNiA5NS43MDk4NjdzMzIwLjM3NTQ2Ny0zMy4wNDEwNjcgNDA5LjYtOTUuNzA5ODY3VjgxOS4yYzAgMTYuMTc5Mi0xMy44NTgxMzMgMzQuMTMzMzMzLTM3LjY4MzIgNTEuNjA5NnpNNTExLjU1NjI2NyAzNDEuMzMzMzMzYy0yNTMuNzQ3MiAwLTQwOS42LTc5LjUzMDY2Ny00MDkuNi0xMzYuNTMzMzMzczE1NS44NTI4LTEzNi41MzMzMzMgNDA5LjYtMTM2LjUzMzMzM2MyNTMuODE1NDY3IDAgNDA5LjYgNzkuNTMwNjY3IDQwOS42IDEzNi41MzMzMzNzLTE1NS43ODQ1MzMgMTM2LjUzMzMzMy00MDkuNiAxMzYuNTMzMzMzeiIvPjwvc3ZnPg==;container=0;" vertex="1" parent="npopnhAjGusDiyGefJ4p-115">
          <mxGeometry x="100.75555555555582" y="211.9955555555557" width="93.5" height="100" as="geometry" />
        </mxCell>
        <mxCell id="npopnhAjGusDiyGefJ4p-148" value="" style="ellipse;whiteSpace=wrap;html=1;strokeColor=#CCCCCC;fillColor=#E6E6E6;opacity=50;container=0;" vertex="1" parent="1">
          <mxGeometry x="413.75" y="-1470" width="471" height="368" as="geometry" />
        </mxCell>
        <mxCell id="npopnhAjGusDiyGefJ4p-149" value="" style="shape=image;verticalLabelPosition=bottom;labelBackgroundColor=default;verticalAlign=top;aspect=fixed;imageAspect=0;editableCssRules=.*;image=data:image/svg+xml,PHN2ZyB4bWxuczp4bGluaz0iaHR0cDovL3d3dy53My5vcmcvMTk5OS94bGluayIgeG1sbnM9Imh0dHA6Ly93d3cudzMub3JnLzIwMDAvc3ZnIiBoZWlnaHQ9IjE1OC4zMzMzMzczMDY5NzYzMiIgd2lkdGg9IjE2Ni42NTgzNDE4ODQ2MTMwNCIgdmVyc2lvbj0iMS4xIiB2aWV3Qm94PSI4NS4zMzMzMzU4NzY0NjQ4NCAxMjggODUzLjI5MDcxMDQ0OTIxODggODEwLjY2NjY4NzAxMTcxODgiIGNsYXNzPSJpY29uIj48cGF0aCBmaWxsPSIjMmMyYzJjIiBkPSJNMjg4IDkzOC42NjY2NjdhMzIgMzIgMCAwIDEtNC4zNTItNjMuNzAxMzM0bDQuMzUyLTAuMjk4NjY2aDc0LjYyNHYtMTA2LjU4MTMzNEgxODEuMzMzMzMzYTk2IDk2IDAgMCAxLTk1Ljc4NjY2Ni04OS40MjkzMzNMODUuMzMzMzMzIDY3Mi4wODUzMzNWMjI0YTk2IDk2IDAgMCAxIDg5LjQyOTMzNC05NS43ODY2NjdMMTgxLjMzMzMzMyAxMjhoNjYxLjI5MDY2N2E5NiA5NiAwIDAgMSA5NS43ODY2NjcgODkuNDI5MzMzbDAuMjEzMzMzIDYuNTcwNjY3djQ0OC4wODUzMzNhOTYgOTYgMCAwIDEtODkuNDI5MzMzIDk1Ljc4NjY2N2wtNi41NzA2NjcgMC4yMTMzMzNoLTE4MS4zMzMzMzNWODc0LjY2NjY2N2g3NC43MDkzMzNhMzIgMzIgMCAwIDEgNC4zNTIgNjMuNzAxMzMzTDczNiA5MzguNjY2NjY3SDI4OHogbTMwOS4yNDgtMTcwLjU4MTMzNGgtMTcwLjY2NjY2N2wwLjA0MjY2NyAxMDYuNTgxMzM0aDE3MC42NjY2NjdsLTAuMDQyNjY3LTEwNi41ODEzMzR6TTg0Mi41ODEzMzMgMTkySDE4MS4zMzMzMzNhMzIgMzIgMCAwIDAtMzEuNzAxMzMzIDI3LjY0OEwxNDkuMzMzMzMzIDIyNHY0NDguMDg1MzMzYzAgMTYuMjEzMzMzIDEyLjAzMiAyOS41NjggMjcuNjQ4IDMxLjcwMTMzNGw0LjM1MiAwLjI5ODY2Nmg2NjEuMjkwNjY3YTMyIDMyIDAgMCAwIDMxLjcwMTMzMy0yNy42NDhsMC4yOTg2NjctNC4zNTJWMjI0YTMyIDMyIDAgMCAwLTI3LjY0OC0zMS43NDRsLTQuMzUyLTAuMjU2eiIvPjwvc3ZnPg==;container=0;" vertex="1" parent="1">
          <mxGeometry x="638.25" y="-1317" width="182.84" height="173" as="geometry" />
        </mxCell>
        <mxCell id="npopnhAjGusDiyGefJ4p-150" value="" style="curved=1;endArrow=classic;html=1;rounded=0;strokeColor=#CC99FF;strokeWidth=3;fillColor=#CC99FF;" edge="1" parent="1">
          <mxGeometry width="50" height="50" relative="1" as="geometry">
            <mxPoint x="489.25" y="-1241" as="sourcePoint" />
            <mxPoint x="498.25" y="-1336" as="targetPoint" />
            <Array as="points">
              <mxPoint x="417.25" y="-1291" />
            </Array>
          </mxGeometry>
        </mxCell>
        <mxCell id="npopnhAjGusDiyGefJ4p-151" value="" style="ellipse;whiteSpace=wrap;html=1;aspect=fixed;fillColor=#CC99FF;strokeColor=#CC99FF;container=0;" vertex="1" parent="1">
          <mxGeometry x="518.01" y="-1418" width="30" height="30" as="geometry" />
        </mxCell>
        <mxCell id="npopnhAjGusDiyGefJ4p-152" value="" style="ellipse;whiteSpace=wrap;html=1;aspect=fixed;fillColor=#CC99FF;strokeColor=#CC99FF;container=0;" vertex="1" parent="1">
          <mxGeometry x="518.01" y="-1378" width="30" height="30" as="geometry" />
        </mxCell>
        <mxCell id="npopnhAjGusDiyGefJ4p-153" value="" style="ellipse;whiteSpace=wrap;html=1;aspect=fixed;fillColor=#CC99FF;strokeColor=#CC99FF;container=0;" vertex="1" parent="1">
          <mxGeometry x="518.01" y="-1338" width="30" height="30" as="geometry" />
        </mxCell>
        <mxCell id="npopnhAjGusDiyGefJ4p-154" value="" style="ellipse;whiteSpace=wrap;html=1;aspect=fixed;fillColor=#CC99FF;strokeColor=#CC99FF;container=0;" vertex="1" parent="1">
          <mxGeometry x="574.01" y="-1394" width="30" height="30" as="geometry" />
        </mxCell>
        <mxCell id="npopnhAjGusDiyGefJ4p-155" value="" style="ellipse;whiteSpace=wrap;html=1;aspect=fixed;fillColor=#CC99FF;strokeColor=#CC99FF;container=0;" vertex="1" parent="1">
          <mxGeometry x="574.01" y="-1358" width="30" height="30" as="geometry" />
        </mxCell>
        <mxCell id="npopnhAjGusDiyGefJ4p-156" value="" style="endArrow=none;html=1;rounded=0;exitX=0.933;exitY=0.46;exitDx=0;exitDy=0;exitPerimeter=0;entryX=0.037;entryY=0.501;entryDx=0;entryDy=0;entryPerimeter=0;fillColor=#CC99FF;strokeColor=#CC99FF;strokeWidth=3;" edge="1" parent="1" source="npopnhAjGusDiyGefJ4p-151" target="npopnhAjGusDiyGefJ4p-154">
          <mxGeometry width="50" height="50" relative="1" as="geometry">
            <mxPoint x="581.01" y="-1414" as="sourcePoint" />
            <mxPoint x="631.01" y="-1464" as="targetPoint" />
          </mxGeometry>
        </mxCell>
        <mxCell id="npopnhAjGusDiyGefJ4p-157" value="" style="endArrow=none;html=1;rounded=0;exitX=0.955;exitY=0.522;exitDx=0;exitDy=0;exitPerimeter=0;entryX=0.037;entryY=0.536;entryDx=0;entryDy=0;entryPerimeter=0;fillColor=#CC99FF;strokeColor=#CC99FF;strokeWidth=3;" edge="1" parent="1" source="npopnhAjGusDiyGefJ4p-152" target="npopnhAjGusDiyGefJ4p-155">
          <mxGeometry width="50" height="50" relative="1" as="geometry">
            <mxPoint x="544.01" y="-1362" as="sourcePoint" />
            <mxPoint x="574.01" y="-1346" as="targetPoint" />
          </mxGeometry>
        </mxCell>
        <mxCell id="npopnhAjGusDiyGefJ4p-158" value="" style="endArrow=none;html=1;rounded=0;entryX=0;entryY=0.5;entryDx=0;entryDy=0;fillColor=#CC99FF;strokeColor=#CC99FF;strokeWidth=3;exitX=0.955;exitY=0.496;exitDx=0;exitDy=0;exitPerimeter=0;" edge="1" parent="1" source="npopnhAjGusDiyGefJ4p-152" target="npopnhAjGusDiyGefJ4p-154">
          <mxGeometry width="50" height="50" relative="1" as="geometry">
            <mxPoint x="547.01" y="-1361" as="sourcePoint" />
            <mxPoint x="596.01" y="-1364" as="targetPoint" />
          </mxGeometry>
        </mxCell>
        <mxCell id="npopnhAjGusDiyGefJ4p-159" value="" style="endArrow=none;html=1;rounded=0;entryX=0.051;entryY=0.545;entryDx=0;entryDy=0;fillColor=#CC99FF;strokeColor=#CC99FF;strokeWidth=3;exitX=0.947;exitY=0.513;exitDx=0;exitDy=0;exitPerimeter=0;entryPerimeter=0;" edge="1" parent="1" source="npopnhAjGusDiyGefJ4p-153" target="npopnhAjGusDiyGefJ4p-155">
          <mxGeometry width="50" height="50" relative="1" as="geometry">
            <mxPoint x="547.01" y="-1324" as="sourcePoint" />
            <mxPoint x="574.01" y="-1340" as="targetPoint" />
          </mxGeometry>
        </mxCell>
        <mxCell id="npopnhAjGusDiyGefJ4p-160" value="" style="endArrow=none;html=1;rounded=0;entryX=0.037;entryY=0.492;entryDx=0;entryDy=0;fillColor=#CC99FF;strokeColor=#CC99FF;strokeWidth=3;exitX=0.955;exitY=0.496;exitDx=0;exitDy=0;exitPerimeter=0;entryPerimeter=0;" edge="1" parent="1" source="npopnhAjGusDiyGefJ4p-153" target="npopnhAjGusDiyGefJ4p-154">
          <mxGeometry width="50" height="50" relative="1" as="geometry">
            <mxPoint x="567.01" y="-1343" as="sourcePoint" />
            <mxPoint x="594.01" y="-1359" as="targetPoint" />
          </mxGeometry>
        </mxCell>
        <mxCell id="npopnhAjGusDiyGefJ4p-161" value="" style="endArrow=none;html=1;rounded=0;entryX=0.046;entryY=0.536;entryDx=0;entryDy=0;fillColor=#CC99FF;strokeColor=#CC99FF;strokeWidth=3;exitX=0.947;exitY=0.482;exitDx=0;exitDy=0;exitPerimeter=0;entryPerimeter=0;" edge="1" parent="1" source="npopnhAjGusDiyGefJ4p-151" target="npopnhAjGusDiyGefJ4p-155">
          <mxGeometry width="50" height="50" relative="1" as="geometry">
            <mxPoint x="577.01" y="-1333" as="sourcePoint" />
            <mxPoint x="604.01" y="-1349" as="targetPoint" />
          </mxGeometry>
        </mxCell>
        <mxCell id="npopnhAjGusDiyGefJ4p-162" value="" style="shape=image;verticalLabelPosition=bottom;labelBackgroundColor=default;verticalAlign=top;aspect=fixed;imageAspect=0;editableCssRules=.*;image=data:image/svg+xml,PHN2ZyB4bWxuczp4bGluaz0iaHR0cDovL3d3dy53My5vcmcvMTk5OS94bGluayIgeG1sbnM9Imh0dHA6Ly93d3cudzMub3JnLzIwMDAvc3ZnIiBoZWlnaHQ9IjIwMC4wMTI3NTUzOTM5ODE5MyIgd2lkdGg9IjE4Ni42NjY2NTU1NDA0NjYzIiB2ZXJzaW9uPSIxLjEiIHZpZXdCb3g9IjMzLjY4OTU3NTE5NTMxMjUgMC4wMDI1NzY0MDE5MjI4NTE4MDEgOTU1LjczMzI3NjM2NzE4NzUgMTAyNC4wNjUzMDc2MTcxODc1IiBjbGFzcz0iaWNvbiI+PHBhdGggZmlsbD0iI0NDOTlGRiIgZD0iTTYxMy41NDY2NjcgMTAxOS4yMjEzMzNsLTguMTkyIDAuODE5MiA4LjE5Mi0wLjgxOTJ6TTU3MS40MjYxMzMgMTAyMi4yMjUwNjdjLTQuNDM3MzMzIDAuMjA0OC04Ljk0MjkzMyAwLjYxNDQtMTMuMzgwMjY2IDAuNzUwOTMzbDEzLjM4MDI2Ni0wLjc1MDkzM3pNNDY1LjA2NjY2NyAxMDIyLjk3NmwtMTMuMzgwMjY3LTAuNzUwOTMzIDEzLjM4MDI2NyAwLjc1MDkzM3pNNDE3Ljc1Nzg2NyAxMDE5Ljk3MjI2N2wtOC4xOTItMC44MTkyYzIuNzMwNjY3IDAuMzQxMzMzIDUuMzkzMDY3IDAuNjE0NCA4LjE5MiAwLjgxOTJ6TTQwOS45MDcyIDQuNzc4NjY3bDcuNzE0MTMzLTAuNzUwOTM0YTI2OC41NjEwNjcgMjY4LjU2MTA2NyAwIDAgMC03LjcxNDEzMyAwLjc1MDkzNHpNNTU4LjA0NTg2NyAxLjAyNGwxMy4xNzU0NjYgMC43NTA5MzNjLTQuMzY5MDY3LTAuMjczMDY3LTguNzM4MTMzLTAuNjE0NC0xMy4xNzU0NjYtMC43NTA5MzN6TTYwNS40OTEyIDQuMDI3NzMzbDcuNzE0MTMzIDAuNzUwOTM0YTI2OC41NjEwNjcgMjY4LjU2MTA2NyAwIDAgMC03LjcxNDEzMy0wLjc1MDkzNHpNNDUxLjg5MTIgMS43NzQ5MzNsMTMuMTc1NDY3LTAuNzUwOTMzYy00LjQzNzMzMyAwLjEzNjUzMy04LjgwNjQgMC40Nzc4NjctMTMuMTc1NDY3IDAuNzUwOTMzeiIvPjxwYXRoIGZpbGw9IiNDQzk5RkYiIGQ9Ik02MTMuMjA1MzMzIDQuNzc4NjY3bC03LjcxNDEzMy0wLjc1MDkzNGExMTM5LjM3MDY2NyAxMTM5LjM3MDY2NyAwIDAgMC0zNC4yNjk4NjctMi4yNTI4bC0xMy4xNzU0NjYtMC43NTA5MzNhMTA1OC41NDI5MzMgMTA1OC41NDI5MzMgMCAwIDAtOTIuOTc5MiAwbC0xMy4xNzU0NjcgMC43NTA5MzNhMTEzOS4zNzA2NjcgMTEzOS4zNzA2NjcgMCAwIDAtMzQuMjY5ODY3IDIuMjUyOGwtNy43MTQxMzMgMC43NTA5MzRjLTE5Ni42NzYyNjcgMTcuNzQ5MzMzLTM3Ni4yMTc2IDg2LjQ5Mzg2Ny0zNzYuMjE3NiAyMDAuMDIxMzMzdjYxNC40YzAgMTEzLjQ1OTIgMTc5LjMzNjUzMyAxODIuMjAzNzMzIDM3NS44NzYyNjcgMjAwLjAyMTMzM2w4LjE5MiAwLjgxOTJjMTEuMjY0IDAuOTU1NzMzIDIyLjU5NjI2NyAxLjYzODQgMzMuOTI4NTMzIDIuMjUyOCA0LjQzNzMzMyAwLjIwNDggOC45NDI5MzMgMC42MTQ0IDEzLjM4MDI2NyAwLjc1MDkzNGExMDU2LjIyMTg2NyAxMDU2LjIyMTg2NyAwIDAgMCA5Mi45NzkyIDBsMTMuMzgwMjY2LTAuNzUwOTM0YzExLjMzMjI2Ny0wLjYxNDQgMjIuNjY0NTMzLTEuMjk3MDY3IDMzLjkyODUzNC0yLjI1MjhsOC4xOTItMC44MTkyYzE5Ni41Mzk3MzMtMTcuNzQ5MzMzIDM3NS44NzYyNjctODYuNDkzODY3IDM3NS44NzYyNjYtMjAwLjAyMTMzM3YtNjE0LjRjMC0xMTMuNTk1NzMzLTE3OS41NDEzMzMtMTgyLjM0MDI2Ny0zNzYuMjE3Ni0yMDAuMDIxMzMzek01MTEuNTU2MjY3IDQwOS42YzE1Ny4wMTMzMzMgMCAzMjAuMzc1NDY3LTMzLjA0MTA2NyA0MDkuNi05NS43MDk4NjdWNDA5LjZjMCAxNi4xNzkyLTEzLjg1ODEzMyAzNC4xMzMzMzMtMzcuNjgzMiA1MS42MDk2IDEuNTcwMTMzLTUuNzM0NCAzLjU0OTg2Ny0xMS4yNjQgMy41NDk4NjYtMTcuNDc2MjY3YTY4LjI2NjY2NyA2OC4yNjY2NjcgMCAwIDAtMTM2LjUzMzMzMyAwYzAgMjcuNzE2MjY3IDE2LjY1NzA2NyA1MS40MDQ4IDQwLjQxMzg2NyA2Mi4wNTQ0LTY5LjQ5NTQ2NyAyMy40MTU0NjctMTYzLjU2NjkzMyA0MC4zNDU2LTI3OS4zNDcyIDQwLjM0NTYtMjUzLjc0NzIgMC00MDkuNi03OS41MzA2NjctNDA5LjYtMTM2LjUzMzMzM3YtOTUuNzA5ODY3Yzg5LjIyNDUzMyA2Mi42Njg4IDI1Mi41ODY2NjcgOTUuNzA5ODY3IDQwOS42IDk1LjcwOTg2N3ogbTM3MS45MTY4IDI1Ni40MDk2YzEuNTcwMTMzLTUuNzM0NCAzLjU0OTg2Ny0xMS4yNjQgMy41NDk4NjYtMTcuNDc2MjY3YTY4LjI2NjY2NyA2OC4yNjY2NjcgMCAwIDAtMTM2LjUzMzMzMyAwYzAgMjcuNzE2MjY3IDE2LjY1NzA2NyA1MS40MDQ4IDQwLjQxMzg2NyA2Mi4wNTQ0LTY5LjQ5NTQ2NyAyMy40MTU0NjctMTYzLjU2NjkzMyA0MC4zNDU2LTI3OS4zNDcyIDQwLjM0NTYtMjUzLjc0NzIgMC00MDkuNi03OS41MzA2NjctNDA5LjYtMTM2LjUzMzMzM3YtOTUuNzA5ODY3Yzg5LjIyNDUzMyA2Mi42Njg4IDI1Mi41ODY2NjcgOTUuNzA5ODY3IDQwOS42IDk1LjcwOTg2N3MzMjAuMzc1NDY3LTMzLjA0MTA2NyA0MDkuNi05NS43MDk4NjdWNjE0LjRjMCAxNi4xNzkyLTEzLjg1ODEzMyAzNC4xMzMzMzMtMzcuNjgzMiA1MS42MDk2eiBtMCAyMDQuOGMxLjU3MDEzMy01LjczNDQgMy41NDk4NjctMTEuMjY0IDMuNTQ5ODY2LTE3LjQ3NjI2N2E2OC4yNjY2NjcgNjguMjY2NjY3IDAgMCAwLTEzNi41MzMzMzMgMGMwIDI3LjcxNjI2NyAxNi42NTcwNjcgNTEuNDA0OCA0MC40MTM4NjcgNjIuMDU0NC02OS40OTU0NjcgMjMuNDE1NDY3LTE2My41NjY5MzMgNDAuMzQ1Ni0yNzkuMzQ3MiA0MC4zNDU2LTI1My43NDcyIDAtNDA5LjYtNzkuNTMwNjY3LTQwOS42LTEzNi41MzMzMzNWNzIzLjQ5MDEzM2M4OS4yMjQ1MzMgNjIuNjY4OCAyNTIuNTg2NjY3IDk1LjcwOTg2NyA0MDkuNiA5NS43MDk4NjdzMzIwLjM3NTQ2Ny0zMy4wNDEwNjcgNDA5LjYtOTUuNzA5ODY3VjgxOS4yYzAgMTYuMTc5Mi0xMy44NTgxMzMgMzQuMTMzMzMzLTM3LjY4MzIgNTEuNjA5NnpNNTExLjU1NjI2NyAzNDEuMzMzMzMzYy0yNTMuNzQ3MiAwLTQwOS42LTc5LjUzMDY2Ny00MDkuNi0xMzYuNTMzMzMzczE1NS44NTI4LTEzNi41MzMzMzMgNDA5LjYtMTM2LjUzMzMzM2MyNTMuODE1NDY3IDAgNDA5LjYgNzkuNTMwNjY3IDQwOS42IDEzNi41MzMzMzNzLTE1NS43ODQ1MzMgMTM2LjUzMzMzMy00MDkuNiAxMzYuNTMzMzMzeiIvPjwvc3ZnPg==;container=0;" vertex="1" parent="1">
          <mxGeometry x="514.4855555555557" y="-1244.0022222222224" width="93.5" height="100" as="geometry" />
        </mxCell>
        <mxCell id="npopnhAjGusDiyGefJ4p-164" value="" style="shape=image;verticalLabelPosition=bottom;labelBackgroundColor=default;verticalAlign=top;aspect=fixed;imageAspect=0;editableCssRules=.*;image=data:image/svg+xml,PHN2ZyB4bWxuczp4bGluaz0iaHR0cDovL3d3dy53My5vcmcvMTk5OS94bGluayIgeG1sbnM9Imh0dHA6Ly93d3cudzMub3JnLzIwMDAvc3ZnIiBoZWlnaHQ9IjE1OC4zMzMzMzczMDY5NzYzMiIgd2lkdGg9IjE2Ni42NTgzNDE4ODQ2MTMwNCIgdmVyc2lvbj0iMS4xIiB2aWV3Qm94PSI4NS4zMzMzMzU4NzY0NjQ4NCAxMjggODUzLjI5MDcxMDQ0OTIxODggODEwLjY2NjY4NzAxMTcxODgiIGNsYXNzPSJpY29uIj48cGF0aCBmaWxsPSIjMmMyYzJjIiBkPSJNMjg4IDkzOC42NjY2NjdhMzIgMzIgMCAwIDEtNC4zNTItNjMuNzAxMzM0bDQuMzUyLTAuMjk4NjY2aDc0LjYyNHYtMTA2LjU4MTMzNEgxODEuMzMzMzMzYTk2IDk2IDAgMCAxLTk1Ljc4NjY2Ni04OS40MjkzMzNMODUuMzMzMzMzIDY3Mi4wODUzMzNWMjI0YTk2IDk2IDAgMCAxIDg5LjQyOTMzNC05NS43ODY2NjdMMTgxLjMzMzMzMyAxMjhoNjYxLjI5MDY2N2E5NiA5NiAwIDAgMSA5NS43ODY2NjcgODkuNDI5MzMzbDAuMjEzMzMzIDYuNTcwNjY3djQ0OC4wODUzMzNhOTYgOTYgMCAwIDEtODkuNDI5MzMzIDk1Ljc4NjY2N2wtNi41NzA2NjcgMC4yMTMzMzNoLTE4MS4zMzMzMzNWODc0LjY2NjY2N2g3NC43MDkzMzNhMzIgMzIgMCAwIDEgNC4zNTIgNjMuNzAxMzMzTDczNiA5MzguNjY2NjY3SDI4OHogbTMwOS4yNDgtMTcwLjU4MTMzNGgtMTcwLjY2NjY2N2wwLjA0MjY2NyAxMDYuNTgxMzM0aDE3MC42NjY2NjdsLTAuMDQyNjY3LTEwNi41ODEzMzR6TTg0Mi41ODEzMzMgMTkySDE4MS4zMzMzMzNhMzIgMzIgMCAwIDAtMzEuNzAxMzMzIDI3LjY0OEwxNDkuMzMzMzMzIDIyNHY0NDguMDg1MzMzYzAgMTYuMjEzMzMzIDEyLjAzMiAyOS41NjggMjcuNjQ4IDMxLjcwMTMzNGw0LjM1MiAwLjI5ODY2Nmg2NjEuMjkwNjY3YTMyIDMyIDAgMCAwIDMxLjcwMTMzMy0yNy42NDhsMC4yOTg2NjctNC4zNTJWMjI0YTMyIDMyIDAgMCAwLTI3LjY0OC0zMS43NDRsLTQuMzUyLTAuMjU2eiIvPjwvc3ZnPg==;" vertex="1" parent="1">
          <mxGeometry x="-233" y="-1338" width="182.84" height="173" as="geometry" />
        </mxCell>
        <mxCell id="npopnhAjGusDiyGefJ4p-165" value="" style="shape=image;verticalLabelPosition=bottom;labelBackgroundColor=default;verticalAlign=top;aspect=fixed;imageAspect=0;editableCssRules=.*;image=data:image/svg+xml,PHN2ZyB4bWxuczp4bGluaz0iaHR0cDovL3d3dy53My5vcmcvMTk5OS94bGluayIgeG1sbnM9Imh0dHA6Ly93d3cudzMub3JnLzIwMDAvc3ZnIiBoZWlnaHQ9IjIwMC4wMTI3NTUzOTM5ODE5MyIgd2lkdGg9IjE4Ni42NjY2NTU1NDA0NjYzIiB2ZXJzaW9uPSIxLjEiIHZpZXdCb3g9IjMzLjY4OTU3NTE5NTMxMjUgMC4wMDI1NzY0MDE5MjI4NTE4MDEgOTU1LjczMzI3NjM2NzE4NzUgMTAyNC4wNjUzMDc2MTcxODc1IiBjbGFzcz0iaWNvbiI+PHBhdGggZmlsbD0iI0YyRjJGMiIgZD0iTTYxMy41NDY2NjcgMTAxOS4yMjEzMzNsLTguMTkyIDAuODE5MiA4LjE5Mi0wLjgxOTJ6TTU3MS40MjYxMzMgMTAyMi4yMjUwNjdjLTQuNDM3MzMzIDAuMjA0OC04Ljk0MjkzMyAwLjYxNDQtMTMuMzgwMjY2IDAuNzUwOTMzbDEzLjM4MDI2Ni0wLjc1MDkzM3pNNDY1LjA2NjY2NyAxMDIyLjk3NmwtMTMuMzgwMjY3LTAuNzUwOTMzIDEzLjM4MDI2NyAwLjc1MDkzM3pNNDE3Ljc1Nzg2NyAxMDE5Ljk3MjI2N2wtOC4xOTItMC44MTkyYzIuNzMwNjY3IDAuMzQxMzMzIDUuMzkzMDY3IDAuNjE0NCA4LjE5MiAwLjgxOTJ6TTQwOS45MDcyIDQuNzc4NjY3bDcuNzE0MTMzLTAuNzUwOTM0YTI2OC41NjEwNjcgMjY4LjU2MTA2NyAwIDAgMC03LjcxNDEzMyAwLjc1MDkzNHpNNTU4LjA0NTg2NyAxLjAyNGwxMy4xNzU0NjYgMC43NTA5MzNjLTQuMzY5MDY3LTAuMjczMDY3LTguNzM4MTMzLTAuNjE0NC0xMy4xNzU0NjYtMC43NTA5MzN6TTYwNS40OTEyIDQuMDI3NzMzbDcuNzE0MTMzIDAuNzUwOTM0YTI2OC41NjEwNjcgMjY4LjU2MTA2NyAwIDAgMC03LjcxNDEzMy0wLjc1MDkzNHpNNDUxLjg5MTIgMS43NzQ5MzNsMTMuMTc1NDY3LTAuNzUwOTMzYy00LjQzNzMzMyAwLjEzNjUzMy04LjgwNjQgMC40Nzc4NjctMTMuMTc1NDY3IDAuNzUwOTMzeiIvPjxwYXRoIGZpbGw9IiMzNTlFRkYiIGQ9Ik02MTMuMjA1MzMzIDQuNzc4NjY3bC03LjcxNDEzMy0wLjc1MDkzNGExMTM5LjM3MDY2NyAxMTM5LjM3MDY2NyAwIDAgMC0zNC4yNjk4NjctMi4yNTI4bC0xMy4xNzU0NjYtMC43NTA5MzNhMTA1OC41NDI5MzMgMTA1OC41NDI5MzMgMCAwIDAtOTIuOTc5MiAwbC0xMy4xNzU0NjcgMC43NTA5MzNhMTEzOS4zNzA2NjcgMTEzOS4zNzA2NjcgMCAwIDAtMzQuMjY5ODY3IDIuMjUyOGwtNy43MTQxMzMgMC43NTA5MzRjLTE5Ni42NzYyNjcgMTcuNzQ5MzMzLTM3Ni4yMTc2IDg2LjQ5Mzg2Ny0zNzYuMjE3NiAyMDAuMDIxMzMzdjYxNC40YzAgMTEzLjQ1OTIgMTc5LjMzNjUzMyAxODIuMjAzNzMzIDM3NS44NzYyNjcgMjAwLjAyMTMzM2w4LjE5MiAwLjgxOTJjMTEuMjY0IDAuOTU1NzMzIDIyLjU5NjI2NyAxLjYzODQgMzMuOTI4NTMzIDIuMjUyOCA0LjQzNzMzMyAwLjIwNDggOC45NDI5MzMgMC42MTQ0IDEzLjM4MDI2NyAwLjc1MDkzNGExMDU2LjIyMTg2NyAxMDU2LjIyMTg2NyAwIDAgMCA5Mi45NzkyIDBsMTMuMzgwMjY2LTAuNzUwOTM0YzExLjMzMjI2Ny0wLjYxNDQgMjIuNjY0NTMzLTEuMjk3MDY3IDMzLjkyODUzNC0yLjI1MjhsOC4xOTItMC44MTkyYzE5Ni41Mzk3MzMtMTcuNzQ5MzMzIDM3NS44NzYyNjctODYuNDkzODY3IDM3NS44NzYyNjYtMjAwLjAyMTMzM3YtNjE0LjRjMC0xMTMuNTk1NzMzLTE3OS41NDEzMzMtMTgyLjM0MDI2Ny0zNzYuMjE3Ni0yMDAuMDIxMzMzek01MTEuNTU2MjY3IDQwOS42YzE1Ny4wMTMzMzMgMCAzMjAuMzc1NDY3LTMzLjA0MTA2NyA0MDkuNi05NS43MDk4NjdWNDA5LjZjMCAxNi4xNzkyLTEzLjg1ODEzMyAzNC4xMzMzMzMtMzcuNjgzMiA1MS42MDk2IDEuNTcwMTMzLTUuNzM0NCAzLjU0OTg2Ny0xMS4yNjQgMy41NDk4NjYtMTcuNDc2MjY3YTY4LjI2NjY2NyA2OC4yNjY2NjcgMCAwIDAtMTM2LjUzMzMzMyAwYzAgMjcuNzE2MjY3IDE2LjY1NzA2NyA1MS40MDQ4IDQwLjQxMzg2NyA2Mi4wNTQ0LTY5LjQ5NTQ2NyAyMy40MTU0NjctMTYzLjU2NjkzMyA0MC4zNDU2LTI3OS4zNDcyIDQwLjM0NTYtMjUzLjc0NzIgMC00MDkuNi03OS41MzA2NjctNDA5LjYtMTM2LjUzMzMzM3YtOTUuNzA5ODY3Yzg5LjIyNDUzMyA2Mi42Njg4IDI1Mi41ODY2NjcgOTUuNzA5ODY3IDQwOS42IDk1LjcwOTg2N3ogbTM3MS45MTY4IDI1Ni40MDk2YzEuNTcwMTMzLTUuNzM0NCAzLjU0OTg2Ny0xMS4yNjQgMy41NDk4NjYtMTcuNDc2MjY3YTY4LjI2NjY2NyA2OC4yNjY2NjcgMCAwIDAtMTM2LjUzMzMzMyAwYzAgMjcuNzE2MjY3IDE2LjY1NzA2NyA1MS40MDQ4IDQwLjQxMzg2NyA2Mi4wNTQ0LTY5LjQ5NTQ2NyAyMy40MTU0NjctMTYzLjU2NjkzMyA0MC4zNDU2LTI3OS4zNDcyIDQwLjM0NTYtMjUzLjc0NzIgMC00MDkuNi03OS41MzA2NjctNDA5LjYtMTM2LjUzMzMzM3YtOTUuNzA5ODY3Yzg5LjIyNDUzMyA2Mi42Njg4IDI1Mi41ODY2NjcgOTUuNzA5ODY3IDQwOS42IDk1LjcwOTg2N3MzMjAuMzc1NDY3LTMzLjA0MTA2NyA0MDkuNi05NS43MDk4NjdWNjE0LjRjMCAxNi4xNzkyLTEzLjg1ODEzMyAzNC4xMzMzMzMtMzcuNjgzMiA1MS42MDk2eiBtMCAyMDQuOGMxLjU3MDEzMy01LjczNDQgMy41NDk4NjctMTEuMjY0IDMuNTQ5ODY2LTE3LjQ3NjI2N2E2OC4yNjY2NjcgNjguMjY2NjY3IDAgMCAwLTEzNi41MzMzMzMgMGMwIDI3LjcxNjI2NyAxNi42NTcwNjcgNTEuNDA0OCA0MC40MTM4NjcgNjIuMDU0NC02OS40OTU0NjcgMjMuNDE1NDY3LTE2My41NjY5MzMgNDAuMzQ1Ni0yNzkuMzQ3MiA0MC4zNDU2LTI1My43NDcyIDAtNDA5LjYtNzkuNTMwNjY3LTQwOS42LTEzNi41MzMzMzNWNzIzLjQ5MDEzM2M4OS4yMjQ1MzMgNjIuNjY4OCAyNTIuNTg2NjY3IDk1LjcwOTg2NyA0MDkuNiA5NS43MDk4NjdzMzIwLjM3NTQ2Ny0zMy4wNDEwNjcgNDA5LjYtOTUuNzA5ODY3VjgxOS4yYzAgMTYuMTc5Mi0xMy44NTgxMzMgMzQuMTMzMzMzLTM3LjY4MzIgNTEuNjA5NnpNNTExLjU1NjI2NyAzNDEuMzMzMzMzYy0yNTMuNzQ3MiAwLTQwOS42LTc5LjUzMDY2Ny00MDkuNi0xMzYuNTMzMzMzczE1NS44NTI4LTEzNi41MzMzMzMgNDA5LjYtMTM2LjUzMzMzM2MyNTMuODE1NDY3IDAgNDA5LjYgNzkuNTMwNjY3IDQwOS42IDEzNi41MzMzMzNzLTE1NS43ODQ1MzMgMTM2LjUzMzMzMy00MDkuNiAxMzYuNTMzMzMzeiIvPjwvc3ZnPg==;imageBackground=none;" vertex="1" parent="1">
          <mxGeometry x="-366" y="-1265" width="93.51" height="100" as="geometry" />
        </mxCell>
        <mxCell id="npopnhAjGusDiyGefJ4p-166" value="" style="curved=1;endArrow=classic;html=1;rounded=0;strokeColor=#359EFF;strokeWidth=3;" edge="1" parent="1">
          <mxGeometry width="50" height="50" relative="1" as="geometry">
            <mxPoint x="-391" y="-1250" as="sourcePoint" />
            <mxPoint x="-382" y="-1345" as="targetPoint" />
            <Array as="points">
              <mxPoint x="-463" y="-1300" />
            </Array>
          </mxGeometry>
        </mxCell>
        <mxCell id="npopnhAjGusDiyGefJ4p-167" value="" style="group" vertex="1" connectable="0" parent="1">
          <mxGeometry x="-362.24" y="-1427" width="86" height="110" as="geometry" />
        </mxCell>
        <mxCell id="npopnhAjGusDiyGefJ4p-168" value="" style="ellipse;whiteSpace=wrap;html=1;aspect=fixed;fillColor=#359EFF;strokeColor=none;" vertex="1" parent="npopnhAjGusDiyGefJ4p-167">
          <mxGeometry width="30" height="30" as="geometry" />
        </mxCell>
        <mxCell id="npopnhAjGusDiyGefJ4p-169" value="" style="ellipse;whiteSpace=wrap;html=1;aspect=fixed;fillColor=#359EFF;strokeColor=none;" vertex="1" parent="npopnhAjGusDiyGefJ4p-167">
          <mxGeometry y="40" width="30" height="30" as="geometry" />
        </mxCell>
        <mxCell id="npopnhAjGusDiyGefJ4p-170" value="" style="ellipse;whiteSpace=wrap;html=1;aspect=fixed;fillColor=#359EFF;strokeColor=none;" vertex="1" parent="npopnhAjGusDiyGefJ4p-167">
          <mxGeometry y="80" width="30" height="30" as="geometry" />
        </mxCell>
        <mxCell id="npopnhAjGusDiyGefJ4p-171" value="" style="ellipse;whiteSpace=wrap;html=1;aspect=fixed;fillColor=#359EFF;strokeColor=none;" vertex="1" parent="npopnhAjGusDiyGefJ4p-167">
          <mxGeometry x="56" y="24" width="30" height="30" as="geometry" />
        </mxCell>
        <mxCell id="npopnhAjGusDiyGefJ4p-172" value="" style="ellipse;whiteSpace=wrap;html=1;aspect=fixed;fillColor=#359EFF;strokeColor=none;" vertex="1" parent="npopnhAjGusDiyGefJ4p-167">
          <mxGeometry x="56" y="60" width="30" height="30" as="geometry" />
        </mxCell>
        <mxCell id="npopnhAjGusDiyGefJ4p-173" value="" style="endArrow=none;html=1;rounded=0;exitX=0.933;exitY=0.46;exitDx=0;exitDy=0;exitPerimeter=0;entryX=0.037;entryY=0.501;entryDx=0;entryDy=0;entryPerimeter=0;fillColor=#359EFF;strokeColor=#359EFF;strokeWidth=3;" edge="1" parent="npopnhAjGusDiyGefJ4p-167" source="npopnhAjGusDiyGefJ4p-168" target="npopnhAjGusDiyGefJ4p-171">
          <mxGeometry width="50" height="50" relative="1" as="geometry">
            <mxPoint x="63" y="4" as="sourcePoint" />
            <mxPoint x="113" y="-46" as="targetPoint" />
          </mxGeometry>
        </mxCell>
        <mxCell id="npopnhAjGusDiyGefJ4p-174" value="" style="endArrow=none;html=1;rounded=0;exitX=0.955;exitY=0.522;exitDx=0;exitDy=0;exitPerimeter=0;entryX=0.037;entryY=0.536;entryDx=0;entryDy=0;entryPerimeter=0;fillColor=#359EFF;strokeColor=#359EFF;strokeWidth=3;" edge="1" parent="npopnhAjGusDiyGefJ4p-167" source="npopnhAjGusDiyGefJ4p-169" target="npopnhAjGusDiyGefJ4p-172">
          <mxGeometry width="50" height="50" relative="1" as="geometry">
            <mxPoint x="26" y="56" as="sourcePoint" />
            <mxPoint x="56" y="72" as="targetPoint" />
          </mxGeometry>
        </mxCell>
        <mxCell id="npopnhAjGusDiyGefJ4p-175" value="" style="endArrow=none;html=1;rounded=0;entryX=0;entryY=0.5;entryDx=0;entryDy=0;fillColor=#359EFF;strokeColor=#359EFF;strokeWidth=3;exitX=0.955;exitY=0.496;exitDx=0;exitDy=0;exitPerimeter=0;" edge="1" parent="npopnhAjGusDiyGefJ4p-167" source="npopnhAjGusDiyGefJ4p-169" target="npopnhAjGusDiyGefJ4p-171">
          <mxGeometry width="50" height="50" relative="1" as="geometry">
            <mxPoint x="29" y="57" as="sourcePoint" />
            <mxPoint x="78" y="54" as="targetPoint" />
          </mxGeometry>
        </mxCell>
        <mxCell id="npopnhAjGusDiyGefJ4p-176" value="" style="endArrow=none;html=1;rounded=0;entryX=0.051;entryY=0.545;entryDx=0;entryDy=0;fillColor=#359EFF;strokeColor=#359EFF;strokeWidth=3;exitX=0.947;exitY=0.513;exitDx=0;exitDy=0;exitPerimeter=0;entryPerimeter=0;" edge="1" parent="npopnhAjGusDiyGefJ4p-167" source="npopnhAjGusDiyGefJ4p-170" target="npopnhAjGusDiyGefJ4p-172">
          <mxGeometry width="50" height="50" relative="1" as="geometry">
            <mxPoint x="29" y="94" as="sourcePoint" />
            <mxPoint x="56" y="78" as="targetPoint" />
          </mxGeometry>
        </mxCell>
        <mxCell id="npopnhAjGusDiyGefJ4p-177" value="" style="endArrow=none;html=1;rounded=0;entryX=0.037;entryY=0.492;entryDx=0;entryDy=0;fillColor=#359EFF;strokeColor=#359EFF;strokeWidth=3;exitX=0.955;exitY=0.496;exitDx=0;exitDy=0;exitPerimeter=0;entryPerimeter=0;" edge="1" parent="npopnhAjGusDiyGefJ4p-167" source="npopnhAjGusDiyGefJ4p-170" target="npopnhAjGusDiyGefJ4p-171">
          <mxGeometry width="50" height="50" relative="1" as="geometry">
            <mxPoint x="49" y="75" as="sourcePoint" />
            <mxPoint x="76" y="59" as="targetPoint" />
          </mxGeometry>
        </mxCell>
        <mxCell id="npopnhAjGusDiyGefJ4p-178" value="" style="endArrow=none;html=1;rounded=0;entryX=0.046;entryY=0.536;entryDx=0;entryDy=0;fillColor=#359EFF;strokeColor=#359EFF;strokeWidth=3;exitX=0.947;exitY=0.482;exitDx=0;exitDy=0;exitPerimeter=0;entryPerimeter=0;" edge="1" parent="npopnhAjGusDiyGefJ4p-167" source="npopnhAjGusDiyGefJ4p-168" target="npopnhAjGusDiyGefJ4p-172">
          <mxGeometry width="50" height="50" relative="1" as="geometry">
            <mxPoint x="59" y="85" as="sourcePoint" />
            <mxPoint x="86" y="69" as="targetPoint" />
          </mxGeometry>
        </mxCell>
        <mxCell id="npopnhAjGusDiyGefJ4p-181" value="" style="ellipse;whiteSpace=wrap;html=1;strokeColor=#FF9999;fillColor=#FFCCCC;opacity=50;container=0;" vertex="1" parent="1">
          <mxGeometry x="407.67" y="-2186" width="471" height="368" as="geometry" />
        </mxCell>
        <mxCell id="npopnhAjGusDiyGefJ4p-182" value="" style="shape=image;verticalLabelPosition=bottom;labelBackgroundColor=default;verticalAlign=top;aspect=fixed;imageAspect=0;editableCssRules=.*;image=data:image/svg+xml,PHN2ZyB4bWxuczp4bGluaz0iaHR0cDovL3d3dy53My5vcmcvMTk5OS94bGluayIgeG1sbnM9Imh0dHA6Ly93d3cudzMub3JnLzIwMDAvc3ZnIiBoZWlnaHQ9IjE1OC4zMzMzMzczMDY5NzYzMiIgd2lkdGg9IjE2Ni42NTgzNDE4ODQ2MTMwNCIgdmVyc2lvbj0iMS4xIiB2aWV3Qm94PSI4NS4zMzMzMzU4NzY0NjQ4NCAxMjggODUzLjI5MDcxMDQ0OTIxODggODEwLjY2NjY4NzAxMTcxODgiIGNsYXNzPSJpY29uIj48cGF0aCBmaWxsPSIjRkYzMzMzIiBkPSJNMjg4IDkzOC42NjY2NjdhMzIgMzIgMCAwIDEtNC4zNTItNjMuNzAxMzM0bDQuMzUyLTAuMjk4NjY2aDc0LjYyNHYtMTA2LjU4MTMzNEgxODEuMzMzMzMzYTk2IDk2IDAgMCAxLTk1Ljc4NjY2Ni04OS40MjkzMzNMODUuMzMzMzMzIDY3Mi4wODUzMzNWMjI0YTk2IDk2IDAgMCAxIDg5LjQyOTMzNC05NS43ODY2NjdMMTgxLjMzMzMzMyAxMjhoNjYxLjI5MDY2N2E5NiA5NiAwIDAgMSA5NS43ODY2NjcgODkuNDI5MzMzbDAuMjEzMzMzIDYuNTcwNjY3djQ0OC4wODUzMzNhOTYgOTYgMCAwIDEtODkuNDI5MzMzIDk1Ljc4NjY2N2wtNi41NzA2NjcgMC4yMTMzMzNoLTE4MS4zMzMzMzNWODc0LjY2NjY2N2g3NC43MDkzMzNhMzIgMzIgMCAwIDEgNC4zNTIgNjMuNzAxMzMzTDczNiA5MzguNjY2NjY3SDI4OHogbTMwOS4yNDgtMTcwLjU4MTMzNGgtMTcwLjY2NjY2N2wwLjA0MjY2NyAxMDYuNTgxMzM0aDE3MC42NjY2NjdsLTAuMDQyNjY3LTEwNi41ODEzMzR6TTg0Mi41ODEzMzMgMTkySDE4MS4zMzMzMzNhMzIgMzIgMCAwIDAtMzEuNzAxMzMzIDI3LjY0OEwxNDkuMzMzMzMzIDIyNHY0NDguMDg1MzMzYzAgMTYuMjEzMzMzIDEyLjAzMiAyOS41NjggMjcuNjQ4IDMxLjcwMTMzNGw0LjM1MiAwLjI5ODY2Nmg2NjEuMjkwNjY3YTMyIDMyIDAgMCAwIDMxLjcwMTMzMy0yNy42NDhsMC4yOTg2NjctNC4zNTJWMjI0YTMyIDMyIDAgMCAwLTI3LjY0OC0zMS43NDRsLTQuMzUyLTAuMjU2eiIvPjwvc3ZnPg==;container=0;" vertex="1" parent="1">
          <mxGeometry x="648.66" y="-2042" width="182.85" height="173" as="geometry" />
        </mxCell>
        <mxCell id="npopnhAjGusDiyGefJ4p-183" value="" style="group" vertex="1" connectable="0" parent="1">
          <mxGeometry x="503.66999999999996" y="-2133" width="86" height="110" as="geometry" />
        </mxCell>
        <mxCell id="npopnhAjGusDiyGefJ4p-184" value="" style="ellipse;whiteSpace=wrap;html=1;aspect=fixed;fillColor=#FF3333;strokeColor=#FF3333;container=0;" vertex="1" parent="npopnhAjGusDiyGefJ4p-183">
          <mxGeometry width="30" height="30" as="geometry" />
        </mxCell>
        <mxCell id="npopnhAjGusDiyGefJ4p-185" value="" style="ellipse;whiteSpace=wrap;html=1;aspect=fixed;fillColor=#FF3333;strokeColor=#FF3333;container=0;" vertex="1" parent="npopnhAjGusDiyGefJ4p-183">
          <mxGeometry y="40" width="30" height="30" as="geometry" />
        </mxCell>
        <mxCell id="npopnhAjGusDiyGefJ4p-186" value="" style="ellipse;whiteSpace=wrap;html=1;aspect=fixed;fillColor=#FF3333;strokeColor=#FF3333;container=0;" vertex="1" parent="npopnhAjGusDiyGefJ4p-183">
          <mxGeometry y="80" width="30" height="30" as="geometry" />
        </mxCell>
        <mxCell id="npopnhAjGusDiyGefJ4p-187" value="" style="ellipse;whiteSpace=wrap;html=1;aspect=fixed;fillColor=#FF3333;strokeColor=#FF3333;container=0;" vertex="1" parent="npopnhAjGusDiyGefJ4p-183">
          <mxGeometry x="56" y="24" width="30" height="30" as="geometry" />
        </mxCell>
        <mxCell id="npopnhAjGusDiyGefJ4p-188" value="" style="ellipse;whiteSpace=wrap;html=1;aspect=fixed;fillColor=#FF3333;strokeColor=#FF3333;container=0;" vertex="1" parent="npopnhAjGusDiyGefJ4p-183">
          <mxGeometry x="56" y="60" width="30" height="30" as="geometry" />
        </mxCell>
        <mxCell id="npopnhAjGusDiyGefJ4p-189" value="" style="endArrow=none;html=1;rounded=0;exitX=0.933;exitY=0.46;exitDx=0;exitDy=0;exitPerimeter=0;entryX=0.037;entryY=0.501;entryDx=0;entryDy=0;entryPerimeter=0;fillColor=#FF3333;strokeColor=#FF3333;strokeWidth=3;" edge="1" parent="npopnhAjGusDiyGefJ4p-183" source="npopnhAjGusDiyGefJ4p-184" target="npopnhAjGusDiyGefJ4p-187">
          <mxGeometry width="50" height="50" relative="1" as="geometry">
            <mxPoint x="63" y="4" as="sourcePoint" />
            <mxPoint x="113" y="-46" as="targetPoint" />
          </mxGeometry>
        </mxCell>
        <mxCell id="npopnhAjGusDiyGefJ4p-190" value="" style="endArrow=none;html=1;rounded=0;exitX=0.955;exitY=0.522;exitDx=0;exitDy=0;exitPerimeter=0;entryX=0.037;entryY=0.536;entryDx=0;entryDy=0;entryPerimeter=0;fillColor=#FF3333;strokeColor=#FF3333;strokeWidth=3;" edge="1" parent="npopnhAjGusDiyGefJ4p-183" source="npopnhAjGusDiyGefJ4p-185" target="npopnhAjGusDiyGefJ4p-188">
          <mxGeometry width="50" height="50" relative="1" as="geometry">
            <mxPoint x="26" y="56" as="sourcePoint" />
            <mxPoint x="56" y="72" as="targetPoint" />
          </mxGeometry>
        </mxCell>
        <mxCell id="npopnhAjGusDiyGefJ4p-191" value="" style="endArrow=none;html=1;rounded=0;entryX=0;entryY=0.5;entryDx=0;entryDy=0;fillColor=#FF3333;strokeColor=#FF3333;strokeWidth=3;exitX=0.955;exitY=0.496;exitDx=0;exitDy=0;exitPerimeter=0;" edge="1" parent="npopnhAjGusDiyGefJ4p-183" source="npopnhAjGusDiyGefJ4p-185" target="npopnhAjGusDiyGefJ4p-187">
          <mxGeometry width="50" height="50" relative="1" as="geometry">
            <mxPoint x="29" y="57" as="sourcePoint" />
            <mxPoint x="78" y="54" as="targetPoint" />
          </mxGeometry>
        </mxCell>
        <mxCell id="npopnhAjGusDiyGefJ4p-192" value="" style="endArrow=none;html=1;rounded=0;entryX=0.051;entryY=0.545;entryDx=0;entryDy=0;fillColor=#FF3333;strokeColor=#FF3333;strokeWidth=3;exitX=0.947;exitY=0.513;exitDx=0;exitDy=0;exitPerimeter=0;entryPerimeter=0;" edge="1" parent="npopnhAjGusDiyGefJ4p-183" source="npopnhAjGusDiyGefJ4p-186" target="npopnhAjGusDiyGefJ4p-188">
          <mxGeometry width="50" height="50" relative="1" as="geometry">
            <mxPoint x="29" y="94" as="sourcePoint" />
            <mxPoint x="56" y="78" as="targetPoint" />
          </mxGeometry>
        </mxCell>
        <mxCell id="npopnhAjGusDiyGefJ4p-193" value="" style="endArrow=none;html=1;rounded=0;entryX=0.037;entryY=0.492;entryDx=0;entryDy=0;fillColor=#FF3333;strokeColor=#FF3333;strokeWidth=3;exitX=0.955;exitY=0.496;exitDx=0;exitDy=0;exitPerimeter=0;entryPerimeter=0;" edge="1" parent="npopnhAjGusDiyGefJ4p-183" source="npopnhAjGusDiyGefJ4p-186" target="npopnhAjGusDiyGefJ4p-187">
          <mxGeometry width="50" height="50" relative="1" as="geometry">
            <mxPoint x="49" y="75" as="sourcePoint" />
            <mxPoint x="76" y="59" as="targetPoint" />
          </mxGeometry>
        </mxCell>
        <mxCell id="npopnhAjGusDiyGefJ4p-194" value="" style="endArrow=none;html=1;rounded=0;entryX=0.046;entryY=0.536;entryDx=0;entryDy=0;fillColor=#FF3333;strokeColor=#FF3333;strokeWidth=3;exitX=0.947;exitY=0.482;exitDx=0;exitDy=0;exitPerimeter=0;entryPerimeter=0;" edge="1" parent="npopnhAjGusDiyGefJ4p-183" source="npopnhAjGusDiyGefJ4p-184" target="npopnhAjGusDiyGefJ4p-188">
          <mxGeometry width="50" height="50" relative="1" as="geometry">
            <mxPoint x="59" y="85" as="sourcePoint" />
            <mxPoint x="86" y="69" as="targetPoint" />
          </mxGeometry>
        </mxCell>
        <mxCell id="npopnhAjGusDiyGefJ4p-195" value="" style="shape=image;verticalLabelPosition=bottom;labelBackgroundColor=default;verticalAlign=top;aspect=fixed;imageAspect=0;editableCssRules=.*;image=data:image/svg+xml,PHN2ZyB4bWxuczp4bGluaz0iaHR0cDovL3d3dy53My5vcmcvMTk5OS94bGluayIgeG1sbnM9Imh0dHA6Ly93d3cudzMub3JnLzIwMDAvc3ZnIiBoZWlnaHQ9IjE1MS41ODU2NjIzNjQ5NTk3MiIgd2lkdGg9IjE3NS40Mjk2ODk4ODQxODU4IiB2ZXJzaW9uPSIxLjEiIHZpZXdCb3g9IjYyLjkwMDAwMTUyNTg3ODkwNiAxMjMuOTgxMzc2NjQ3OTQ5MjIgODk4LjIwMDAxMjIwNzAzMTIgNzc2LjExODU5MTMwODU5MzgiIGNsYXNzPSJpY29uIj48cGF0aCBmaWxsPSIjRkYzMzMzIiBkPSJNNzE0LjUgNzAwLjVjMjUuMi02NC45IDg1LjUtOTkuNiA4NS41LTk5LjZsLTExOS45LTcxLjRjNS43LTIwLjYgOC44LTQxLjIgOC44LTYwLjN2LTI0aDczLjNzLTMuMS02Mi42LTY3LjktNjIuNmgtMS45bC00OC45LTIzNC43Yy0zLjEtMTQuOS0yMC4yLTI1LjYtMzguNi0yMy43bC04Ni4zIDE2LjRjLTIuMyAwLjQtNC42IDAuOC02LjUgMC44LTIuMyAwLTQuNi0wLjQtNi41LTAuOGwtODYuMy0xNi40Yy0xOC4zLTEuOS0zNS41IDguOC0zOC42IDIzLjdMMzMxLjEgMzgzYy01OCA1LTY5LjUgNjEuOC02OS41IDYxLjhoNzMuM3YyNC40YzAgMTkuMSAzLjEgMzkuMyA4LjggNTkuOUwyMjQgNjAwLjVzNjAuMyAzNC43IDg1LjUgOTkuNmMwIDAtMTQyIDIyLjEtMTY1LjcgNTAuNC0yMy43IDI4LjYtODAuOSAxNDkuNi04MC45IDE0OS42aDg5OC4ycy01Ni45LTEyMS04MC45LTE0OS42Yy0yMy43LTI3LjktMTY1LjctNTAtMTY1LjctNTB6TTQ5OC40IDQ0NS4xaDE2MC43djI0LjRjMCAxOC43LTMuNCAzOS4zLTkuOSA2MC4zLTcuNiAyNS4yLTE5LjggNTAuOC0zNS4xIDcyLjktMTQuMSAyMC42LTMwLjUgMzcuOC00Ny43IDQ5LjYtMTcuOSAxMi4yLTM2LjYgMTguNy01NC42IDE4LjctMTguMyAwLTM2LjYtNi4xLTU0LjYtMTguNy0xNy4yLTExLjUtMzMuNi0yOC42LTQ3LjctNDkuNi0xNS4zLTIyLjEtMjcuMS00Ny43LTM1LjEtNzIuOS02LjUtMjAuNi05LjktNDEuNi05LjktNjAuM3YtMjQuNGgxMzMuOXoiLz48L3N2Zz4=;" vertex="1" parent="1">
          <mxGeometry x="702.09" y="-2008" width="75.99" height="66" as="geometry" />
        </mxCell>
        <mxCell id="npopnhAjGusDiyGefJ4p-196" value="" style="shape=image;verticalLabelPosition=bottom;labelBackgroundColor=default;verticalAlign=top;aspect=fixed;imageAspect=0;editableCssRules=.*;image=data:image/svg+xml,PHN2ZyB4bWxuczp4bGluaz0iaHR0cDovL3d3dy53My5vcmcvMTk5OS94bGluayIgeG1sbnM9Imh0dHA6Ly93d3cudzMub3JnLzIwMDAvc3ZnIiBoZWlnaHQ9IjIwMC4wMTI3NTUzOTM5ODE5MyIgd2lkdGg9IjE4Ni42NjY2NTU1NDA0NjYzIiB2ZXJzaW9uPSIxLjEiIHZpZXdCb3g9IjMzLjY4OTU3NTE5NTMxMjUgMC4wMDI1NzY0MDE5MjI4NTE4MDEgOTU1LjczMzI3NjM2NzE4NzUgMTAyNC4wNjUzMDc2MTcxODc1IiBjbGFzcz0iaWNvbiI+PHBhdGggZmlsbD0iI0ZGMzMzMyIgZD0iTTYxMy41NDY2NjcgMTAxOS4yMjEzMzNsLTguMTkyIDAuODE5MiA4LjE5Mi0wLjgxOTJ6TTU3MS40MjYxMzMgMTAyMi4yMjUwNjdjLTQuNDM3MzMzIDAuMjA0OC04Ljk0MjkzMyAwLjYxNDQtMTMuMzgwMjY2IDAuNzUwOTMzbDEzLjM4MDI2Ni0wLjc1MDkzM3pNNDY1LjA2NjY2NyAxMDIyLjk3NmwtMTMuMzgwMjY3LTAuNzUwOTMzIDEzLjM4MDI2NyAwLjc1MDkzM3pNNDE3Ljc1Nzg2NyAxMDE5Ljk3MjI2N2wtOC4xOTItMC44MTkyYzIuNzMwNjY3IDAuMzQxMzMzIDUuMzkzMDY3IDAuNjE0NCA4LjE5MiAwLjgxOTJ6TTQwOS45MDcyIDQuNzc4NjY3bDcuNzE0MTMzLTAuNzUwOTM0YTI2OC41NjEwNjcgMjY4LjU2MTA2NyAwIDAgMC03LjcxNDEzMyAwLjc1MDkzNHpNNTU4LjA0NTg2NyAxLjAyNGwxMy4xNzU0NjYgMC43NTA5MzNjLTQuMzY5MDY3LTAuMjczMDY3LTguNzM4MTMzLTAuNjE0NC0xMy4xNzU0NjYtMC43NTA5MzN6TTYwNS40OTEyIDQuMDI3NzMzbDcuNzE0MTMzIDAuNzUwOTM0YTI2OC41NjEwNjcgMjY4LjU2MTA2NyAwIDAgMC03LjcxNDEzMy0wLjc1MDkzNHpNNDUxLjg5MTIgMS43NzQ5MzNsMTMuMTc1NDY3LTAuNzUwOTMzYy00LjQzNzMzMyAwLjEzNjUzMy04LjgwNjQgMC40Nzc4NjctMTMuMTc1NDY3IDAuNzUwOTMzeiIvPjxwYXRoIGZpbGw9IiNGRjMzMzMiIGQ9Ik02MTMuMjA1MzMzIDQuNzc4NjY3bC03LjcxNDEzMy0wLjc1MDkzNGExMTM5LjM3MDY2NyAxMTM5LjM3MDY2NyAwIDAgMC0zNC4yNjk4NjctMi4yNTI4bC0xMy4xNzU0NjYtMC43NTA5MzNhMTA1OC41NDI5MzMgMTA1OC41NDI5MzMgMCAwIDAtOTIuOTc5MiAwbC0xMy4xNzU0NjcgMC43NTA5MzNhMTEzOS4zNzA2NjcgMTEzOS4zNzA2NjcgMCAwIDAtMzQuMjY5ODY3IDIuMjUyOGwtNy43MTQxMzMgMC43NTA5MzRjLTE5Ni42NzYyNjcgMTcuNzQ5MzMzLTM3Ni4yMTc2IDg2LjQ5Mzg2Ny0zNzYuMjE3NiAyMDAuMDIxMzMzdjYxNC40YzAgMTEzLjQ1OTIgMTc5LjMzNjUzMyAxODIuMjAzNzMzIDM3NS44NzYyNjcgMjAwLjAyMTMzM2w4LjE5MiAwLjgxOTJjMTEuMjY0IDAuOTU1NzMzIDIyLjU5NjI2NyAxLjYzODQgMzMuOTI4NTMzIDIuMjUyOCA0LjQzNzMzMyAwLjIwNDggOC45NDI5MzMgMC42MTQ0IDEzLjM4MDI2NyAwLjc1MDkzNGExMDU2LjIyMTg2NyAxMDU2LjIyMTg2NyAwIDAgMCA5Mi45NzkyIDBsMTMuMzgwMjY2LTAuNzUwOTM0YzExLjMzMjI2Ny0wLjYxNDQgMjIuNjY0NTMzLTEuMjk3MDY3IDMzLjkyODUzNC0yLjI1MjhsOC4xOTItMC44MTkyYzE5Ni41Mzk3MzMtMTcuNzQ5MzMzIDM3NS44NzYyNjctODYuNDkzODY3IDM3NS44NzYyNjYtMjAwLjAyMTMzM3YtNjE0LjRjMC0xMTMuNTk1NzMzLTE3OS41NDEzMzMtMTgyLjM0MDI2Ny0zNzYuMjE3Ni0yMDAuMDIxMzMzek01MTEuNTU2MjY3IDQwOS42YzE1Ny4wMTMzMzMgMCAzMjAuMzc1NDY3LTMzLjA0MTA2NyA0MDkuNi05NS43MDk4NjdWNDA5LjZjMCAxNi4xNzkyLTEzLjg1ODEzMyAzNC4xMzMzMzMtMzcuNjgzMiA1MS42MDk2IDEuNTcwMTMzLTUuNzM0NCAzLjU0OTg2Ny0xMS4yNjQgMy41NDk4NjYtMTcuNDc2MjY3YTY4LjI2NjY2NyA2OC4yNjY2NjcgMCAwIDAtMTM2LjUzMzMzMyAwYzAgMjcuNzE2MjY3IDE2LjY1NzA2NyA1MS40MDQ4IDQwLjQxMzg2NyA2Mi4wNTQ0LTY5LjQ5NTQ2NyAyMy40MTU0NjctMTYzLjU2NjkzMyA0MC4zNDU2LTI3OS4zNDcyIDQwLjM0NTYtMjUzLjc0NzIgMC00MDkuNi03OS41MzA2NjctNDA5LjYtMTM2LjUzMzMzM3YtOTUuNzA5ODY3Yzg5LjIyNDUzMyA2Mi42Njg4IDI1Mi41ODY2NjcgOTUuNzA5ODY3IDQwOS42IDk1LjcwOTg2N3ogbTM3MS45MTY4IDI1Ni40MDk2YzEuNTcwMTMzLTUuNzM0NCAzLjU0OTg2Ny0xMS4yNjQgMy41NDk4NjYtMTcuNDc2MjY3YTY4LjI2NjY2NyA2OC4yNjY2NjcgMCAwIDAtMTM2LjUzMzMzMyAwYzAgMjcuNzE2MjY3IDE2LjY1NzA2NyA1MS40MDQ4IDQwLjQxMzg2NyA2Mi4wNTQ0LTY5LjQ5NTQ2NyAyMy40MTU0NjctMTYzLjU2NjkzMyA0MC4zNDU2LTI3OS4zNDcyIDQwLjM0NTYtMjUzLjc0NzIgMC00MDkuNi03OS41MzA2NjctNDA5LjYtMTM2LjUzMzMzM3YtOTUuNzA5ODY3Yzg5LjIyNDUzMyA2Mi42Njg4IDI1Mi41ODY2NjcgOTUuNzA5ODY3IDQwOS42IDk1LjcwOTg2N3MzMjAuMzc1NDY3LTMzLjA0MTA2NyA0MDkuNi05NS43MDk4NjdWNjE0LjRjMCAxNi4xNzkyLTEzLjg1ODEzMyAzNC4xMzMzMzMtMzcuNjgzMiA1MS42MDk2eiBtMCAyMDQuOGMxLjU3MDEzMy01LjczNDQgMy41NDk4NjctMTEuMjY0IDMuNTQ5ODY2LTE3LjQ3NjI2N2E2OC4yNjY2NjcgNjguMjY2NjY3IDAgMCAwLTEzNi41MzMzMzMgMGMwIDI3LjcxNjI2NyAxNi42NTcwNjcgNTEuNDA0OCA0MC40MTM4NjcgNjIuMDU0NC02OS40OTU0NjcgMjMuNDE1NDY3LTE2My41NjY5MzMgNDAuMzQ1Ni0yNzkuMzQ3MiA0MC4zNDU2LTI1My43NDcyIDAtNDA5LjYtNzkuNTMwNjY3LTQwOS42LTEzNi41MzMzMzNWNzIzLjQ5MDEzM2M4OS4yMjQ1MzMgNjIuNjY4OCAyNTIuNTg2NjY3IDk1LjcwOTg2NyA0MDkuNiA5NS43MDk4NjdzMzIwLjM3NTQ2Ny0zMy4wNDEwNjcgNDA5LjYtOTUuNzA5ODY3VjgxOS4yYzAgMTYuMTc5Mi0xMy44NTgxMzMgMzQuMTMzMzMzLTM3LjY4MzIgNTEuNjA5NnpNNTExLjU1NjI2NyAzNDEuMzMzMzMzYy0yNTMuNzQ3MiAwLTQwOS42LTc5LjUzMDY2Ny00MDkuNi0xMzYuNTMzMzMzczE1NS44NTI4LTEzNi41MzMzMzMgNDA5LjYtMTM2LjUzMzMzM2MyNTMuODE1NDY3IDAgNDA5LjYgNzkuNTMwNjY3IDQwOS42IDEzNi41MzMzMzNzLTE1NS43ODQ1MzMgMTM2LjUzMzMzMy00MDkuNiAxMzYuNTMzMzMzeiIvPjwvc3ZnPg==;" vertex="1" parent="1">
          <mxGeometry x="500.42999999999995" y="-1969" width="93.5" height="100" as="geometry" />
        </mxCell>
        <mxCell id="npopnhAjGusDiyGefJ4p-197" value="" style="endArrow=none;html=1;rounded=0;entryX=0;entryY=0;entryDx=0;entryDy=0;exitX=1;exitY=1;exitDx=0;exitDy=0;strokeWidth=5;fillColor=#4D4D4D;strokeColor=#4D4D4D;opacity=70;" edge="1" parent="1" source="npopnhAjGusDiyGefJ4p-181" target="npopnhAjGusDiyGefJ4p-181">
          <mxGeometry width="50" height="50" relative="1" as="geometry">
            <mxPoint x="486.66999999999996" y="-1862" as="sourcePoint" />
            <mxPoint x="819.67" y="-2122" as="targetPoint" />
          </mxGeometry>
        </mxCell>
        <mxCell id="npopnhAjGusDiyGefJ4p-198" value="" style="endArrow=none;html=1;rounded=0;entryX=1;entryY=0;entryDx=0;entryDy=0;exitX=0;exitY=1;exitDx=0;exitDy=0;strokeWidth=5;fillColor=#4D4D4D;strokeColor=#4D4D4D;opacity=70;" edge="1" parent="1" source="npopnhAjGusDiyGefJ4p-181" target="npopnhAjGusDiyGefJ4p-181">
          <mxGeometry width="50" height="50" relative="1" as="geometry">
            <mxPoint x="742.67" y="-1728" as="sourcePoint" />
            <mxPoint x="792.67" y="-1778" as="targetPoint" />
          </mxGeometry>
        </mxCell>
        <mxCell id="npopnhAjGusDiyGefJ4p-199" value="" style="endArrow=classic;html=1;rounded=0;strokeWidth=3;strokeColor=#333333;shape=flexArrow;fillColor=#333333;width=6.538461538461538;endSize=12.084615384615384;" edge="1" parent="1">
          <mxGeometry width="50" height="50" relative="1" as="geometry">
            <mxPoint x="36.75" y="-2008" as="sourcePoint" />
            <mxPoint x="362.75" y="-2008" as="targetPoint" />
          </mxGeometry>
        </mxCell>
        <mxCell id="npopnhAjGusDiyGefJ4p-200" value="" style="endArrow=classic;html=1;rounded=0;strokeWidth=3;strokeColor=#333333;shape=flexArrow;fillColor=#333333;width=6.538461538461538;endSize=12.084615384615384;" edge="1" parent="1">
          <mxGeometry width="50" height="50" relative="1" as="geometry">
            <mxPoint x="-225.25" y="-1781" as="sourcePoint" />
            <mxPoint x="-225.25" y="-1512.75" as="targetPoint" />
          </mxGeometry>
        </mxCell>
        <mxCell id="npopnhAjGusDiyGefJ4p-201" value="" style="endArrow=classic;html=1;rounded=0;strokeWidth=3;strokeColor=#333333;shape=flexArrow;fillColor=#333333;width=6.538461538461538;endSize=12.084615384615384;" edge="1" parent="1">
          <mxGeometry width="50" height="50" relative="1" as="geometry">
            <mxPoint x="340.75" y="-1518" as="sourcePoint" />
            <mxPoint x="43.75" y="-1730" as="targetPoint" />
          </mxGeometry>
        </mxCell>
        <mxCell id="npopnhAjGusDiyGefJ4p-202" value="" style="endArrow=classic;html=1;rounded=0;strokeWidth=3;strokeColor=#333333;shape=flexArrow;fillColor=#333333;width=6.538461538461538;endSize=12.084615384615384;" edge="1" parent="1">
          <mxGeometry width="50" height="50" relative="1" as="geometry">
            <mxPoint x="342.75" y="-1298" as="sourcePoint" />
            <mxPoint x="38.75" y="-1298" as="targetPoint" />
          </mxGeometry>
        </mxCell>
        <mxCell id="npopnhAjGusDiyGefJ4p-203" value="" style="endArrow=classic;html=1;rounded=0;strokeWidth=3;strokeColor=#333333;shape=flexArrow;fillColor=#333333;width=6.538461538461538;endSize=12.084615384615384;" edge="1" parent="1">
          <mxGeometry width="50" height="50" relative="1" as="geometry">
            <mxPoint x="611.75" y="-1525" as="sourcePoint" />
            <mxPoint x="612.24" y="-1797" as="targetPoint" />
          </mxGeometry>
        </mxCell>
        <mxCell id="npopnhAjGusDiyGefJ4p-204" value="" style="endArrow=classic;html=1;rounded=0;strokeWidth=3;strokeColor=#333333;shape=flexArrow;fillColor=#333333;width=6.538461538461538;endSize=12.084615384615384;" edge="1" parent="1">
          <mxGeometry width="50" height="50" relative="1" as="geometry">
            <mxPoint x="47.75" y="-1244" as="sourcePoint" />
            <mxPoint x="355.75" y="-1244" as="targetPoint" />
          </mxGeometry>
        </mxCell>
        <mxCell id="npopnhAjGusDiyGefJ4p-205" value="" style="endArrow=classic;html=1;rounded=0;strokeWidth=3;strokeColor=#FF3333;shape=flexArrow;fillColor=#FF3333;width=6.538461538461538;endSize=12.084615384615384;" edge="1" parent="1">
          <mxGeometry width="50" height="50" relative="1" as="geometry">
            <mxPoint x="658.16" y="-1787" as="sourcePoint" />
            <mxPoint x="657.75" y="-1512" as="targetPoint" />
          </mxGeometry>
        </mxCell>
        <mxCell id="npopnhAjGusDiyGefJ4p-206" value="" style="endArrow=classic;html=1;rounded=0;strokeWidth=3;strokeColor=#FF3333;shape=flexArrow;fillColor=#FF3333;width=6.538461538461538;endSize=12.084615384615384;" edge="1" parent="1">
          <mxGeometry width="50" height="50" relative="1" as="geometry">
            <mxPoint x="357.75" y="-1962" as="sourcePoint" />
            <mxPoint x="31.75" y="-1962" as="targetPoint" />
          </mxGeometry>
        </mxCell>
      </root>
    </mxGraphModel>
  </diagram>
</mxfile>
